<svg width="158" height="69" viewBox="0 0 158 69" xmlns="http://www.w3.org/2000/svg">
    <g fill="none" fill-rule="evenodd">
        <path d="M96.497 55.405c.051 4.091-.079 8.024.082 11.96h2.464c.04-.37.09-.633.091-.897.01-1.852-.026-3.705.02-5.555.051-2.107 1.245-3.32 3.323-3.485.373-.029.744-.075 1.247-.127v-2.159c-2.118-.444-3.51.577-4.765 2.062l-.608-1.799h-1.854zm-18.744 1.973v-2.115h-3.302l-.202-2.348c-1.034-.39-1.635-.117-1.835.828-.219 1.04-.777 1.753-1.77 2.166-.523.217-.698.655-.46 1.258l1.534.394c0 .681-.002 1.28 0 1.876.005 1.527-.064 3.06.034 4.58.188 2.94 1.808 4.195 4.715 3.74.471-.075.924-.265 1.402-.406.035-.346.094-.613.081-.877-.013-.254-.1-.504-.154-.75-.58.04-1.07.11-1.556.101-1.097-.02-1.758-.459-1.8-1.492-.09-2.273-.028-4.55-.028-6.955h3.341zm42.626 9.697c2.357.91 4.687 1.1 7.014.108 1.273-.543 1.898-1.635 1.925-2.996.026-1.283-.472-2.355-1.663-2.976-.773-.404-1.585-.733-2.377-1.1-.545-.252-1.107-.477-1.622-.779-.49-.287-.956-.765-.667-1.327.213-.415.742-.835 1.194-.922.673-.128 1.41-.018 2.105.091.638.098 1.256.33 2 .533.27-.614.518-1.183.794-1.815-2.252-.909-4.375-1.207-6.544-.464-2.033.698-2.88 2.88-1.729 4.623.423.642 1.172 1.125 1.865 1.518.944.538 1.99.897 2.967 1.381.657.327 1.22.787 1.083 1.646-.107.673-.76 1.214-1.748 1.198-1.078-.02-2.153-.243-3.225-.407-.45-.069-.89-.215-1.372-.336v2.024zm-53.557.342c0-1.056.005-1.97 0-2.883-.012-1.96.038-3.926-.06-5.883-.099-1.99-1.103-3.093-3.053-3.495-1.752-.36-3.359-.043-4.717 1.203-.104.097-.257.14-.444.236l-.59-1.244-1.72.093v11.944h2.44c.028-.615.073-1.146.076-1.677.011-1.58-.023-3.16.017-4.74.018-.7.077-1.425.282-2.088.43-1.389 1.495-1.997 3.056-1.879 1.281.095 1.84.692 2.068 2.278.085.591.121 1.191.127 1.79.017 1.687-.004 3.377.014 5.065.004.413.1.823.158 1.28h2.346zm24.683.02c.316-2.013.25-10.794-.064-11.969h-2.355c0 1.846.016 3.58-.007 5.312-.012.87-.002 1.756-.165 2.603-.339 1.764-1.573 2.63-3.299 2.443-1.347-.146-2.02-1.028-2.057-2.855-.04-2.014-.004-4.032-.017-6.047-.002-.473-.069-.946-.108-1.433h-2.508c0 2.853-.01 5.572.01 8.29.004.43.125.862.231 1.284.317 1.266 1.102 2.108 2.361 2.475 2.103.614 3.991.237 5.642-1.354.258.476.476.878.68 1.251h1.656zm25.553-5.198c-.06-1.247-.006-2.287-.188-3.283-.254-1.387-.976-2.565-2.264-3.252-2.74-1.464-7.22-.804-8.106 3.756-.244 1.257-.213 2.63-.004 3.898.356 2.168 1.696 3.581 3.873 4.183 1.638.453 3.247.295 4.852-.089 1.371-.328 1.527-.71.984-2.284-.51.14-1.019.34-1.546.411-.914.123-1.848.284-2.758.218-1.908-.139-2.973-1.593-2.624-3.558h7.781zm-64.717.012c0-.928.031-1.579-.006-2.228-.158-2.776-1.73-4.638-4.326-4.948-2.693-.322-5.013.764-5.952 3.505-.616 1.796-.615 3.66-.07 5.472.56 1.87 1.864 3.004 3.767 3.505 1.584.418 3.138.283 4.694-.083 1.43-.337 1.548-.569 1.172-2.304-.515.131-1.023.312-1.545.38-.969.124-1.956.31-2.917.236-1.816-.14-2.795-1.466-2.65-3.535h7.833zM33.8 67.431l5.6-15.923h-2.75l-4.264 12.7-4.3-12.699H25.38l5.595 15.921H33.8zm124.188-22.556v23.257H.067c0-22.275-.002-44.548.018-66.823C.085.88-.245.303.396 0 .39 14.627.381 29.255.381 43.882c0 .307.091.614.155 1.016h155.81c.547 0 1.094-.015 1.641-.023z" fill="#FFF"/>
        <path d="M155.136 42.171c.343-2.26.243-38.327-.09-39.454-4.095-.329-150.636-.164-151.871.171v39.283h151.96zm2.852 2.704c-.547.008-1.094.023-1.641.023l-153.781.001H.536C.473 44.496.38 44.19.38 43.882.381 29.255.39 14.627.397 0h157.59v44.875zM33.8 67.43h-2.825L25.38 51.51h2.705l4.299 12.697c1.415-4.211 2.832-8.432 4.264-12.7h2.75l-5.6 15.924M49.69 60.18c.01-2.081-.845-3.157-2.466-3.18-1.703-.021-2.735 1.16-2.7 3.18h5.166zm2.65 2.07H44.51c-.146 2.07.834 3.396 2.65 3.536.96.075 1.948-.112 2.916-.236.523-.067 1.03-.25 1.546-.38.375 1.736.258 1.968-1.173 2.305-1.555.365-3.11.5-4.693.083-1.903-.501-3.207-1.637-3.768-3.505-.545-1.812-.545-3.677.07-5.473.939-2.741 3.26-3.827 5.953-3.504 2.595.31 4.168 2.17 4.326 4.948.037.648.005 1.3.005 2.227zM114.44 60.202c-.163-2.29-1.083-3.306-2.78-3.199-1.613.101-2.583 1.371-2.387 3.2h5.168zm2.619 2.037h-7.781c-.35 1.965.716 3.42 2.623 3.558.91.066 1.845-.095 2.759-.218.527-.07 1.036-.272 1.546-.41.543 1.572.386 1.955-.984 2.283-1.606.384-3.214.542-4.853.09-2.177-.603-3.516-2.016-3.872-4.184-.21-1.269-.241-2.64.004-3.898.886-4.56 5.365-5.22 8.106-3.756 1.288.687 2.009 1.865 2.263 3.252.183.996.127 2.036.189 3.283zM91.505 67.438H89.85l-.68-1.251c-1.65 1.59-3.539 1.968-5.642 1.354-1.259-.368-2.044-1.21-2.36-2.475-.107-.422-.228-.856-.23-1.284-.022-2.718-.012-5.437-.012-8.29h2.508c.04.487.106.96.11 1.432.011 2.016-.025 4.034.015 6.048.036 1.826.71 2.709 2.057 2.855 1.726.186 2.96-.68 3.3-2.444.162-.846.152-1.733.164-2.602.023-1.733.007-3.466.007-5.312h2.355c.314 1.175.38 9.955.064 11.969M66.823 67.417h-2.346c-.06-.457-.154-.867-.158-1.279-.018-1.689.003-3.378-.014-5.067a13.548 13.548 0 0 0-.127-1.789c-.228-1.586-.788-2.182-2.068-2.278-1.561-.117-2.626.49-3.056 1.88-.205.662-.264 1.387-.282 2.087-.04 1.58-.007 3.16-.017 4.74-.003.531-.048 1.062-.078 1.678h-2.438V55.444l1.72-.092.59 1.244c.187-.097.34-.14.444-.237 1.357-1.246 2.965-1.564 4.717-1.203 1.95.403 2.953 1.505 3.053 3.495.098 1.957.048 3.922.06 5.883.004.913 0 1.827 0 2.883M120.38 67.075v-2.024c.482.121.92.267 1.372.337 1.07.164 2.147.386 3.224.406.987.016 1.64-.525 1.748-1.198.136-.859-.425-1.319-1.083-1.646-.977-.484-2.022-.843-2.967-1.38-.692-.394-1.441-.877-1.864-1.518-1.152-1.745-.304-3.926 1.728-4.623 2.17-.744 4.292-.446 6.545.463l-.794 1.815c-.744-.204-1.362-.435-2.001-.533-.694-.109-1.431-.219-2.104-.09-.452.086-.981.506-1.195.921-.29.562.177 1.04.667 1.327.516.303 1.078.527 1.622.78.793.366 1.604.695 2.377 1.1 1.192.62 1.689 1.692 1.664 2.975-.027 1.361-.652 2.453-1.925 2.996-2.327.992-4.657.801-7.014-.108M77.753 57.378h-3.34c0 2.404-.064 4.683.027 6.955.042 1.033.703 1.472 1.8 1.492.487.009.975-.061 1.556-.101.054.247.142.497.154.751.013.263-.046.53-.08.877-.479.14-.932.331-1.403.404-2.907.456-4.526-.8-4.715-3.738-.098-1.522-.029-3.054-.034-4.58-.002-.598 0-1.196 0-1.876l-1.534-.395c-.238-.602-.063-1.041.46-1.258.993-.413 1.551-1.126 1.771-2.166.2-.945.8-1.218 1.834-.828l.202 2.349h3.302v2.114zM96.497 55.405h1.854c.18.528.364 1.075.608 1.8 1.255-1.486 2.647-2.507 4.765-2.063v2.16c-.503.051-.874.097-1.247.126-2.078.164-3.272 1.378-3.324 3.485-.045 1.85-.01 3.703-.019 5.555 0 .264-.052.527-.09.897h-2.465c-.16-3.936-.03-7.869-.082-11.96" fill="#000"/>
        <path d="M32.196 22.076c0 1.1-.002 2.023 0 2.948.007 2.292-.058 4.587.046 6.875.098 2.146.89 4.001 3.129 4.723 2.479.8 4.937.54 7.433-.477-.061-1.334.219-2.606-.177-3.885-.522.087-.952.163-1.383.231-.485.077-.968.202-1.455.212-1.622.034-2.32-.612-2.346-2.228-.036-2.128-.011-4.256-.012-6.385v-2.148h5.175v-3.974h-5.22v-3.86h-3.387c-.28.727-.597 1.367-.772 2.044-.334 1.3-1.086 2.168-2.273 2.814-1.527.831-1.538 1.04-1.025 2.938l2.267.172zm116.216 14.575c.047-.39.094-.604.094-.817 0-4.037.048-8.074-.025-12.11-.06-3.216-1.82-5.373-4.85-5.906-2.698-.475-5.244-.128-7.2 2.095-.132.152-.313.263-.572.475l-.85-2.282h-3.775c-.31 2.22-.22 17.35.095 18.507h4.995v-1.705c.003-2.563-.042-5.129.036-7.69.03-1.019.21-2.072.543-3.034.562-1.63 2.209-2.459 3.963-2.168 1.473.245 2.242 1.23 2.366 3.074.044.652.043 1.308.045 1.963.004 2.727-.004 5.455.007 8.182.002.465.078.93.12 1.416h5.008zm-35.791-13.98c.672-.256 1.16-.509 1.68-.625 1.22-.274 2.452-.647 3.687-.68 2.173-.059 3.072 1.191 2.62 3.534-.67 0-1.373-.012-2.077.003-1.92.041-3.815.22-5.65.85-2.333.802-3.606 2.438-3.718 4.867-.143 3.105 1.11 5.59 4.117 6.211 2.679.555 5.235.264 7.328-1.772.217-.212.474-.383.77-.62l.995 2.193c1.232.12 2.4.166 3.619-.035.033-.558.08-.987.08-1.417.006-3.493.012-6.987-.004-10.48-.003-.65-.095-1.304-.165-1.953-.296-2.734-1.927-4.319-4.478-5.025-1.98-.545-4-.533-6.016-.154-1.548.29-3.077.63-4.451 1.636l1.663 3.467zM51.619 36.662v-1.785c.004-2.565-.06-5.132.043-7.693.045-1.12.28-2.286.694-3.326.562-1.41 2.298-2.129 3.849-1.833 1.39.266 2.174 1.254 2.31 2.968.054.652.055 1.31.056 1.963.005 2.674-.002 5.348.006 8.021 0 .53.05 1.06.086 1.744h5.045c.043-.49.095-.805.095-1.122.003-3.874.039-7.748-.017-11.622-.038-2.653-1.044-4.803-3.69-5.82-2.467-.95-6.092-.71-7.903 1.474-.177.212-.425.365-.574.492 0-1.62.012-3.195-.004-4.77-.016-1.608.073-3.224-.063-4.9-1.838.073-3.46-.158-5.047.147-.331 2.761-.203 24.901.149 26.062h4.965zM15.366 22.998c.062-.59.088-1.188.193-1.77.45-2.499 1.896-4.134 4.375-4.753 1.652-.412 3.339-.554 5.04-.252.305.055.618.061 1.103.105-.023-1.493.239-2.87-.154-4.266-.325-.089-.583-.215-.845-.22-1.201-.037-2.41-.12-3.604-.039-5.586.382-8.885 3.151-10.271 8.067-.842 2.988-.965 6.051-.56 9.083.734 5.485 4.422 8.444 9.853 8.052 3.005-.217 5.326-1.605 6.567-4.426 1.148-2.614 1.16-5.313.122-7.963-.761-1.939-2.183-3.25-4.253-3.739-2.862-.676-5.418-.244-7.566 2.121zm84.845 13.736c1.642-.109 3.188.174 4.759-.188v-24.35h-7.152c-1.016 3.077-1.995 6.133-3.034 9.17-1.025 2.991-1.84 6.062-3.187 9.338l-5.763-18.518H78.69V36.6h4.802l-.254-18.235.156-.02L89.05 36.65h4.873l6.05-18.273.237.063v18.294zm54.925 5.437H3.174V2.888c1.236-.335 147.777-.5 151.872-.17.333 1.126.433 37.193.09 39.453zM49.69 60.18h-5.165c-.036-2.02.996-3.201 2.699-3.18 1.62.023 2.477 1.099 2.466 3.18M114.44 60.202h-5.167c-.196-1.828.774-3.098 2.388-3.199 1.696-.107 2.616.91 2.78 3.2" fill="#FFF"/>
        <path d="M100.21 36.734V18.44c-.079-.02-.158-.042-.236-.063-2.014 6.082-4.028 12.163-6.05 18.274H89.05l-5.655-18.308-.156.021.254 18.235H78.69V12.188h7.143l5.763 18.518c1.347-3.277 2.162-6.347 3.187-9.34 1.04-3.035 2.02-6.091 3.034-9.168h7.153v24.35c-1.572.361-3.117.079-4.76.188M22.855 28.559c-.122-2.068-.762-3.234-2.163-3.737-1.562-.562-3.35-.01-4.372 1.35-1.554 2.072-.086 5.969 2.447 6.494 1.421.296 2.945-.416 3.503-1.764.305-.736.397-1.56.585-2.343m-7.489-5.561c2.148-2.365 4.703-2.796 7.565-2.121 2.07.489 3.492 1.8 4.253 3.74 1.04 2.65 1.026 5.348-.122 7.963-1.24 2.82-3.56 4.208-6.566 4.425-5.432.393-9.12-2.566-9.853-8.051-.406-3.033-.283-6.095.56-9.083 1.385-4.916 4.684-7.685 10.27-8.068 1.195-.082 2.403.002 3.605.038.261.007.52.133.844.222.393 1.394.132 2.772.154 4.266-.484-.044-.798-.05-1.103-.105-1.7-.303-3.388-.16-5.04.252-2.479.618-3.923 2.254-4.374 4.753-.106.582-.13 1.179-.193 1.769M51.618 36.662h-4.965c-.35-1.16-.48-23.3-.149-26.062 1.587-.305 3.21-.074 5.047-.148.136 1.677.047 3.293.064 4.901.015 1.575.003 3.15.003 4.77.15-.127.397-.28.574-.492 1.811-2.185 5.436-2.425 7.905-1.475 2.644 1.018 3.65 3.168 3.688 5.821.056 3.874.021 7.748.018 11.623 0 .316-.053.631-.096 1.121h-5.045c-.035-.684-.085-1.214-.086-1.744-.008-2.673 0-5.347-.006-8.02 0-.655-.002-1.312-.055-1.964-.137-1.714-.92-2.702-2.31-2.968-1.552-.296-3.288.423-3.85 1.833a10.289 10.289 0 0 0-.694 3.326c-.102 2.561-.039 5.128-.043 7.693v1.785M120.763 27.916c-.657 0-1.157-.067-1.631.014-1.071.181-2.183.298-3.177.696-1.208.482-1.688 2.018-1.274 3.374.289.947 1.185 1.434 2.52 1.367 1.88-.092 3.213-1.184 3.54-3.039.129-.727.022-1.498.022-2.412m-8.142-5.245-1.663-3.467c1.374-1.006 2.903-1.346 4.45-1.636 2.018-.379 4.037-.39 6.017.155 2.55.705 4.182 2.29 4.478 5.024.07.65.162 1.302.165 1.953.016 3.493.01 6.987.005 10.481-.001.43-.048.858-.081 1.416-1.218.201-2.387.155-3.62.035l-.993-2.194c-.297.238-.554.41-.771.622-2.093 2.035-4.65 2.326-7.328 1.771-3.007-.622-4.26-3.105-4.117-6.21.112-2.43 1.385-4.066 3.719-4.869 1.834-.63 3.73-.808 5.649-.849.704-.015 1.407-.003 2.077-.003.452-2.342-.447-3.592-2.62-3.534-1.235.033-2.466.406-3.686.68-.52.116-1.01.37-1.681.625M148.412 36.651h-5.007c-.044-.486-.12-.95-.121-1.416-.012-2.727-.003-5.454-.008-8.183-.001-.654 0-1.31-.044-1.962-.125-1.845-.893-2.83-2.366-3.073-1.754-.291-3.402.535-3.964 2.168a10.427 10.427 0 0 0-.543 3.033c-.077 2.561-.032 5.126-.035 7.69v1.706h-4.995c-.315-1.158-.405-16.287-.095-18.507h3.775l.85 2.28c.259-.212.439-.322.573-.474 1.955-2.223 4.5-2.57 7.2-2.095 3.029.534 4.789 2.69 4.848 5.905.074 4.037.026 8.075.026 12.111 0 .213-.048.425-.094.817M32.196 22.076l-2.267-.172c-.513-1.899-.502-2.107 1.025-2.938 1.187-.646 1.939-1.514 2.273-2.814.175-.677.492-1.317.772-2.044h3.387v3.86h5.22v3.974H37.43v2.148c0 2.13-.024 4.257.012 6.385.026 1.616.724 2.262 2.346 2.228.487-.01.97-.135 1.455-.212.43-.068.86-.144 1.383-.23.396 1.278.116 2.55.177 3.884-2.496 1.016-4.954 1.276-7.433.477-2.238-.722-3.031-2.577-3.13-4.723-.103-2.288-.038-4.583-.045-6.875-.002-.925 0-1.849 0-2.948" fill="#000"/>
        <path d="M22.855 28.559c-.188.784-.28 1.607-.585 2.343-.558 1.348-2.082 2.06-3.503 1.764-2.533-.525-4-4.422-2.447-6.493 1.022-1.36 2.81-1.913 4.372-1.351 1.401.503 2.041 1.669 2.163 3.737M120.763 27.916c0 .914.107 1.685-.021 2.412-.328 1.855-1.66 2.947-3.54 3.04-1.336.066-2.232-.42-2.521-1.368-.414-1.356.066-2.892 1.274-3.374.994-.398 2.106-.515 3.177-.696.474-.08.974-.014 1.63-.014" fill="#FFF"/>
    </g>
</svg>
