<svg width="309" height="65" viewBox="0 0 309 65" xmlns="http://www.w3.org/2000/svg">
    <g fill="#000" fill-rule="evenodd">
        <path d="M149.534 38.717c9.628.266 18.271-7.921 18.526-17.667.27-10.291-7.623-18.2-16.903-18.904-10.929-.826-19.464 7.564-19.87 17.292-.443 10.63 7.563 18.984 18.247 19.279m20.56-18.287c-.009 11.38-9.119 20.376-20.608 20.354-11.217-.022-20.278-9.107-20.304-20.357C129.155 9.084 138.322-.027 149.73 0a20.325 20.325 0 0 1 20.366 20.43M73.116 53.966c-1.329 2.902-2.629 5.818-4.012 8.693-.22.458-.844 1.065-1.217 1.024-.516-.056-1.18-.562-1.416-1.05-1.064-2.194-1.995-4.45-2.986-6.679-.322-.724-.68-1.431-1.313-2.076 0 2.773.033 5.548-.03 8.321-.011.515-.273 1.291-.655 1.485-1.013.508-1.634-.04-1.638-1.31-.009-4.493-.025-8.986.029-13.478.005-.475.37-1.265.71-1.352.795-.204 1.627-.265 2.11.883 1.59 3.792 3.32 7.527 5.13 11.58.557-1.176 1.04-2.135 1.473-3.118 1.23-2.789 2.466-5.576 3.644-8.388.395-.946 1.117-1.296 1.93-.968.426.17.843.955.851 1.471.068 4.338.052 8.678.032 13.017-.009 1.759-.267 1.923-2.298 1.535v-9.555l-.344-.035M257.72 55.22c1.693-.094 3.229-.042 4.71-.302 1.496-.265 2.039-1.31 1.973-2.951-.06-1.47-1.031-2.098-2.255-2.231-1.441-.155-2.913-.036-4.427-.036v5.52zm6.11 1.711c.94 1.752 1.877 3.386 2.688 5.08.22.458.06 1.095.074 1.652-.724-.182-1.754-.13-2.117-.596-.86-1.107-1.527-2.412-2.05-3.725-.633-1.595-1.59-2.361-3.337-2.022-.39.076-.807.01-1.434.01 0 1.733-.009 3.396.006 5.059.006.754.042 1.397-1.068 1.403-1.085.005-1.318-.576-1.32-1.432-.006-4.54.002-9.079-.006-13.617-.001-.986.477-1.334 1.438-1.303 1.533.05 3.07.001 4.606.018 2.774.034 4.703 1.18 5.261 3.1.802 2.766.04 4.602-2.742 6.373zM159.032 55.106c1.49 0 2.91.086 4.315-.024 1.47-.113 2.45-1.352 2.434-2.821-.013-1.364-.873-2.413-2.332-2.538-1.449-.12-2.916-.026-4.417-.026v5.41zm6.15 1.776c.922 1.764 1.827 3.362 2.588 5.025.227.498.22 1.63.034 1.698-.795.29-1.68.396-2.195-.678-.616-1.284-1.471-2.462-2.002-3.775-.578-1.43-1.405-2.127-2.985-1.836-.482.091-.997.015-1.67.015 0 1.81-.004 3.481.001 5.152.001.71-.031 1.288-1.03 1.306-.967.016-1.276-.392-1.275-1.265.007-4.595-.018-9.192.035-13.788.006-.423.479-1.193.752-1.202 2.249-.07 4.513-.13 6.75.07 2.086.187 3.52 1.51 3.906 3.552.435 2.297-.4 4.213-2.447 5.503-.127.08-.271.132-.463.223zM106.81 49.707v11.787c2.72.029 5.627.633 7.309-2.055 1.452-2.318 1.462-5.038.127-7.445-1.623-2.925-4.58-2.318-7.436-2.287m-2.406 5.76c-.001-2.192.031-4.383-.014-6.574-.022-1.009.262-1.525 1.379-1.45 2.132.138 4.304.002 6.393.36 2.694.466 4.397 2.242 4.97 4.947.671 3.151.563 6.182-1.72 8.754-1.371 1.545-3.215 2.117-5.192 2.24-1.529.093-3.068-.026-4.6.037-.983.039-1.23-.424-1.223-1.282.023-2.345.008-4.69.007-7.032M204.582 52.591c-.79-2.904-2.761-3.962-5.239-2.905-1.078.459-1.742 1.345-1.473 2.376.187.72.992 1.516 1.71 1.802 1.111.442 2.385.48 3.59.687 2.293.395 3.695 1.645 4.02 3.593.344 2.073-.548 3.936-2.41 5.03-2.64 1.548-6.656 1.054-8.603-1.159-.548-.624-.95-1.452-1.175-2.255-.12-.43.154-1.332.468-1.452.692-.264 1.445-.179 1.833.793 1.025 2.553 3.027 3.382 5.637 2.483 1.29-.445 1.832-1.347 1.847-2.665.015-1.308-.83-1.74-1.913-1.97-1.493-.32-2.997-.59-4.468-.985-1.598-.43-2.687-1.443-2.9-3.152-.244-1.953.214-3.606 2.062-4.706 3.252-1.933 7.823-.77 8.895 2.313.628 1.803.125 2.42-1.881 2.172M218.017 49.665v4.574c2.083 0 4.155 0 6.23-.002.723 0 1.422-.12 1.447 1.02.025 1.155-.622 1.205-1.463 1.2-2.032-.015-4.066-.006-6.177-.006v5.09c2.073 0 4.152-.002 6.228.002.462 0 1.008-.134 1.359.067.4.227.824.742.86 1.164.027.3-.567.931-.896.939-3.017.073-6.04.084-9.055-.01-.364-.01-1.003-.753-1.01-1.165a484.073 484.073 0 0 1-.002-14.08c.005-.336.618-.942.962-.95 2.966-.079 5.936-.081 8.903-.002.342.009.976.702.93.99-.072.43-.612 1.102-.976 1.117-2.392.1-4.792.052-7.34.052M87.63 49.666v4.573c2.054 0 4.037.016 6.02-.008.933-.013 1.629.14 1.601 1.302-.027 1.187-.913.893-1.557.905-1.985.037-3.971.013-6.046.013v5.09c2.254 0 4.533-.021 6.812.018.466.008 1.087.101 1.36.402.607.672.014 1.783-.931 1.792-2.92.028-5.84-.008-8.76.022-.812.007-1.066-.327-1.062-1.097.018-4.697.025-9.395-.005-14.092-.005-.9.397-1.144 1.204-1.137 2.817.018 5.634.02 8.451-.003.82-.008 1.24.264 1.227 1.14-.011.887-.461 1.105-1.268 1.093-2.299-.035-4.599-.013-7.046-.013M298.67 56.564v5.657c0 .87-.038 1.61-1.289 1.568-1.283-.043-1.014-.907-1.017-1.614-.018-4.393-.009-8.784-.01-13.177 0-.775-.118-1.548 1.096-1.561 1.271-.015 1.22.794 1.22 1.635v5.09h7.56c0-1.774.016-3.54-.006-5.307-.01-.774-.006-1.413 1.07-1.416 1-.002 1.383.421 1.38 1.377-.012 4.494-.004 8.99-.008 13.485 0 .85-.193 1.518-1.285 1.469-1.1-.05-1.161-.762-1.155-1.593.015-1.834.004-3.667.004-5.613h-7.56zM179.12 49.666v4.573c2.128 0 4.168.032 6.206-.016.857-.02 1.407.18 1.425 1.123.018.996-.616 1.125-1.429 1.114-2.037-.027-4.074-.009-6.2-.009v5.09c2.34 0 4.673-.032 7.003.028.471.012 1.237.27 1.342.588.262.786.27 1.64-1.05 1.62-2.869-.045-5.74-.032-8.611-.002-.79.007-1.108-.292-1.106-1.072.01-4.701.014-9.4-.008-14.101-.004-.867.366-1.164 1.201-1.156 2.818.025 5.638.022 8.458 0 .81-.005 1.224.24 1.22 1.135-.007.909-.444 1.108-1.248 1.097-2.355-.032-4.71-.012-7.203-.012M130.953 51.133l-1.932 5.078h3.855l-1.923-5.078m-5.265 12.607c-1.827.095-1.732-.779-1.426-1.598 1.146-3.092 2.354-6.163 3.541-9.241.567-1.47 1.2-2.915 1.68-4.41.274-.853.78-1.232 1.553-1 .533.158 1.22.549 1.404 1.01 1.79 4.474 3.5 8.982 5.2 13.493.226.605.73 1.451-.399 1.711-.779.18-1.678.29-1.868-.914-.038-.243-.21-.463-.308-.695-.489-1.159-.698-2.997-1.519-3.323-1.417-.567-3.212-.24-4.843-.18-.307.012-.72.467-.867.808-.481 1.116-.805 2.3-1.303 3.406-.21.459-.707.788-.845.933M45.229 51.046l-1.884 5.208h3.792l-1.908-5.208m2.793 7.546c-.299-.015-.551-.04-.804-.04-1.533.011-3.37-.484-4.509.192-1.013.599-1.245 2.5-1.838 3.818-.165.366-.313.907-.6 1.014-.49.18-1.136.214-1.611.035-.194-.074-.281-.924-.136-1.318 1.709-4.611 3.443-9.212 5.259-13.78.186-.47.963-1.012 1.43-.98.554.037 1.356.545 1.555 1.046 1.82 4.568 3.549 9.174 5.239 13.793.134.364-.223.906-.351 1.368-.646-.253-1.624-.323-1.875-.787-.738-1.364-1.188-2.88-1.759-4.361M240.61 51.092l-1.884 5.12h3.842l-1.958-5.12m-2.8 7.458c-.522 1.335-1.11 2.58-1.491 3.882-.442 1.51-1.361 1.542-2.816 1.06.507-1.421.968-2.794 1.484-4.149 1.358-3.56 2.703-7.124 4.145-10.65.212-.515.866-1.008 1.423-1.197.845-.286 1.325.214 1.644 1.087 1.635 4.484 3.37 8.929 5.003 13.414.178.49.08 1.54-.175 1.647-.841.35-1.675.193-2.024-.926-.334-1.063-.857-2.068-1.178-3.137-.226-.75-.557-1.08-1.38-1.046-1.53.06-3.066.015-4.635.015M8.852 56.263c-.63-1.664-1.22-3.232-1.949-5.159l-1.958 5.159h3.907zM4.046 58.55c-.515 1.413-1.005 2.74-1.48 4.073-.323.898-.945 1.408-1.878 1.09-1.113-.377-.598-1.28-.358-1.926a947.018 947.018 0 0 1 4.88-12.814c.3-.772.534-1.593 1.753-1.562 1.2.032 1.348.774 1.658 1.607 1.578 4.237 3.23 8.445 4.77 12.693.211.583.164 1.781-.132 1.922-.917.435-1.684.087-2.048-1.074-.42-1.347-.728-3.133-1.713-3.79-1.001-.669-2.77-.196-4.202-.218-.357-.006-.715-.001-1.25-.001zM274.364 55.628c.056-2.748.735-5.196 2.998-7.055 2.96-2.431 9.012-1.576 10.06 2.03.188.65.198 1.85-.157 2.066-.973.594-1.58-.03-1.985-1.094-1.049-2.763-4.888-3.046-7.099-.584-2.09 2.324-1.847 7.578.446 9.719 2.244 2.095 5.594 1.429 6.776-1.385.371-.886 1.012-1.274 1.771-.826.344.201.524 1.11.398 1.599-.512 2.01-1.946 3.204-3.92 3.666-5.571 1.303-9.324-2.008-9.288-8.136M23.902 61.543c2.357 0 4.498.006 6.64-.004.785-.004 1.383.066 1.384 1.126.001 1.062-.572 1.115-1.372 1.109-2.56-.024-5.119-.042-7.677.009-.935.017-1.338-.379-1.34-1.238-.012-4.64-.009-9.283-.006-13.925 0-.93.519-1.194 1.392-1.176 1.003.022.983.646.982 1.347-.007 3.623-.003 7.245-.003 10.867v1.885z"/>
        <path d="m155.592 23.273-5.928-10.394c-1.231 2.112-2.374 4.047-3.492 5.996-1.012 1.764-1.995 3.545-2.999 5.313-.175.308-.324.762-.591.863-.571.215-1.212.242-1.826.346-.033-.5-.273-1.111-.07-1.48a804.209 804.209 0 0 1 7.578-13.411 1.617 1.617 0 0 1 2.82.01c2.53 4.408 5.044 8.828 7.532 13.26.719 1.28.416 1.74-1.086 1.743-3.377.008-6.757.028-10.134-.046-.576-.01-1.635-.472-1.63-.704.03-1.03.673-1.55 1.834-1.518 2.554.07 5.115.022 7.992.022M149.521 30.973c-2.605 0-5.21-.01-7.815.006-.847.005-1.519-.1-1.572-1.175-.064-1.286.858-1.031 1.57-1.032 5.261-.016 10.522-.003 15.785-.016.815-.001 1.566-.022 1.564 1.11-.004 1.123-.736 1.122-1.563 1.116-2.656-.024-5.312-.01-7.969-.01"/>
    </g>
</svg>
