<svg width="1920" height="1600" viewBox="0 0 1920 1600" xmlns="http://www.w3.org/2000/svg" xmlns:xlink="http://www.w3.org/1999/xlink">
    <defs>
        <linearGradient x1="50%" y1="50.443%" x2="50%" y2="-32.669%" id="ypvz5e32ic">
            <stop stop-color="#FFF" offset="0%"/>
            <stop offset="100%"/>
        </linearGradient>
        <linearGradient x1="50%" y1="50.443%" x2="50%" y2="-32.671%" id="79qq1gq0od">
            <stop stop-color="#FFF" offset="0%"/>
            <stop offset="100%"/>
        </linearGradient>
        <path id="s51rguwq7a" d="M0 0h1980.903v1600H0z"/>
    </defs>
    <g transform="translate(-31)" fill="none" fill-rule="evenodd">
        <mask id="znz7j54gvb" fill="#fff">
            <use xlink:href="#s51rguwq7a"/>
        </mask>
        <g mask="url(#znz7j54gvb)">
            <g opacity=".48">
                <g opacity=".24" stroke="#B3B3B3" stroke-width="3.664">
                    <path d="M2326.746 394.213c69.24-15.34 158.84 10.208 218.65 79.615 59.811 69.407 71.848 196.647 2.33 254.018-81.332 67.114-238.25 63.968-261.878 205.092-22.393 123.269-10.032 229.128 44.007 227.495 54.038-1.634 134.191 17.316 150.83 106.36 14.552 77.842-26.095 158.106-83.02 206.948-56.925 48.842-127.798 72.59-214.447 101.544-186.123 62.177-318.097 92.904-427.817 140.66-104.922 34.587-210.78 69.379-319.934 79.17-110.89 9.948-224.303-5.977-344.426 30.967-77.526 23.85-145.764 57.537-214.845 77.137-69.082 19.6-143.667 25.753-216.229-15.117-86.38-48.647-150.237-167.972-216.934-174.013-62.455-5.624-134.303 79.643-202.66 33.79-53.037-35.563-60.647-114.75-71.532-182.097-10.886-67.346-46.633-146.488-108.7-144.502-83.382 2.673-121.95 150.924-204.822 140.419-43.71-5.568-71.458-56.22-78.279-104.105-6.82-47.886.38-97.294-7.489-144.976-28.017-169.716-232.292-264.828-232.832-437.329-.286-71.606 36.834-136.706 78.113-192.035 41.278-55.328 88.755-106.722 116.178-171.683 27.423-64.962 29.78-149.606-15.061-201.455"/>
                    <path d="M2318.356 393.963c64.962-21.994 152.92 1.94 212.044 70.474 59.124 68.534 71.049 194.225 2.431 250.908-80.274 66.298-239.791 78.51-256.82 207.83-19.646 120.401-5.865 228.014 44.777 231.263 50.642 3.248 129.672 5.568 146.116 93.553 14.422 77.156-25.882 156.696-82.315 205.092-38.466 32.973-83.364 54.373-134.35 76.479-30.624 16.602-63.94 32.647-93.237 40.238-197.01 50.995-328.102 72.553-415.753 122.917-13.688 5.568-29.214 11.813-46.689 17.437-87.066 28.017-175.09 53.278-265.293 61.129-109.729 9.716-221.917-6.18-345.223 34.8-58.112 19.303-112.086 41.4-164.677 58.688-19.488 6.394-38.225 11.981-56.396 16.528-67.262 16.825-141.504 20.565-211.588-21.79-83.383-50.41-141.82-169.047-208.424-177.873-45.733-6.06-87.132 54.345-138.655 59.551-20.287-.325-39.738-4.789-57.788-16.871-52.507-35.126-60.154-113.349-71.03-179.888-10.877-66.539-46.309-144.77-107.725-142.831-82.575 2.552-120.838 148.891-202.81 138.451-43.245-5.512-70.78-55.616-77.573-102.945-6.793-47.33.205-96.18-7.665-143.314-27.99-167.767-230.056-261.85-230.913-432.374-.415-70.817 36.057-135.212 76.648-189.956 40.592-54.744 87.253-105.72 114.22-169.976 26.97-64.256 29.131-148.103-15.228-199.524"/>
                    <path d="M2309.976 392.988c61.342-26.838 146.99-5.614 205.417 62.057 58.429 67.671 70.26 191.803 2.543 247.781-79.215 65.5-240.515 91.874-254.184 217.24-14.375 109.924 1.29 219.096 48.526 228.293 47.236 9.197 124.484-4.39 140.855 80.84 14.282 76.46-25.679 155.276-81.61 203.19-38.207 32.703-86.612 58.363-155.1 96.226-32.147 17.772-65.713 31.2-94.89 36.536-196.24 35.914-325.958 48.656-398.631 101.433-13.651 5.261-25.251 12.704-39.998 19.256-82.937 28.991-170.347 54.02-259.845 61.556-108.578 9.493-219.542-6.385-346.522 38.447-59.82 21.122-114.017 41.91-166.83 57.742-19.554 5.865-38.411 10.885-56.61 14.848-67.541 14.644-141.365 16.036-208.943-27.674-80.404-51.969-133.57-169.697-199.821-179.478-45.473-6.71-89.044 51.802-134.498 66.093-20.083-.315-39.33-4.733-57.203-16.704-51.97-34.69-59.653-111.947-70.53-177.679-10.876-65.731-50.846-144.882-106.722-141.16-81.666 2.477-119.585 146.914-200.73 136.539-42.801-5.485-70.085-55.004-76.878-101.786-6.793-46.781 0-95.066-7.842-141.652-27.96-165.819-227.82-258.918-228.996-427.41-.596-70.027 35.272-133.708 75.112-187.886 39.84-54.178 85.833-104.606 112.29-168.25 26.458-63.643 28.481-146.627-15.405-197.612"/>
                    <path d="M2301.624 391.271c57.677-31.209 141.06-12.463 198.763 54.355 57.705 66.817 69.472 189.371 2.664 244.672-78.789 67.81-240.821 104.207-251.763 226.149-8.89 99.029 9.16 209.565 53.065 224.386 43.904 14.82 118.665-9.92 134.999 69.49 14.143 75.763-25.465 153.865-81.295 201.993-40.833 36.434-103.01 79.466-174.263 114.591-33.41 16.482-67.106 27.34-96.041 30.486-194.56 21.168-322.468 25.455-387.82 80.867-9.567 5.866-19.73 13.828-34.392 20.417-73.063 32.768-159.879 57.36-248.71 64.803-107.427 9.002-217.156-6.588-347.078 41.863-61.194 22.83-115.557 42.346-168.538 56.767-19.618 5.336-38.54 9.81-56.841 13.178-67.746 12.482-141.06 11.554-206.178-33.408-77.434-53.473-125.506-169.958-191.46-180.64-45.287-7.33-90.946 49.241-133.468 68.99-17.883 2.95-36.926-1.402-54.614-13.178-51.449-34.244-59.16-110.546-70.019-175.48-10.857-64.933-61.054-147.128-111.362-141.662-75.123 4.64-112.745 147.138-193.028 136.809-42.355-5.448-69.379-54.391-76.181-100.625-6.802-46.234-.167-93.934-8.018-139.973-27.896-163.88-225.565-255.902-227.072-422.453-.776-69.23 34.35-132.206 73.587-185.808 39.236-53.603 84.357-103.54 110.323-166.524 25.966-62.985 27.84-145.105-15.563-195.701"/>
                    <path d="M2293.29 388.933c54.531-33.9 135.055-18.616 192.1 47.329 57.046 65.945 68.674 186.95 2.785 241.554-78.64 72.08-241.09 116.3-249.053 231.402-6.793 94.194 17.187 202.586 57.871 222.826 40.685 20.24 112.495-11.136 128.067 63.208 14.57 71.355-24.704 148.733-84.375 204.164-49.056 48.368-117.144 94.38-188.908 124.141-33.687 13.976-67.29 22.273-95.846 23.321-192.026 6.84-317.707 3.072-381.62 59.18-7.545 6.626-13.42 16.872-23.525 25.762-65.75 36.313-151.964 60.6-240.042 67.801-106.267 8.686-218.873.343-348.183 47.33-60.925 22.15-115.372 40.46-168.464 53.518-19.655 4.826-38.643 8.751-56.98 11.545-67.866 10.347-140.679 7.136-207.125-38.745-70.669-54.93-113.84-170.004-179.553-181.53-45.139-7.916-92.756 46.66-134.164 69.397-15.052 8.269-33.9 3.972-51.403-7.647-50.92-33.808-58.67-109.144-69.527-173.27-10.858-64.126-72.785-150.182-119.25-143.444-65.454 7.916-102.77 148.548-182.18 138.275-41.89-5.43-68.673-53.78-75.476-99.465-6.802-45.687-.353-92.802-8.185-138.275-27.896-161.949-223.365-252.95-225.176-417.526-.954-68.432 33.559-130.693 72.053-183.747 38.494-53.055 82.9-102.454 108.374-164.798 25.446-63.031 27.2-143.639-15.776-193.78"/>
                    <path d="M2285.523 388.181c51.422-37.204 128.503-26.393 184.862 38.699 56.358 65.09 67.884 184.527 2.876 238.436-78.287 75.986-242.426 130.442-246.259 235.819-5.048 89.544 25.474 195.348 63.105 220.766 37.632 25.419 106.166-8.296 120.365 61.25 15.126 64.19-25.558 145.207-93.73 216.738-54.28 51.97-123.51 93.034-195.46 117.534-33.78 11.507-67.17 17.382-95.233 16.342-188.657-7.006-311.759-18.42-376.572 37.557-7.656 6.617-11.758 18.496-21.827 27.692-50.206 45.817-135.806 69.797-223.18 76.757-105.116 8.352-220.654 8.204-348.628 52.971-60.322 21.085-114.76 38.244-167.907 49.983-19.674 4.344-38.689 7.73-57.036 9.958-67.922 8.24-140.13 2.784-203.988-44.313-67.82-55.95-106.286-169.354-171.841-181.669-45.018-8.463-94.547 44.053-136.42 66.715-15.228 8.241-30.355 11.963-47.671.492-50.401-33.408-58.178-107.743-69.027-171.07-16.175-64.656-86.649-154.395-128.809-146.47-56.609 10.644-91.048 151.267-169.595 141.059-41.446-5.392-67.968-53.166-74.78-98.296-6.812-45.13-.529-91.707-8.352-136.65-27.85-159.964-220.757-249.981-223.23-412.57-.989-67.644 32.717-129.2 70.552-181.651 37.835-52.452 81.434-101.386 106.416-163.08 24.908-65.176 26.82-144.475-15.925-191.86"/>
                    <path d="M2277.802 386.724c48.972-38.55 121.923-33.464 177.586 30.764 55.662 64.228 67.086 182.105 2.997 235.327-78.26 81.898-243.215 143.25-245.21 241.35-5.114 86.63 34.8 186.718 70.585 216.229 34.847 30.383 99.948-1.364 112.077 64.961 14.635 58.159-28.333 143.37-105.006 229.22-56.21 48.527-126.21 84.701-198.058 104.088-33.715 9.103-66.752 12.593-94.194 9.577-184.508-20.333-304.733-38.921-372.182 16.138-7.962 6.496-11.953 19.22-17.419 32.184-40.49 53.77-123.974 78.566-210.66 85.294-103.938 8.064-221.62 15.535-348.1 58.224-59.598 20.11-114.007 36.193-167.146 46.68a556.643 556.643 0 0 1-57.036 8.426c-67.903 6.171-139.435-1.485-200.721-49.677-65.045-56.786-99.048-168.315-164.52-181.382-44.971-8.983-96.31 41.446-139.082 63.106-15.553 7.888-30.355 12.649-44.85 8.203-49.594-32.146-57.408-105.562-68.247-168.082-27.33-66.567-104.607-160.854-139.203-151.1-53.825 9.976-78.52 155.554-156.195 145.401-41-5.373-67.263-52.553-74.084-97.135-6.821-44.582-.715-90.584-8.538-134.98-27.84-158.033-218.483-246.984-221.305-407.587-1.178-66.817 31.85-127.686 68.962-179.572 37.111-51.885 79.976-100.226 104.495-161.28 24.592-69.212 26.67-145.931-16.055-189.938"/>
                    <path d="M2270.072 384.47c46.865-38.81 115.334-39.739 170.3 23.636 54.967 63.374 66.298 179.674 1.699 242.018-77.147 80.274-241.88 144.975-243.847 237.573-6.598 84.95 42.94 178.727 79.569 209.983 32.323 35.153 94.008 8.25 103.502 74.993 13.53 51.217-34.68 148.307-115.316 234.074-57.88 45.074-128.392 76.47-199.775 90.946-33.51 6.775-66.047 7.99-92.802 3.072-179.627-33.065-296.725-58.363-367.06-4.083-8.351 6.412-12.991 19.377-19.283 32.211-31.182 63.95-108.987 92.69-194.94 99.168-102.797 7.759-221.797 22.356-346.615 63.161-58.81 19.23-113.098 34.337-166.162 43.617a514.745 514.745 0 0 1-56.98 6.942c-67.811 4.148-138.61-5.652-197.335-54.827-62.326-57.482-92.096-166.933-157.596-180.704-44.99-9.466-98.045 38.81-141.7 59.55-15.868 7.545-30.893 12.065-45.175 8.27-46.643-23.832-54.484-96.283-66.65-158.247-38.393-68.673-121.06-167.85-154.46-159.071-47.144 10.755-59.709 163.415-136.521 153.318-40.555-5.346-66.567-51.97-73.388-95.976-6.82-44.007-.928-89.47-8.714-133.32-30.894-165.67-216.182-244.013-219.384-402.62-1.336-66.057 31.005-126.211 67.42-177.503 36.416-51.291 78.511-99.224 102.491-159.935 24.51-75.615 26.848-148.483-16.203-187.71"/>
                    <path d="M2262.36 381.425c45.296-37.483 108.736-45.222 162.997 17.27 54.261 62.493 65.5 177.252 3.257 234.892-79.355 95.187-242.612 160.037-249.07 254.091-5.569 76.97 54.947 163.22 92.625 195.96 30.133 39.73 88.487 20.185 95.103 88.905 11.192 48.73-41.946 152.984-124.828 233.861-59.31 41.64-129.987 68.404-200.637 78.074-33.168 4.538-65.092 3.564-90.946-3.155-174.069-45.167-287.844-76.664-361.371-23.07-8.677 6.329-14.17 19.488-19.553 33.965-26.802 71.903-98.686 105.636-183.934 111.882-101.646 7.424-221.184 28.648-344.295 74.084-57.89 12.12-111.966 26.356-164.89 34.54-18.821 3-37.806 4.86-56.851 5.569-67.653 2.19-137.662-9.717-193.854-59.746-59.662-58.038-85.48-165.188-151.11-179.665-45.083-9.93-99.743 36.193-144.27 55.932-16.193 7.183-31.45 11.517-45.732 7.768-44.397-15.545-52.275-87.04-72.033-149.56-45.788-70.53-133.032-175.628-164.529-167.758-42.317 10.57-39.904 173.168-115.872 163.127-40.09-5.317-65.89-51.329-72.683-94.816-6.793-43.487-1.076-88.347-8.89-131.648C-184.91 981.12-362.868 920.9-366.45 764.27c-1.494-65.249 30.16-124.67 65.89-175.395 35.728-50.726 77.025-98.157 100.374-161.337 25.26-84.681 28.063-152.362-16.213-182.67"/>
                    <path d="M2254.601 377.592c44.137-35.088 103.335-47.885 155.74 11.73 53.585 61.649 64.711 174.83 3.583 236.349-80.497 102.815-242.844 168.222-249.897 255.428-7.656 74.325 63.829 153.244 97.442 192.304 33.613 39.06 88.626 26.541 92.45 98.945 8.212 50.466-48.843 155.37-133.58 231.532-60.47 38.271-131.027 60.562-200.666 65.685-32.694 2.404-63.875-.65-88.848-9.067-167.87-56.609-278.202-93.73-355.274-40.777-9.104 6.264-15.424 19.674-20.416 35.58-24.862 79.207-90.816 118.954-175.396 124.958-100.486 7.137-219.82 34.43-340.787 78.362-57.046 11.452-110.824 24.908-163.545 32.1a435.883 435.883 0 0 1-56.674 4.218c-67.42.302-136.586-13.646-190.244-64.437-57.073-58.465-79.253-163.136-145.124-178.254-45.25-10.375-101.423 33.511-146.813 52.266-16.5 6.821-31.988 10.942-46.326 7.257-42.977-7.888-50.893-78.417-81.99-142.154-53.39-73.313-144.308-185.604-172.223-177.966-37.501 10.208-18.727 185.075-93.804 175.09-39.645-5.29-65.147-50.717-71.977-93.656-6.83-42.94-1.271-87.234-10.45-135.63-41.315-198.002-210.131-232.423-214.122-387.04-1.651-64.46 29.326-123.176 64.35-173.345 35.023-50.168 75.577-97.09 98.332-164.853 26.625-91.16 30.059-155.907-16.25-175.526"/>
                    <path d="M2247.01 373.565c42.828-33.26 97.98-50.317 148.353 6.366 52.898 60.785 63.922 172.408 4.056 238.195-82.492 113.218-242.287 174.653-251.234 256.013-10.774 72.264 70.057 145.504 106.64 184.304 33.677 41.678 85.377 35.868 86.602 111.762 5.011 54.177-55.366 157.457-141.55 229.016-61.39 34.977-131.548 53-199.915 53.825-32.1.39-62.437-4.64-86.398-14.625-161.105-67.282-267.957-109.6-348.991-57.176-9.568 6.19-16.76 19.795-21.91 36.843-25.67 84.97-85.212 132.54-169.049 138.275-99.298 6.82-217.732 39.682-336.426 82.306-56.108 10.885-109.506 23.683-161.957 29.993a398.046 398.046 0 0 1-56.415 2.998c-67.123-1.485-135.389-17.428-186.532-68.86-54.558-58.734-73.462-160.76-139.704-176.508-45.473-10.83-103.01 30.819-149.29 48.563-16.807 6.45-32.537 10.347-46.949 6.737-43.023-5.976-54.252-72.19-95.716-136.057-57.583-76.023-149.56-194.967-176.416-189.25-36.082 7.674 1.967 198.688-72.246 188.758-39.2-5.261-64.451-50.113-71.282-92.486-6.83-42.373-5.967-93.257-15.2-144.725-43.218-214.753-203.367-218.66-207.71-371.337-1.81-63.662 28.481-121.664 62.818-171.257 34.336-49.593 74.056-96.514 96.384-172.296 28.434-92.941 32.304-154.905-16.454-164.427"/>
                    <path d="M2239.697 370.382c41.177-33.047 92.589-53.315 142.59 3.118 50.28 56.971 61.204 167.043 2.701 240.793-83.986 118.536-240.719 176.027-256.486 258.017-12.806 66.567 79.067 132.614 119.817 169.986 34.058 44.08 82.547 44.674 81.47 123.853 1.903 57.686-61.453 159.341-148.677 226.437-62.066 31.822-131.538 45.798-198.41 42.596-31.396-1.494-60.786-8.352-83.671-19.804-153.81-77.211-257.238-124.132-342.68-72.274-10.088 6.125-18.19 19.878-24.018 37.65-29.01 88.56-81.768 146.19-164.9 151.712-98.37 7.248-214.957 44.415-331.191 85.907-55.087 10.44-107.994 22.709-160.093 28.267a366.365 366.365 0 0 1-56.099 1.912c-66.761-3.174-134.07-21.038-182.82-73.007-52.135-58.874-68.162-158.07-133.57-179.108-47.18-6.607-105.97 32.796-153.039 49.5-17.113 6.08-33.084 9.745-47.598 6.21-43.44-5.838-64.386-64.962-112.29-131.353-62.224-79.68-149.458-203.32-177.67-201.473-37.863 2.469 18.719 211.83-51.477 204.09-38.745-5.234-63.736-49.491-70.576-91.326-8.352-44.025-14.087-105.442-22.588-159.944-38.977-223.653-193.817-198.838-198.53-349.502-1.978-62.873 27.635-120.16 61.248-169.187 33.613-49.027 72.674-100.105 95.039-185.149 30.244-88.57 34.337-147.787-17.224-147.926"/>
                    <path d="M2232.329 366.354c40.063-31.005 88.162-53.909 135.584-1.457 48.925 55.32 60.274 166.849 2.784 246.853-85.155 121.2-238.214 174.932-259.298 253.832-17.122 64.034 81.526 127.454 130.433 159.369 34.791 46.271 80.264 52.98 77.183 135.287-1.067 61.017-66.993 161.085-154.868 224.042a375.597 375.597 0 0 1-196.192 32.091c-30.625-3.248-58.957-11.749-80.682-24.593-146.08-86.305-246.24-137.346-336.574-86.055-10.672 6.05-19.73 19.925-26.337 38.365-32.917 91.873-80.738 159.257-163.137 164.537-98.314 12.668-211.523 48.62-325.132 89.09-53.973 10.106-106.286 21.994-157.94 26.96a336.52 336.52 0 0 1-55.68.927c-66.335-4.723-132.651-24.444-178.969-76.83-49.835-58.874-63.486-155.1-129.403-176.751-47.71-7.146-107.595 29.994-155.471 45.668-17.391 5.689-33.622 9.131-48.257 5.651-43.914-5.725-76.747-59.588-132.41-128.428-66.158-84.032-143.425-209.89-172.686-212.183-39.31-3.08 24.574 219.403-34.02 219.013-38.291-5.215-63.032-48.888-73.983-96.421-11.414-48.155-20.685-117.014-28.768-178.969-28.704-220.497-181.419-168.9-186.532-317.596-2.135-62.084 26.792-118.656 59.737-167.118 32.944-48.46 71.364-107.27 95.01-198.596 31.247-82.853 35.395-139.425-19.2-131.222"/>
                    <path d="M2224.97 361.491c39.134-28.379 84.58-52.656 128.79-4.863 47.765 54.253 59.542 167.527 2.886 254.473-86.305 122.071-234.733 170.755-305.15 250.62 18.077 60.693 123.259 121.905 176.462 152.41 41.687 42.14 85.953 53.12 81.23 138.413-3.824 64.191-71.922 162.766-160.047 221.797a355.942 355.942 0 0 1-193.306 22.393c-29.697-4.844-56.953-14.848-77.471-28.936-137.95-94.658-235.123-149.114-330.895-98.574-11.312 5.967-21.344 19.916-28.982 38.736-37.974 93.73-82.788 170.06-163.405 176.787-97.944 18.273-207.515 52.248-318.311 91.958-52.767 9.883-104.347 21.53-155.462 26.059a306.915 306.915 0 0 1-55.226.185c-65.89-6.097-131.12-27.59-175.053-80.301-47.7-58.716-59.532-151.88-126.09-174.152-48.257-7.703-109.098 27.2-157.763 41.816-17.632 5.308-34.142 8.5-48.944 5.086-49.055-3.128-94.351-55.774-154.05-127.139C96.974 1180.014 30.732 1053.506.85 1046.982c-40.184-8.77 24.128 223.597-27.247 226.483-30.513 1.392-57.38-44.545-72.033-98.064-15.628-54.818-27.144-131.073-31.822-192.22-16.704-217.667-170.152-141.653-175.627-288.345-2.293-61.25 25.984-117.153 58.196-165.03 32.211-47.876 70.065-122.6 95.855-211.078 31.84-77.23 35.877-131.259-21.577-116.772"/>
                    <path d="M2217.48 355.84c38.198-25.846 81.434-50.318 124.587-3.035 45.083 51.041 56.396 163.331.566 260.347-87.957 121.867-230.195 162.793-309.132 238.955 10.978 61.862 122.36 121.413 184.564 145.876 42.893 43.849 88.06 56.962 82.12 145.096-6.338 67.244-76.152 164.445-164.138 219.94a336.871 336.871 0 0 1-189.799 13.605c-28.768-6.273-54.8-17.632-74.065-32.815-129.505-102.008-224.135-159.536-325.865-109.877-12.064 5.865-23.098 19.85-31.85 38.847-43.616 94.658-86.704 179.775-165.604 188.128-97.052 23.2-202.949 55.319-310.748 94.36-51.458 9.754-102.184 21.345-152.65 25.595a280.772 280.772 0 0 1-54.641-.399c-65.268-7.266-129.477-30.42-171.08-83.345-45.77-58.41-56.433-148.483-123.752-171.424-48.85-8.268-110.434 24.426-159.814 37.965-17.939 4.928-34.662 7.889-52.628 6.033-57.9 1.42-111.956-54.883-174.162-129.125C85.282 1149.491 29.731 1023.41-.42 1012.58c-40.499-14.523 17.048 223.263-27.404 228.915-26.17 4.371-54.085-44.164-70.604-102.648-17.502-59.82-30.94-145.226-31.32-203.533-1.309-207.533-158.172-109.609-163.99-254.306-2.488-60.516 25.056-115.65 56.608-162.96 31.45-47.7 69.732-139.268 97.442-222.483 32.156-72.005 35.896-123.603-24.416-104.105"/>
                    <path d="M2209.964 349.409c37.278-23.387 79.067-46.346 120.642-.418 42.3 47.459 53.825 162.543-1.577 265.738-89.146 120.569-224.813 154.265-310.822 226.437 2.339 62.075 118.88 120.847 182.402 147.193 51.886 37.733 98.194 52.675 91.503 143.537-8.538 70.205-79.596 166.208-167.043 218.465a318.31 318.31 0 0 1-185.706 5.828c-27.683-7.517-52.536-20.055-70.53-36.193-120.819-108.485-213.5-168.593-321.735-120.04-12.788 5.736-24.917 19.712-34.8 38.838-49.186 95.28-92.747 187.136-169.568 198.235-95.707 27.46-197.9 57.797-302.535 96.282-50.048 9.707-99.78 21.344-149.41 25.548a257.32 257.32 0 0 1-53.947-.76c-64.608-8.149-127.704-32.853-167.043-85.898-44.109-57.946-54.364-145.003-122.499-168.621-52.21-7.833-112.29 21.975-165.391 35.914-19.285 5.067-37.817 8.593-58.855 8.26-62.901 3.87-123.65-58.253-191.237-136.819-55.125-91.484-100.421-216.182-130.387-231.3-40.257-20.276 5.345 218.66-34.337 225.435-21.882 7.22-50.697-44.786-67.93-108.253-19.805-67.068-27.711-152.64-24.268-207.802 7.943-204.016-150.34-79.179-156.557-221.89-2.608-59.7 24.277-114.146 55.124-160.872 30.894-52.34 70.53-154.738 99.66-232.784 32.174-67.059 35.45-116.337-27.46-93.461"/>
                    <path d="M2202.298 342.226c36.36-21.001 77.1-41.668 116.16 1.587 40.898 46.91 52.174 163.916-2.672 271.13-89.953 119.139-218.67 146.107-310.47 214.13-7.349 61.139 109.099 123.734 175.638 150.229 62.576 30.272 108.29 49.018 103.808 139.685-10.375 73.1-82.176 168.12-168.723 217.537-61.834 19.025-124.457 17.4-181.066-.844-26.578-8.566-50.169-22.078-66.817-39.033-111.975-113.97-207.719-178.866-318.766-129.134-13.614 5.568-26.801 19.489-37.817 38.708-54.846 95.688-99.864 193.26-175.015 206.948-93.962 31.033-192.462 59.672-293.83 97.684-48.553 9.753-97.135 21.52-145.865 25.891a236.775 236.775 0 0 1-53.11-.844c-63.84-8.705-125.803-34.8-162.943-87.846-42.846-57.333-53.49-141.58-122.498-165.902-59.598-5.958-119.659 21.938-176.547 36.536-20.648 5.299-41.13 9.53-62.724 9.438-69.296 7.108-135.63-65.157-201.77-146.794-46.3-91.002-81.842-213.37-111.214-232.692-39.46-25.985-12.399 207.672-46.095 216.34-19.099 8.816-47.431-46.401-65.175-116.43-17.743-70.028-18.263-151.981-11.48-203.765 1.133-233.053-146.246-50.809-152.863-191.534-2.784-58.91 23.433-112.633 53.593-158.802 30.356-61.203 72.228-169.011 102.454-241.954 31.96-62.437 34.652-109.506-29.975-86.445"/>
                    <path d="M2194.484 334.319c35.84-17.512 75.17-37.12 113.534 7.192 38.365 44.313 49.5 165.095-5.011 272.364-90.807 118.954-211.848 138.275-308.873 201.789-17.01 59.291 96.988 126.953 171.378 149.346 65.638 30.43 113.645 49.937 112.587 139.398-11.777 75.94-83.782 170.208-169.03 217.23-61.082 17.318-121.756 13.698-175.915-6.319-25.437-9.41-47.737-23.674-63.105-41.297-112.096-121.57-231.578-202.559-317.216-137.347-14.486 5.373-28.768 19.21-40.833 38.457-60.395 95.893-107.65 198.364-181.65 214.085-91.874 33.929-186.708 60.934-284.66 98.537-46.977 9.828-94.26 21.874-141.876 26.56a220.024 220.024 0 0 1-52.109-.677c-62.9-8.844-123.714-36.091-158.747-89.016-42.113-56.61-53.973-138.395-129.486-161.54-65.89-4.223-126.545 22.346-184.407 36.499-21.057 5.141-43.617 10.134-68.59 11.711-74.418 3.462-143.694-75.893-204.433-159.313-37.984-89.61-64.377-208.804-92.802-232.246-38.142-31.497-33.02 191.265-64.034 199.172-14.848 11.906-44.025-49.399-56.952-119.715-12.928-70.316-6.663-148.028 2.95-196.285-1.53-263.465-145.698-24.871-152.705-163.61-2.932-58.113 22.588-111.13 52.368-157.763 29.576-78.566 75.077-182.013 105.433-248.95 31.552-58.15 33.483-103.197-31.961-82.26"/>
                    <path d="M2186.476 325.725c35.645-13.27 73.694-31.896 110.703 12.575 37.39 45.25 47.7 168.445-7.025 277.31-91.688 116.931-203.84 126.778-305.402 185.391-26.29 56.61 80.738 132.039 164.454 149.411 67.504 31.832 120.012 49.659 122.824 137.737-12.696 78.743-84.357 172.537-167.907 217.593-60.08 15.98-118.647 10.802-170.273-10.515-24.249-10.013-45.25-24.815-59.272-42.93-128.392-131.677-267.335-230.483-317.383-144.632-15.396 5.123-30.699 18.848-43.895 38.05-65.797 95.92-116.003 202.39-189.159 219.633-89.433 36.165-180.685 61.593-275.13 98.825-45.324 9.93-91.187 22.32-137.513 27.47a205.667 205.667 0 0 1-50.902-.242c-61.714-8.51-121.348-36.564-154.47-89.22-42.085-55.931-55.894-135.657-140.78-156.566-70.474-2.96-131.37 22.273-193.733 37.687-22.634 5.568-45.176 10.403-72.562 13.197-75.884-6.636-149.003-89.498-201.167-173.02-30.123-87.466-47.997-202.698-75.03-230.149-36.313-36.842-51.32 172.955-83.92 175.98-14.227 11.786-39.534-51.969-46.151-119.89-6.617-67.922 5.763-140.846 14.95-191.71 4.14-282.314-145.699 4.528-153.058-132.216-3.09-57.323 21.743-109.627 51.041-161.92 30.151-90.817 78.817-188.305 108.93-249.675 30.95-54.178 32.027-97.321-34.16-78.547"/>
                    <path d="M2178.263 316.473c35.561-9.28 72.803-25.4 108.16 18.152 36.638 46.559 46.253 172.834-8.584 281.19-92.032 114.907-195.32 115.928-299.685 170.013-35.905 52.396 59.903 137.672 144.26 158.19 76.098 27.739 135.38 41.557 143.973 126.267-13.085 81.508-83.81 175.098-165.27 218.623-58.837 15.024-115.121 8.75-164.14-13.364-23.033-10.384-42.744-25.465-55.486-43.895-147.666-140.614-296.827-257.173-319.387-151.267-16.324 4.853-32.638 18.44-46.883 37.668-70.985 95.809-124.476 205.315-197.223 223.485-86.918 37.632-174.607 61.519-265.479 98.37-43.617 10.051-87.939 22.82-132.827 28.528a195.44 195.44 0 0 1-49.473.417c-60.219-7.711-118.591-35.97-150.181-88.208-42.884-55.43-60.702-133.18-154.627-151.536-76.2-1.17-138.655 23.46-204.275 39.71-23.813 5.902-48.387 11.59-76.2 14.672-78.149-19.489-148.316-104.727-192.267-187.544-22.783-84.607-32.833-195.19-61.5-229.406-38.494-45.946-63.866 156.056-97.526 154.051-15.776 9.197-35.004-54.02-35.784-119.028-.78-65.007 16.704-132.91 21.623-209.259 17.354-271.77-145.003 38.355-152.52-82.204-3.424-55.003 21.01-107.52 49.37-169.27 32.138-97.006 83.374-188.286 112.95-244.57 30.207-50.54 30.327-91.912-36.573-75.3"/>
                    <path d="M2169.78 306.599c35.534-5.568 72.061-19.275 107.326 27.154 35.265 46.429 43.617 173.057-10.997 280.642-91.874 112.838-186.402 105.794-291.12 156.455-46.104 46.123 36.833 140.363 126.406 160.547 76.172 31.358 142.757 40.833 155.907 122.99-9.178 80.6-78.334 174.246-157.3 216.693-57.342 14.459-111.204 7.527-157.558-14.848-21.772-10.524-40.184-25.613-51.719-44.155-169.01-146.896-320.25-281.023-333.762-163.851-7.072 11.2-24.351 24.63-39.59 43.82-75.911 95.587-132.975 207.172-205.537 225.658-84.218 38.457-168.454 60.832-255.725 97.321-41.937 10.209-84.598 23.321-127.91 29.632a186.829 186.829 0 0 1-47.839 1.216c-58.381-6.57-115.213-34.096-146.237-85.851-44.239-55.255-69.49-130.378-172.38-145.792-81.61.724-145.457 24.852-212.943 41.492-24.49 6.041-49.278 11.72-80.376 16.537-79.076-34.986-141.986-121.153-178.18-202.42C74.239 988.73 63.762 878.751 27.93 830.095-20.215 764.66-32.642 980.47-66.793 973.316c-16.955 6.496-30.457-55.626-25.984-117.172 4.473-61.546 9.698-148.836 20.546-221.602 38.791-259.019-138.85 59.58-147.935-42.688-4.26-50.188 19.952-105.303 47.18-184.194 35.85-92.718 88.394-176.323 116.652-224.376 29.864-50.81 28.843-90.556-38.624-76.098"/>
                    <path d="M2161.001 296.13c35.59-2.013 71.458-13.474 106.054 34.198 34.597 47.673 42.012 174.468-12.064 281.19-91.122 110.769-177.251 96.227-280.354 144.66-55.96 37.891 12.602 140.13 97.293 167.971 84.691 27.841 155.425 36.926 176.324 112.848-4.64 79.457-71.625 173.4-147.704 215.189-55.579 14.291-106.852 7.136-150.469-15.034-20.49-10.413-37.612-25.26-51.69-44.75-184.676-148.427-335.786-300.446-357.882-183.023-2.617 13.864-4.918 39.153-21.075 58.298-80.515 95.4-141.263 207.95-213.816 226.112-81.47 38.606-162.403 59.505-246.055 95.586-40.239 10.264-81.192 23.776-122.86 30.69a179.108 179.108 0 0 1-46.077 2.06c-56.293-5.309-111.167-31.237-143.082-82.52-45.667-55.133-81.183-126.647-190.503-139.555-85.814 2.31-151.63 26.151-222.994 44.136-25.892 6.496-52.498 13.057-82.39 15.108-78.881-49.342-132.4-135.045-161.271-214.01-9.837-77.026-35.265-195.654-69.602-253.526C-25.3 713.99-28.54 940.418-62.663 928.084c-17.855 3.601-25.985-56.776-16.704-114.415C-75.572 748.884-85 629.14-66.58 565.832c65.583-225.323-127.705 91.354-139.927 5.763-5.243-45.77 17.632-105.748 46.475-198.596 38.29-85.174 91.53-161.392 119.279-208.805 28.415-44.21 26.207-82.482-41.761-70.158"/>
                    <path d="M2151.888 285.115c35.748 1.253 70.938-8.036 105.024 40.777 34.086 48.814 40.917 179.108-12.88 283.974-89.406 106.082-167.378 84.645-266.472 132.605-63.31 30.207-12.788 136.419 71.383 168.074 84.171 31.654 157.977 42.169 190.393 107.566.287 78.168-63.83 172.612-136.623 214.113-53.538 14.496-102.083 7.49-142.915-14.013a179.108 179.108 0 0 1-56.433-44.415c-192.592-147.156-352.026-303.36-385.87-210.521-4.947 12.556 8.11 53.138 3.711 81.768-84.737 95.224-149.114 207.727-221.796 224.896-78.761 38.049-156.474 57.537-236.645 93.154-38.56 10.33-77.796 24.185-117.785 31.655a171.628 171.628 0 0 1-44.285 2.877c-54.187-4.083-107.576-28.416-140.762-78.696-46.957-54.698-92.718-122.072-210.901-131.482-88.84 3.666-157.253 27.609-230.288 43.988-26.802 8.9-55.83 16.621-84.998 4.464-74.158-52.962-118.73-137.208-140.845-213.203-4.278-72.534-42.689-198.02-74.242-263.762-42.299-88.329-39.357 143.955-72.83 126.49-18.431.658-21.55-57.538-16.872-123.427-10.477-91.188-4.38-202.606 19.256-256.19C32.32 315.119-175.464 621.69-191.815 549.76c-7.11-40.601 14.365-115.483 46.336-209.362 40.016-77.842 93.368-147.035 119.937-190.68C1.89 108.226-1.61 71.272-70.087 81.49"/>
                    <path d="M2142.395 273.59c35.998 4.268 71.17-1.476 104.597 48.126 34.002 51.041 39.905 182.226-13.42 285.83C2146.535 708.2 2076.2 680.35 1981.43 728.115c-67.449 24.128-36.536 130.785 44.749 167.711 81.285 36.926 158.747 48.499 199.95 106.277 5.94 75.587-50.827 167.406-119.964 208.897-51.208 15.006-96.904 8.464-138.72-11.823-19.647-9.54-37.929-23.376-54.401-42.92-203.33-145.3-373.259-296.967-432.29-213-2.97 4.223.575 10.264 6.914 19.554 20.834 30.532 19.145 73.016-4.037 101.414-69.36 84.932-128.067 168.565-190.356 181.827-76.171 36.898-150.85 54.93-227.531 90.073-36.936 10.357-74.455 24.5-112.801 32.48a163.331 163.331 0 0 1-42.54 3.63c-52.192-2.924-104.598-25.605-139.036-74.595-48.137-53.88-106.454-115.52-228.562-122.758-93.387 5.568-164.14 29.474-242.464 50.169-28.416 7.507-54.243 3.87-81.109-12.566-69.379-55.978-105.571-137.876-121.496-210.308.64-67.606-48.257-197.111-76.58-269.487-38.05-97.22-30.625 135.602-62.939 113.125-18.7-2.329-19.163-60.033-27.376-154.793-8.213-94.76 12.203-190.94 38.977-235.133 95.13-157.299-128.559 122.016-147.852 62.772-8.223-34.077 13.41-122.694 48.507-208.805 41.019-70.78 93.971-133.338 119.26-173.623 26.393-39.079 21.53-74.854-47.338-66.715"/>
                    <path d="M2132.465 261.6c36.369 7.034 71.838 5.206 104.513 55.114 34.114 53.334 39.34 184.602-13.159 286.851-84.273 95.586-147.555 61.732-237.75 109.506-70.315 17.744-58 123.631 18.097 166.756 76.098 43.125 158.821 54.15 206.262 107.335 13.837 70.734-34.653 159.517-99.78 201.213-48.61 15.777-92.107 10.041-133.747-8.825-19.572-8.863-40.23-21.558-64.117-42.16-204.405-142.321-377.704-292.326-475.267-200.981-4.76 4.454-2.978 10.987 3.713 19.07 27.172 32.834 28.768 82.594 4.76 118.323-52.414 78.13-103.195 138.33-158.895 148.353-73.796 35.088-145.616 51.737-218.939 86.306-35.376 10.366-71.216 24.74-107.956 33.204a157.318 157.318 0 0 1-40.898 4.334c-50.391-1.856-102.082-22.792-137.7-70.353-50.586-52.145-119.482-107.697-248.263-111.798-95.8 6.886-170.69 31.654-248.524 47.997-28.23 5.93-51.663-4.993-76.96-22.421-64.665-58.28-93.053-137.032-103.372-205.408 3.656-62.975-52.276-192.824-77.48-270.48-33.855-104.328-28.259 118.238-58.215 90.75-15.23-1.958-34.523-88.004-33.13-180.212 1.391-92.208 31.923-171.627 59.968-207.282 99.827-126.888-142.915 87.874-161.475 52.944-8.594-21.122 15.952-109.813 53.351-188.323C-71.015 217.37-18.925 161.039 5 123.696 30.343 86.779 24.05 52.034-45.114 58.122"/>
                    <path d="M2122.071 249.192c36.842 9.549 72.701 11.368 105.896 64.098 33.196 52.73 38.05 183.896-13.205 284.735-81.156 90.75-137.96 51.366-223.458 99.298-70.762 13.456-76.553 115.195-8.77 165.856 67.783 50.66 154.413 63.105 207.468 112.43 25.929 61.462-16.862 148.78-75.69 189.315-46.02 16.602-90.017 12.26-131.509-5.188a244.997 244.997 0 0 1-65.351-40.322c-211.728-141.7-382.27-290.665-510.132-195.608-15.1 11.22 6.95 29.947 9.122 51.422 10.82 107-62.864 213.054-135.565 223.05-71.727 32.656-140.873 47.96-210.957 81.971-33.882 10.357-68.108 24.927-103.326 33.808a151.2 151.2 0 0 1-39.357 5.004c-48.74-.745-99.735-19.945-136.568-65.984-55.152-48.86-133.467-98.046-264.903-100.199-99.743 8.76-177.251 33.752-254.37 46.29-25.418-1.93-48.08-13.92-71.82-32.054-60.033-59.968-81.257-134.897-86.574-198.79 1.225-60.322-55.19-185.215-77.657-266.788-30.18-109.59-49.074 73.462-77.592 34.959-10.44-.928-25.4-95.735-12.064-176.528 13.336-80.794 49.714-143.064 77.713-171.368 99.66-100.746-151.416 48.006-174.004 30.392-10.162-13.215 17.159-92.755 56.145-163.925C-53.086 197.39-2.342 146.84 20.191 112.076 44.495 77.064 36.728 43.19-32.707 47.265"/>
                    <path d="M2111.167 236.413c37.427 11.804 73.75 16.983 106.89 70.64 33.139 53.659 38.048 186.384-11.685 283.891-77.712 86.25-128.8 41.65-210.874 75.736-66.65 27.673-90.166 119.826-31.923 177.251 58.242 57.426 146.942 72.934 203.468 120.856 36.193 53.826 2.116 136.81-54.809 170.032-40.833 23.832-81.666 19.665-123.529 3.712-22.857-6.728-48.619-17.029-72.209-37.482-214.985-142.832-377.704-290.545-529.11-192.1-17.883 11.628-6.088 34.197.928 54.818 34.773 102.731-41.111 204.368-113.543 210.66-70.047 29.697-136.698 43.663-203.7 77.026-32.481 10.31-65.138 25.056-98.909 34.336a146.972 146.972 0 0 1-37.919 5.647c-47.227.32-97.609-17.108-135.546-61.55-61.407-43.914-144.929-87.67-281.691-86.919-99.762 9.28-179.665 34.337-255.428 42.401-23.2-7.99-45.065-20.787-67.282-39.496-55.56-61.027-70.288-131.538-71.197-190.634-10.524-61.992-57.13-174.532-77.62-258.704-27.534-113.07-65.37 25.252-90.946-25.056-11.312-8.111-12.742-96.366 9.067-164.38 21.808-68.015 60.321-113.943 87.345-136.308 96.226-79.624-152.873 6.079-182.708 1.708-12.306-8.01 16.268-77.555 56.108-141.681 40.73-51.737 89.804-96.96 110.917-129.505C58.564 67.968 49.256 34.828-20.42 36.935"/>
                    <path d="M2099.696 223.3c38.124 13.79 75.012 22.05 108.356 77.026 33.344 54.975 38.466 189.26-9.429 282.062-74.037 82.027-120.16 32.555-197.464 67.745-62.78 28.546-99.966 110.509-52.897 173.14 47.07 62.633 132.429 85.694 195.905 128.634 42.522 50.41 20.008 125.941-32.035 158.69-37.427 23.573-79.958 21.225-128.336 7.898-22.736-6.264-47.914-16.704-75.17-37.854-212.683-144.585-363.356-290.47-533.87-186.958-20.138 12.23-17.215 37.204-7.118 57.537 50.317 101.228-27.34 191.72-99.104 199.31-68.506 31.08-136.316 39.757-197.26 71.625-31.162 10.255-62.334 25.103-94.732 34.736a142.998 142.998 0 0 1-36.554 6.264c-45.826 1.373-95.586-14.282-134.563-57.073-67.198-37.78-156.956-75.513-296.038-72.785-98.175 9.15-180.287 33.966-252.96 33.827-22.783-8.78-43.83-22.273-64.571-41.27-51.301-61.462-60.182-127.073-57.268-181.149C114.3 882.713 76.54 783.545 56.949 698.01c-26.244-114.898-75.336-21.103-96.282-81.907-10.635-15.266-1.215-94.751 25.734-149.662 26.95-54.91 64.507-86.167 90.074-104.077 91.01-63.802-147.351-36.509-185.539-33.706-16.045-2.153 13.122-63.105 52.841-120.049 39.608-46.234 86.668-86.584 106.389-117.246C72.512 59.467 61.636 26.922-8.18 27.097"/>
                    <path d="M2087.623 209.964c38.921 15.526 76.478 26.57 110.379 83.364 33.9 56.795 39.236 190.745-6.57 279.01-70.14 78.064-112.115 24.026-184.612 60.219-58.892 29.39-103.604 105.265-69.536 169.93 34.067 64.664 113.079 96.921 178.931 139.555 48.257 47.644 38.17 113.85-9.735 145.699-34.55 22.987-77.777 21.641-128.725 9.382-23.943-5.763-48.638-16.472-75.402-37.993-212.776-147.834-348.341-291.463-535.402-179.72-22.096 13.187-26.579 39.775-15.09 60.377 57.287 102.648-18.44 181.761-91.623 187.2-69.026 29.696-139.908 35.951-192.685 64.794-26.838 10.858-56.609 25.78-87.688 35.766a140.242 140.242 0 0 1-35.265 6.858c-44.49 2.413-93.646-11.489-133.635-52.572-74.241-29.632-166.422-62.716-306.617-58.308-96.43 8.826-180.519 33.26-250.315 26.412-22.338-9.401-42.578-23.368-61.918-42.476-47.329-61.25-51.04-121.663-46.233-171.117-26.106-59.496-56.526-145.198-76.302-230.92-26.514-115.204-80.868-63.736-96.05-133.411-8.705-21.939 8.649-91.41 37.789-133.914 29.14-42.503 63.578-61.249 87.55-76.097 85.321-53.055-135.297-78.325-182.932-72.005-20.287 1.856 8.918-51.626 47.626-101.6C1.667 147.202 46.416 111.251 64.81 82.176c21.446-30.625 8.983-62.734-60.925-64.423"/>
                    <path d="M2074.91 196.387c39.802 16.983 78.148 30.523 112.763 88.886 34.615 58.363 40.573 191.682-2.942 275.622-66.103 74.334-104.746 16.055-172.51 53.203-55.022 30.16-104.866 99.697-101.432 166.543 39.775 64.85 110.935 105.655 177.53 149.15 52.74 46.253 50.391 106.853 6.886 136.754-31.46 21.623-78.464 22.068-127.39 8.547-25.353-5.522-53.166-15.72-83.178-38.467-201.64-152.817-320.083-293.783-522.91-170.115-23.962 14.607-34.338 42.448-22.904 63.746 57.166 106.1-14.301 168.473-91.308 173.855-72.284 31.45-151.388 30.021-189.372 55.17-22.625 10.942-46.299 28.073-76.172 38.374a137.96 137.96 0 0 1-34.058 7.425c-43.209 3.424-91.716-8.752-134.303-45.984-78.659-22.504-172.24-51.19-311.657-45.677-94.51 8.352-180.342 32.23-247.595 20.352-21.874-9.847-41.344-24.129-59.394-43.116-43.616-60.535-42.688-115.418-39.31-161.17-26.913-54.363-51.042-127.389-72.219-212.061C55.02 603.704-.56 616.706-9.655 539.968c-5.892-27.84 16.584-86.974 45.53-118.36 28.944-31.385 59.086-40.109 81.581-53.305 80.088-46.958-117.58-118.285-174.922-111.91-24.667 4.158 3.777-42.485 41.074-86.306 36.24-36.62 78.455-68.673 95.586-96.412C99.814 44.09 85.746 12.343 15.81 8.844"/>
                    <path d="M2061.508 182.727c40.833 18.18 80.014 33.91 115.511 93.554 35.497 59.643 42.457 192.1 1.41 271.816-61.973 70.8-98.119 8.603-161.187 46.596-51.217 30.857-102.5 97.554-108.059 161.977 24.398 64.47 86.26 113.033 145.885 163.73 60.368 41.993 61.426 100.226 21.168 127.78-29.195 19.98-73.555 18.43-126.35 5.317-24.806-6.162-54.614-16.398-82.9-40.156-190.04-159.619-290.655-297.615-509.687-157.763-25.873 16.519-40.74 45.473-31.023 67.746 48.387 110.796-19.832 156.668-105.73 159.888-73.461 34.717-151.591 16.797-184.156 37.344-13.242 13.233-29.51 33.223-53.416 47.43-10.775 3.397-21.707 6.274-33.038 7.425-41.974 4.417-89.804-6.07-134.646-38.912-83.383-14.199-177.252-39.07-313.225-33.409-92.422 7.786-179.73 30.94-244.877 15.777-21.4-10.116-40.127-24.519-56.906-43.181-40.239-59.208-35.33-108.532-37.223-151.88-22.133-46.846-41.111-109.21-64.609-191.302C66.898 622.228 12.145 601.95 8.692 519.932 6.01 487.154 31.067 437.877 58.23 415.818c27.163-22.06 52.647-23.294 73.991-35.924C208.105 334.95 36.72 224.33-29.932 227.624c-28.908 4.91-1.856-35.58 33.678-73.981 34.068-32.537 74.112-61.352 89.498-87.8C113.141 37.167 97.448 5.643 27.54.38"/>
                    <path d="M2047.384 168.964c41.835 19.118 82.055 36.731 118.592 97.35 36.536 60.618 44.897 191.96 6.44 267.668-57.806 67.44-92.273 1.67-150.747 40.378-47.478 31.432-96.18 100.802-110.435 158.181 9.865 61.973 60.962 117.218 112.003 174.756 63.105 42.327 70.91 95.252 33.52 120.642-27.191 18.45-73.406 16.853-129.542 3.378-26.384-6.329-56.776-17.632-82.455-42.568-172.556-167.489-256.217-302.089-492.537-141.82-27.915 18.922-45.649 49.055-38.308 71.903 36.564 113.85-42.569 147.87-115.752 161.02-79.374 14.264-155.555-18.634-188.388-3.906-11.285 12.389-15.1 39.32-31.442 58.168-8.5 4.816-16.982 9.698-27.525 12.064-40.972 4.742-88.096-4.092-135.87-30.225-84.859-8-178.255-29.094-310.312-23.266-90.157 7.137-178.625 29.446-242.213 12.76-20.927-10.208-38.977-24.509-54.614-42.689-37.214-57.323-28.769-101.154-36.258-141.987-15.72-39.227-30.764-93.377-57.073-171.405-35.283-104.894-88.97-152.14-87.8-237.87.51-36.953 26.142-77.48 50.614-92.245 24.472-14.765 45.844-10.848 66.307-23.84C216.45 349.148 73.004 205.834-2.11 203.365c-32.712 4.343-7.74-30.708 25.753-62.845 31.83-30.55 70.204-56.786 83.837-82.112C126.217 30.671 108.92-.742 39.085-7.684"/>
                    <path d="M2032.499 155.202c42.958 19.776 84.254 38.977 121.997 100.226 37.743 61.25 47.858 191.274 12.064 263.112-53.658 64.228-87.234-4.742-138.934 43.97-46.131 22.476-91.103 95.066-111.445 145.866.343 61.472 36.378 118.239 77.434 181.891 60.377 46.921 72.608 96.143 37.52 118.926-25.595 16.612-71.152 12.918-129.812-1.856-27.571-6.95-56.062-20.296-78.835-46.252-152.966-174.32-222.289-304.67-477.002-120.346-30.096 21.771-48.944 53.157-44.146 75.875 23.934 113.218-65.064 134.563-134.563 140.808-74.965 6.72-150.246-38.392-183.748-28.833-11.489 10.496-13.131 37.78-16.64 65.89-4.49 7.711-10.801 14.198-20.416 16.917-35.608 10.078-81.99 2.858-131.648-16.24-87.234-.51-176.9-19.387-304.716-13.41-87.688 6.496-176.982 27.84-239.53 11.275a160.018 160.018 0 0 1-52.48-41.529c-34.541-54.93-22.913-93.563-34.04-131.185-10.44-33.037-22.634-81.173-51.867-154.05-39.237-97.888-92.867-164.761-88.56-252.914 3.182-40.23 27.988-73.536 49.639-83.048 21.65-9.513 39.803-2.599 59.7-16.705 70.826-50.113-44.545-219.94-126.86-230.353-35.98 2.59-13.55-27.682 18.077-57.435 29.047-25.808 65.815-49.844 78.575-74.538 16.705-26.68-2.171-58.085-71.875-66.641"/>
                    <path d="M2016.815 141.514c44.146 20.165 86.612 40.656 125.691 102.323 39.079 61.667 51.32 190.03 18.254 258.138-49.556 61.147-82.993-10.626-130.21 37.835-42.745 23.488-83.336 99.076-104.69 149.773-9.28 55.858 13.168 112.606 41.232 179.962 52.897 54.159 69.276 99.706 35.506 120.15-24.695 14.95-74.53 11.137-129.589-8.166-25.882-9.058-52.192-24.416-71.773-51.134-131.602-179.47-191.06-303.908-464.873-92.802-32.341 24.936-50.205 57.797-48.127 79.43 10.338 107.78-84.607 116.095-151.267 114.35-71.457-1.856-146.878-56.452-181.39-51.301-11.86 8.807-13.577 34.476-13.216 64.739.14 11.2-.65 22.328-5.568 29.613-27.302 17.632-72.914 11.934-124.354 1.93-86.937 4.946-172.408-11.823-295.584-5.624-85.006 5.763-174.727 26.124-238.074 12.863-18.82-11.378-35.59-24.973-49.26-41.585-32.183-52.108-19.07-86.306-30.995-120.17-6.301-28.443-16.565-72.385-48.443-139.63-42.818-90.379-98.1-168.509-92.523-258.146 4.993-42.773 28.258-70.613 48.034-77.23 18.56-5.828 34.606 2.18 54.122-13.493 69.453-55.812-18.913-246.538-107.084-266.472-38.67.158-18.95-26.207 10.617-52.674 26.281-23.154 61.546-45.306 73.527-69.518 14.7-25.827-5.81-57.305-75.346-67.402"/>
                    <path d="M2000.324 127.965c45.362 20.295 89.09 41.76 129.654 103.502 40.563 61.74 55.226 188.22 24.87 252.718-45.547 58.187-79.54-15.971-122.424 32.119-39.468 24.35-75.17 102.601-95.4 155.331-17.057 48.814-3.88 107.317 7.424 173.633 43.71 60.757 56.117 108.467 23.488 125.867-23.933 12.779-71.04 4.594-122.016-19.052-23.952-11.136-47.756-28.351-63.959-55.486-108.884-182.263-164.668-297.848-457.04-58.828-34.532 28.24-48.823 62.985-41.028 95.79-14.43 80.794-110.211 79.04-175.061 68.73-69.129-10.979-145.523-72.386-181.456-70.929-12.38 7.35-14.329 31.284-13.92 59.95.167 10.617 1.076 22.727-1.476 31.915-9.484 34.021-50.03 37.26-101.767 34.634-85.637 10.022-165.976-5.086-284.131 1.484-82.084 5.132-171.795 24.454-235.3 14.162-18.411-10.895-34.615-23.84-47.421-39.487-30.096-48.907-16.074-79.309-27.6-109.692-3.257-25.326-12.36-66.354-46.4-128.169C123.6 713.11 65.124 632.315 70.22 541.945c5.892-44.657 27.301-68.785 44.99-72.97 17.01-5.374 31.951 2.106 51.161-15.461 68.358-62.475 4.937-269.19-87.623-299.75-40.5-2.98-23.888-26.069 3.647-49.798 23.377-20.945 57.333-41.52 68.59-65.342 12.788-25.168-9.485-56.823-78.77-68.386"/>
                    <path d="M1982.933 114.647c46.614 20.157 91.651 42.29 133.839 103.79 42.188 61.5 59.542 185.845 31.887 246.853-41.687 55.31-76.868-20.769-115.576 26.83-36.313 25.056-66.678 105.57-85.665 156.658-18.988 51.088-16.64 105.507-20.992 169.011 32.935 66.493 40.202 116.151 8.426 130.675-23.386 10.69-67.43-1.69-113.738-29.428-21.762-13.039-42.689-31.952-55.477-59.06-85.628-182.067-145.225-284.251-453.875-18.068-36.453 31.442-43.83 68.739-35.506 98.027-35.646 58.837-129.765 50.048-194.18 31.015-68.255-20.176-146.125-86.176-183.747-87.596-12.992 6.125-15.405 28.304-15.062 55.273.13 9.985 1.095 21.465 1.856 33.408 2.97 44.378-26.068 62.308-77.415 67.866-84.088 15.025-157.763.501-270.518 7.647-78.881 4.64-168.12 22.904-232.339 16.575-18.013-10.209-33.678-22.366-45.686-36.945-28.24-45.473-13.735-72.84-24.407-100.337-1.16-23.396-9.754-62.549-45.473-119.14C141.26 731.689 78.851 655.332 81.82 565.016c5.8-45.9 25.512-68.07 41.761-71.652 16.027-6.338 30.625-.696 49.52-20.212 67.271-69.416 26.114-287.9-69.454-329.66-41.529-6.497-28.22-26.988-2.635-48.508 21.344-19.433 53.064-38.411 63.829-62.038 10.719-24.602-13.067-56.48-82.139-69.426"/>
                    <path d="M1964.697 101.646c47.868 19.748 94.278 42.234 138.183 103.196 43.904 60.961 64.219 182.875 39.2 240.533-37.985 52.526-74.93-24.982-109.628 21.985-33.26 25.641-57.992 107.947-75.476 160.946-17.484 53-23.757 102.147-43.115 159.267 20.694 71.198 21.687 122.36-9.457 134.117-22.996 8.677-63.57-7.674-104.606-39.05-19.294-14.756-37.121-35.015-46.503-61.593-63.106-178.514-134.647-260.774-454.581 29.9-37.799 34.337-38.977 69.138-35.265 88.728-49.306 41.38-141.273 25.985-206.772-1.642-68.97-29.047-147.1-97.22-187.998-101.35-13.79 5.114-16.788 25.605-16.77 50.865.16 10.769.981 21.517 2.46 32.184 5.623 44.424-3.638 84.07-48.888 101.6-81.35 20.026-148.716 6.078-255.577 14.106-75.504 4.222-163.628 21.576-229.026 19.86-17.632-9.383-32.75-20.603-44.025-34.05-26.55-41.863-12.992-67.244-21.864-92.412.093-22.412-8.52-60.396-45.473-112.012-49.612-69.342-115.604-136.372-116.272-225.407 4.863-46.54 23.117-68.376 38.532-73.025 15.479-8.353 30.114-5.327 48.646-26.746 65.945-76.246 44.035-302.887-53.305-356.1-41.76-10.134-31.042-29.01-8.083-48.47 19.924-18.384 48.87-35.951 59.3-59.393 8.64-24.24-16.704-56.396-85.452-70.641"/>
                    <path d="M1945.571 89.034c49.12 19.099 96.94 41.631 147.722 101.46 40.647 60.322 64.136 179.6 41.659 233.991-34.457 49.826-73.666-28.61-104.532 17.633-30.319 26.068-49.185 109.682-64.479 164.51-15.294 54.827-24.667 103.808-55.236 153.373 3.963 69.871-2.338 121.914-33.019 130.99-22.727 6.72-59.393-13.233-94.546-47.626-16.538-16.166-30.94-37.343-37.38-62.91-43.33-171.73-134.694-225.332-458.155 80.394-38.206 36.11-37.91 64.386-36.109 82.687-61.11 18.04-150.515-3.712-218.697-39.422-71.328-37.344-130.582-101.275-173.373-108.83-18.495 3.11-33.91 20.296-38.178 43.46-1.578 8.575-.77 18.764.733 30.105 5.568 42.02 16.147 101.97-19.182 134.748-76.905 23.275-138.275 9.893-238.854 19.155-71.81 4.046-158.255 20.592-225.175 23.766-17.177-8.408-31.821-18.56-42.4-30.912-24.983-38.29-13.828-62.493-20.417-85.99.65-22.06-8.399-59.394-46.123-106.287-50.67-63.04-119.055-118.675-124.354-204.498 3.108-46.4 20.165-69.536 35.153-76.497 15.108-10.83 29.9-10.783 47.997-33.956 64.358-82.473 58.493-314.357-39.598-378.808-41.167-13.744-32.481-31.618-13.17-49.287 19.313-17.67 45.325-34.133 55.58-57.49 6.57-24.074-20.24-56.554-88.69-72.015"/>
                    <path d="M1927.103 76.794c48.75 18.3 97.99 40.582 150.674 98.815 42.512 59.625 69.332 175.878 49.287 227.133-31.126 47.199-73.026-31.636-100.226 13.734-27.488 26.356-40.341 110.769-52.897 167.248-12.557 56.48-22.542 107.177-61.343 148.65-12.11 65.685-26.532 117.97-56.85 124.43-22.532 4.797-54.753-18.246-83.522-54.754-13.54-17.187-24.351-38.736-28.63-62.948-28.768-162.672-146.988-176.592-497.083 136.42-10.404 24.703-13.466 41.816-18.375 51.44-58.92 13.697-145.384-14.06-210.586-54.457-67.802-41.983-119.26-107.27-161.392-117.552-18.802 1.856-35.738 17.521-51.246 38.29a129.663 129.663 0 0 0-15.275 27.312c4.371 39.589 25.196 108.346 10.645 164.12-71.792 26.68-127.482 13.855-221.481 24.732-67.83 4.13-151.936 20.11-219.366 26.439-17.92-5.717-32.053-14.848-41.983-25.985-23.535-34.856-15.266-58.381-20.417-80.932.65-22.161-9.14-59.087-47.227-101.61-51.18-57.146-120.475-101.033-130.702-182.698.761-45.334 16.658-70.771 31.33-80.441 14.718-13.373 29.613-16.342 47.208-41.083 62.642-87.995 69.685-322.766-26.717-398.167-41.51-17.039-34.736-34.337-17.475-51.041 17.261-16.705 40.443-32.407 50.66-55.681 4.52-23.943-23.738-56.777-91.873-73.37"/>
                    <path d="M1908.33 64.961c48.257 17.42 98.37 39.153 153.011 95.512 44.453 58.558 74.725 171.535 57 219.746-28.027 44.656-72.962-34.04-96.672 10.366-24.76 26.523-31.553 111.204-40.833 169.048-9.28 57.843-18.932 110.434-61.908 146.116-26.124 58.03-49.093 110.156-79.086 114.147-22.338 2.904-49.724-22.523-71.783-60.2-10.375-17.707-17.558-38.978-20.945-61.788-22.727-153.207-173.41-114.444-515.19 173.678-9.726 11.294-16.908 23.284-27.636 27.247-53.445 19.758-136.633-13.623-197.928-57.983-63.273-45.797-108.579-112.513-149.978-125.394-19.052.632-37.39 14.682-54.753 33.957a127.073 127.073 0 0 0-17.632 25.808c-19.488 36.99 1.132 108.495 12.853 188.685-65.277 30.69-115.798 18.365-202.8 31.293-63.597 4.528-144.65 20.249-209.51 25.752-21.678.576-35.264-7.424-44.61-17.52-22.18-31.646-17.688-54.837-22.068-76.97.195-22.542-10.552-59.264-48.628-97.675-51.162-51.607-120.002-84.115-134.832-161.522-1.754-43.756 12.788-71.457 27.024-83.763 14.199-15.776 29.065-21.66 46.132-47.746 60.71-92.849 77.703-328.668-16.055-414.194-41.585-20.221-36.462-37.306-21.177-53.407 15.284-16.101 37.724-31.321 43.097-54.846 5.373-23.526-24.286-56.795-92.004-74.427"/>
                    <path d="M1888.776 53.602c49.083 16.39 98.556 37.4 155.11 91.577 46.4 57.185 80.264 166.598 64.71 211.867-25.14 42.188-73.378-35.812-93.73 7.526-22.142 26.551-22.764 110.973-28.5 169.828-5.734 58.855-14.05 113.218-55.736 150.339-36.193 48.109-70.047 94.593-99.697 96.328-22.19 1.3-44.313-25.752-59.56-63.263-7.174-17.632-11.22-37.983-15.378-59.662-27.933-145.606-215.746-40.638-529.815 192.963-13.085 10.394-23.683 21.567-35.144 25.15-57.12 17.817-135.37-19.22-192.555-67.152-58.614-49.139-97.916-116.661-138.489-131.992-19.265-.576-38.902 11.776-57.945 29.446a125.719 125.719 0 0 0-19.841 24.128c-22.597 35.117-27.451 109.73 7.424 209.176-54.753 36.48-100.55 24.592-180.24 39.988-59.115 5.271-136.363 21.15-198.318 26.031-21.836 1.661-38.559-.928-47.329-10.032-21.882-28.657-21.344-51.672-25.52-73.74-.594-23.061-12.408-59.681-50.169-94.287-50.744-46.42-118.007-68.126-136.92-141.374-4.185-41.984 8.807-71.606 22.43-86.436 13.55-17.976 28.24-26.606 44.75-53.825 58.762-96.904 82.918-332.426-7.694-426.954-41.278-23.22-37.566-40.341-25.817-55.626 15.136-16.166 37.12-31.014 40.48-54.604 3.36-23.59-27.71-57.25-95.03-75.82"/>
                    <path d="M1868.443 42.81c49.854 15.154 99.67 35.32 156.9 87.057 48.49 55.468 85.889 161.04 72.386 203.477-22.486 39.794-74.241-36.944-91.456 5.225-19.619 26.467-14.143 110.082-16.036 169.633-1.894 59.55-8.13 115.575-46.995 155.36-42.318 38.976-84.367 77.823-113.488 77.953-21.883.084-38.522-27.562-48.155-63.912-4.528-17.095-6.746-36.509-13.549-57.38-45.696-140.186-274.508 41.65-543.532 211.941-16.11 9.429-29.882 19.34-42.345 22.217-62.094 14.347-135.444-25.511-188.388-76.627-53.825-51.969-87.336-119.714-127.064-137.346-19.489-1.773-40.286 8.816-60.925 24.778a123.76 123.76 0 0 0-21.948 22.272c-25.566 33.02-46.707 109.636-6.876 222.446-39.172 46.615-80.896 35.107-152.966 53.324-54.39 6.394-127.073 22.904-185.817 27.451-20.815 1.457-38.838 1.41-49.686-3.87-23.35-25.734-26.42-48.6-30.773-70.826-1.615-23.627-14.542-60.191-51.71-91.27-49.927-41.762-114.703-53.427-137.114-122.5-6.385-40.108 4.918-71.383 17.762-88.486 12.779-19.952 27.154-31.107 43.125-59.263 56.87-100.226 85.628-334.542-1.587-436.856-40.61-25.985-37.947-43.292-27.08-58.465 12.455-15.972 34.18-30.542 35.516-54.299 1.336-23.757-31.061-57.806-97.925-77.23"/>
                    <path d="M1848.519 32.536c49.352 13.856 100.16 33 157.16 82.111 50.53 53.454 91.503 154.878 79.81 194.588-20.036 37.492-75.393-37.427-89.647 3.48-17.206 26.263-5.698 108.578-3.555 168.37 2.144 59.792-1.4 117.237-36.842 159.555-43.895 35.06-91.42 60.776-119.185 60.757-20.927 0-33.335-27.488-39.905-62.957-3.11-16.704-5.355-35.645-16.64-55.579-75.745-133.83-323.934 106.407-553.795 231.754-18.783 8.529-35.265 16.881-48.795 18.867-67.273 9.92-136.299-32.657-184.834-86.52-49.027-54.409-76.942-121.755-115.835-141.522-19.656-2.942-41.566 5.828-63.709 19.98a123.621 123.621 0 0 0-23.924 20.352c-28.333 30.717-55.06 106.313-37.975 221.87-10.95 67.208-49.13 55.97-113.339 77.295-49.463 7.842-116.856 25.604-172.027 30.096-19.683 1.345-36.722 1.15-48.99-1.763-31.478-19.814-35.469-42.82-40.415-65.324-2.784-24.202-16.76-60.692-53.11-88.542-48.824-37.4-110.435-39.905-135.724-104.94-8.352-38.16 1.235-70.808 13.178-89.944 11.935-21.697 25.883-35.135 41.371-64.033 55.125-102.834 86.148-335.46 2.367-444.234-39.506-28.351-37.761-46.076-27.488-61.24C227.13 39.125 248.223 24.797 247.537.779c-.687-24.017-34.337-58.465-100.765-78.63"/>
                    <path d="M1829.114 22.709c47.728 12.658 99.205 30.513 155.703 76.95 52.554 51.126 97.052 148.122 87.085 185.224-17.808 35.265-76.83-37.269-88.264 2.283-14.894 25.985 2.506 106.38 8.817 166.06 6.31 59.681 5.967 118.137-25.605 162.728-41.009 38.587-91.697 50.68-118.424 47.2-20.23-2.636-30.012-29.874-37.733-65.602-3.629-16.807-8.78-36.193-25.623-54.048-113.126-119.91-318.747 125.654-555.614 254.992-21.113 7.767-39.757 14.403-54.243 15.35-72.182 4.732-137.347-40.5-181.372-96.71-44.026-56.21-66.818-122.767-104.987-144.539-19.869-4.102-42.763 2.784-66.298 15.053a122.981 122.981 0 0 0-25.762 18.272c-31.014 28.24-63.105 101.21-78.529 213.816 22.338 91.41-12.918 80.376-69.054 104.959-44.368 9.605-105.729 29.196-157.011 34.03-18.44 1.346-34.402 1.077-44.963-2.542-43.895-11.907-48.257-35.265-53.992-58.076-3.963-24.722-18.94-61.12-54.28-86.018-47.468-33.409-105.47-27.748-133.031-88.681-9.93-36.193-2.126-69.908 8.825-90.826 11.062-23.2 24.51-38.698 39.58-68.144 53.63-104.81 84.756-335.563 4.269-449.421-35.886-30.235-37.019-48.452-27.154-63.718 10.385-15.925 29.02-30.189 26.44-54.55-2.58-24.36-37.511-59.142-103.493-79.994"/>
                    <path d="M1809.598 13.382c47.486 11.405 97.442 27.97 153.234 71.662 54.42 48.507 102.351 140.799 93.934 175.395-15.776 33.158-78.454-36.48-87.234 1.652-12.686 25.53 10.45 103.595 20.983 162.691 10.533 59.097 13.79 118.211-13.568 164.742-37.445 41.975-89.637 42.912-117.004 32.546-17.772-6.33-28.602-34.244-42.049-70.817-6.329-17.206-15.516-36.768-36.889-50.652-142.107-86.222-303.87 147.277-546.733 283.046-23.09 7.174-43.162 12.065-61.38 16.101-73.49-5.16-136.632-48.581-173.845-111.705-37-62.744-57.9-122.267-95.41-145.94-20.1-5.272-43.904-.279-68.673 10.004a123.092 123.092 0 0 0-27.479 16.091c-33.474 25.595-70.372 92.617-93.386 199.525 17.743 110.768-9.15 105.441-55.607 134.562-39.135 11.591-93.786 33.567-140.874 39.144-17.085 1.494-31.97 1.272-42.02-2.338-54.865-5.569-59.923-29.372-66.484-52.536-5.16-25.167-20.964-61.453-55.143-83.651-45.89-29.818-100.05-16.844-129.291-73.787-11.23-34.151-5.114-68.674 4.835-91.169 10.208-24.48 23.117-41.76 37.863-71.634 52.46-106.22 81.666-335.2 5.986-452.196-33.66-31.96-36.694-50.883-26.997-66.566 9.698-15.684 25.91-30.068 21.438-54.837-4.473-24.769-40.648-59.885-106.147-81.23"/>
                    <path d="M1791.52 4.287c45.064 10.394 94.49 25.66 150.228 66.52 54.001 45.696 105.246 133.023 98.212 165.235-13.92 31.125-80.19-35.07-86.464 1.559-10.57 25.056 18.069 100.226 32.843 158.31 14.774 58.085 21.892 117.423-1.012 165.476-33.408 45.092-82.835 48.656-114.499 22.968-18.774-11.804-34.587-43.756-55.68-80.524-9.921-17.298-23.47-35.181-43.302-45.213-132.42-64.163-286.396 169.558-532.238 311.174a500.48 500.48 0 0 1-64.71 12.306c-76.238-10.496-136.494-56.805-168.622-121.023-31.673-63.328-48.804-121.515-85.87-147.027-20.416-6.45-45-3.405-70.984 4.845-10.238 3.325-20 7.97-29.037 13.818-35.701 22.82-76.293 81.164-106.296 181.084-10.997 116.105-23.135 121.664-49.537 163.759-33.79 13.697-81.1 38.512-123.724 45.25-15.637 1.772-30.29 2.023-49.009 1.067-54.92-2.784-60.85-26.987-68.311-50.456-6.264-25.558-22.709-61.704-55.57-81.462-44.174-26.523-94.407-7.146-124.781-60.238-12.232-32.137-7.675-67.262 1.29-91.01 9.372-25.53 21.79-44.397 36.313-74.52 51.672-107.168 76.97-334.7 6.96-452.809-32.165-33.539-35.265-53.092-26.718-68.989 8.547-15.897 22.486-30.55 16.13-55.755-6.358-25.205-43.618-60.563-108.644-82.483"/>
                    <path d="M1775.39-4.603c42.31 9.605 89.87 23.683 144.261 61.704 53.26 42.837 107.65 124.94 101.86 154.886-12.324 29.196-81.954-33.056-85.888 2.005-8.547 24.398 25.335 96.263 44.303 152.928 18.969 56.665 30.152 115.724 11.86 164.881-28.88 47.83-75.234 54.81-107.065 27.915-24.38-20.592-44.545-53.704-68.757-86.974-11.387-15.655-25.112-30.55-44.443-39.236-129.719-58.067-280.17 177.066-526.549 323.452-24.277 4.779-46.624 8.027-66.214 8.75-78.065-15.71-135.491-64.84-162.57-129.68-26.477-63.375-40.397-119.956-77.305-147.314-20.722-7.657-46.057-6.57-73.09-.409a124.958 124.958 0 0 0-30.458 11.47c-37.808 19.934-80.877 68.08-116.782 159.24-23.191 107.473-35.692 113.672-51.793 191.357-28.36 15.776-67.745 43.71-108.151 53.027-19.377 4.417-39.32 7.582-56.498 6.57-50.373-2.95-57.268-27.543-65.602-51.273-7.238-25.854-24.128-61.797-55.607-79.336-42.327-23.544-88.737 1.401-119.714-47.979-12.937-30.17-9.772-65.61-1.726-90.407 8.64-26.365 20.593-46.578 35.023-76.896 51.385-107.91 70.79-334.282 6.283-451.75-30.495-34.727-33.427-54.81-28.1-71.013 9.892-16.129 21.427-31.2 13.307-56.869s-46.54-61.249-111.065-83.521"/>
                    <path d="M1759.197-13.28c41.018 8.844 85.489 21.92 137.217 57.23 52.489 39.952 109.506 116.607 104.801 144.4-10.84 27.377-83.66-30.457-85.378 2.97-6.626 23.683 32.221 91.79 55.282 146.627 23.062 54.837 38.43 113.135 24.825 162.914-24.073 50.113-67.31 60.238-99.298 35.673-24.593-18.885-46.448-51.04-72.6-83.438-12.305-15.229-26.967-29.697-47.013-37.928-134.562-55.533-282.275 180.129-526.586 329.224-24.026 3.824-46.623 6.106-63.105 2.645-82.223-17.27-136.725-69.008-158.914-133.969-21.493-62.947-32.982-117.775-69.945-147.072-21.103-8.91-47.078-9.81-75.03-5.754a127.083 127.083 0 0 0-31.71 9.076c-39.646 16.973-83.977 54.048-124.244 135.166-30.912 97.655-44.545 105.312-64.228 214.938-29.288 26.839-59.542 54.754-103.28 69.51-17.428 4.64-35.496 7.934-50.567 6.56-44.22-4.018-52.09-28.963-61.194-52.897-8.036-26.096-25.056-61.834-55.124-77.35-40.406-20.834-83.206 8.89-114.379-36.954-13.382-28.249-11.405-63.792-4.166-89.415 8.018-26.986 19.59-48.33 34.058-78.835 51.477-108.578 65.24-331.303 3.88-449.236-28.649-35.468-31.154-55.987-25.299-72.339 7.647-16.546 16.965-32.193 7.081-58.307-9.883-26.115-49.37-61.89-113.385-84.506"/>
                    <path d="M1742.697-21.697c40.545 8.027 82.863 20.24 130.433 53.147 52.628 36.954 109.655 108.143 105.933 133.914-9.512 25.65-85.257-27.321-84.96 4.426-4.816 22.885 38.652 86.798 65.676 139.333s46.596 109.636 37.705 159.62c-19.033 51.969-59.133 64.859-91.326 42.577-24.862-17.205-48.517-48.257-76.682-79.401-13.252-14.644-28.852-28.444-49.584-36.091-139.203-51.347-284.188 186.708-523.208 335.516-24.686 3.916-46.29 4.807-62.78.613-82.168-20.918-133.636-74.938-151.101-139.537-16.779-62.03-26.718-115.177-64.033-146.572-21.521-10.208-48.025-13.085-76.766-11.136a129.69 129.69 0 0 0-32.787 6.682c-41.25 13.976-86.167 41.52-128.735 110.007-37.028 87.29-60.665 131.779-81.044 246.464-30.624 30.624-61.713 60.58-100.495 75.893-15.535 4.835-31.376 7.99-44.396 6.255-37.39-5.568-46.142-30.801-55.877-54.93-8.62-26.272-25.51-61.778-54.122-75.466-38.42-18.384-77.953 15.424-108.893-27.07-13.577-26.384-12.557-61.825-5.986-88.07 7.554-27.432 18.857-49.695 33.409-80.477 51.922-109.507 58.53-328.176 2.18-444.382-27.84-36.48-30.828-57.538-24.314-73.964 5.568-17.177 12.686-33.408 1.095-59.996-11.59-26.588-52.099-62.465-115.603-85.304"/>
                    <path d="M1725.89-29.762c40.035 7.174 81.944 18.505 124.55 49.334 50.892 34.049 107.446 99.864 104.569 123.723-8.352 24.036-86.668-23.683-84.45 6.33-3.09 22.021 44.638 81.35 75.43 131.23 30.791 49.882 54.623 105.303 46.29 152.846-9.717 55.412-46.736 70.733-79.16 50.697-25.16-15.535-50.68-45.278-80.878-74.872-14.208-13.92-30.745-26.913-52.127-33.762-143.546-45.9-285.737 196.74-517.834 343.006-23.544 3.016-44.917 3.572-64.154 1.93-77.796-26.913-126.007-82.594-139.11-146.432-12.473-60.674-21.92-112.541-59.858-146.22-21.947-11.562-48.86-16.35-78.241-16.462a132.289 132.289 0 0 0-33.678 4.306c-42.587 11.006-88.7 32.713-136.957 95.836-44.09 89.74-74.9 152.808-95.428 264.486-27.349 32.304-59.542 63.838-94.528 79.43-12.993 4.454-25.8 6.81-37.696 5.187-34.959-4.789-44.462-30.282-54.633-54.55-8.992-26.401-25.483-61.675-52.59-73.693-36.463-16.139-73.147 21.13-101.554-20.222-15.489-22.57-15.164-57.732-9.095-84.45 7.258-27.701 18.412-50.725 33.168-81.953 52.507-111.13 51.542-323.647-.204-437.737-25.938-37.01-30.003-58.883-25.057-76.098 4.947-17.215 9.911-34.142-3.34-61.184-13.318-27.2-54.754-62.948-117.73-85.926"/>
                    <path d="M1708.778-37.474c39.478 6.292 80.941 16.705 119.361 45.78 47.487 31.376 103.01 91.976 100.885 114.044-7.275 22.532-87.809-19.572-83.874 8.658-1.466 21.066 50.113 75.476 84.45 122.323 34.337 46.846 62.26 100.068 58.53 147.304-4.408 55.737-38.309 73.23-70.975 55.44-25.446-13.865-52.897-42.076-85.08-69.861-15.165-13.076-32.62-25.112-54.605-30.978-147.611-39.32-286.758 210.188-509.743 350.912-21.743 2.014-42.568 2.311-58.354-2.784-78.687-25.474-123.426-81.99-132.707-144.613-8.732-58.976-18.81-110.341-57.481-146.46-22.356-12.89-49.547-19.488-79.401-21.586a135.667 135.667 0 0 0-34.337 2.033c-43.682 8.12-99.057 35.032-158.775 104.866-44.545 88.097-75.457 147.49-96.746 255.205-24.23 34.922-53.537 66.4-85.647 82.093-11.925 4.64-23.73 7.108-34.856 5.689-32.685-4.158-42.745-29.855-53.139-54.243-9.113-26.653-24.917-61.667-50.53-72.126-34.393-14.087-68.674 26.096-98.166-10.292-13.317-22.884-13.41-57.63-7.666-84.551 7.146-27.84 18.3-51.487 33.158-83.457 52.898-113.785 44.74-317.142-4.046-429.673-23.86-37.12-26.912-59.124-23.98-77.081 2.933-17.958 5.8-35.609-9.067-63.106-14.95-27.618-57.305-63.31-119.714-86.306"/>
                    <path d="M1693.883-45.408c36.36 5.902 77.322 15.35 113.859 42.782 43.3 29.074 95.929 84.793 93.358 105.302-6.32 21.122-85.73-15.776-83.095 11.35.065 20.036 55.07 69.22 92.719 112.68 37.65 43.459 69.5 94.017 70.27 140.483.928 55.533-29.873 74.9-62.762 59.347-25.753-12.185-55.06-38.652-89.248-64.358-16.092-12.064-34.42-23.052-56.962-27.776-151.258-31.72-287.083 226.697-497.363 357.817-21.743 2.394-39.737 1.364-55.152-3.712-76.85-25.419-117.858-81.666-124.187-142.999-5.912-57.156-17.54-109.06-56.962-147.555-22.662-14.19-50.039-22.458-80.2-26.346a139.741 139.741 0 0 0-34.847-.102c-44.489 5.382-111.845 41.046-179.043 112.587-46.4 85.888-76.83 140.41-99.14 243.744-21.54 37.798-48.257 69.25-77.768 84.998-10.96 4.705-21.845 7.34-32.24 6.087-30.55-3.712-40.916-29.538-51.31-54.01-8.955-26.588-23.794-61.389-47.904-70.456-32.388-12.166-64.84 30.477-93.145-3.136-12.918-21.261-13.169-55.45-7.536-82.492 7.22-27.84 18.56-52.062 33.288-85.146 52.545-117.747 36.546-310.59-9.308-420.374-21.641-36.75-23.404-58.688-22.458-77.452.947-18.765 1.81-37.168-14.625-64.962-16.528-27.998-59.755-63.57-121.692-86.584"/>
                    <path d="M1679.155-53.203c34.95 5.42 73.137 14.226 109.45 39.904 37.428 27.293 88.163 78.316 83.996 97.674-6.803 20.009-83.522-12.064-81.443 13.995-.501 19.488 57.537 63.198 98.138 102.936 40.6 39.738 76.237 87.234 81.36 132.447 6.208 54.8-21.494 75.726-54.577 62.418-25.985-10.477-57.194-34.986-93.276-58.363-16.992-10.997-36.192-20.732-59.18-24.184-153.949-21.734-283.75 240.988-482.737 364.712-18.244.78-35.979.213-50.837-4.715-74.046-24.583-110.963-79.382-115.65-139.694-4.333-55.617-18.068-108.876-58.149-149.412-22.987-15.247-50.336-24.917-80.636-30.43a144.316 144.316 0 0 0-35.125-2.013c-45.028 2.858-123.603 46.16-193.863 114.22-52.666 86.919-82.483 136.68-105.99 235.207-19.432 40.508-43.793 72.488-70.928 88.283-10.069 4.788-20.129 7.517-29.817 6.403-28.509-3.267-38.93-29.298-49.083-53.825-8.547-26.653-22.152-61.25-44.777-68.98-30.393-10.384-61.519 34.337-88.45 3.35-12.37-19.702-12.49-53.25-6.765-80.301 7.47-27.84 19.09-52.582 33.51-86.362 51.357-120.234 28.259-303.11-13.994-409.405-20.416-36.787-21.678-58.771-22.616-78.371-.937-19.6-2.05-38.745-20.008-66.882-18.068-28.314-62.121-63.672-123.528-86.594"/>
                    <path d="M1664.279-60.841c34.114 4.872 70.177 13.15 104.736 37.325 34.216 25.66 79.244 72.757 75.69 90.853-7.768 19.22-83.207-7.972-79.745 16.565-.705 18.997 57.082 57.871 100.402 93.619 43.32 35.747 82.38 79.698 91.67 123.26 11.424 53.527-13.215 75.716-46.4 64.664-26.273-8.733-59.255-31.08-97.118-51.877-17.837-9.79-37.761-18.189-61.25-20.24-154.218-6.923-277.83 254.667-462.58 369.009-17.419 1.011-34.81.928-48.916-3.712-70.27-23.2-102.574-75.634-107.214-135.575-4.232-54.697-20.277-109.506-60.97-151.592-23.201-16.12-50.439-26.912-80.739-33.752-11.229-2.543-23.005-3.833-34.967-4.705-46.633 2.561-132.707 49.974-204.313 112.782-59.06 86.102-90.751 133.988-116.003 227.44-17.845 43.152-40.016 76.496-65.026 92.337-9.28 4.854-18.56 7.666-27.58 6.673-26.56-2.951-36.75-29.122-46.402-53.825-7.897-26.737-20.026-61.185-41.185-67.653-28.416-8.696-58.734 37.947-84.097 9.364-11.702-18.236-11.433-51.041-5.41-78.102 7.916-27.841 19.933-53.222 33.687-87.43 48.925-121.727 20.165-293.745-18.681-396.681-18.06-36.193-21.076-59.152-23.841-79.587-2.766-20.435-5.81-40.295-25.242-68.673-19.554-28.574-64.386-63.644-125.283-86.39"/>
                    <path d="M1649.783-68.395c32.732 4.417 67.96 12.064 99.196 35.005 34.003 23.943 70.753 68.06 66.27 85.192-6.932 18.236-79.661-4.64-77.814 19.266.538 18.013 55.904 52.897 101.544 84.394 45.64 31.497 87.865 71.55 101.098 113.023 16.51 51.719-5.123 74.891-38.448 66.122-26.467-6.97-61.175-26.913-100.7-44.917-18.615-8.472-39.236-15.414-63.002-15.97-151.268 13.613-270.713 269.802-439.436 371.829a359.747 359.747 0 0 1-50.373 1.16c-60.182-25.985-89.637-75.17-95.8-135.426-5.568-54.336-24.026-110.23-65.295-153.123-23.377-16.705-50.428-28.24-80.59-36.128a246.398 246.398 0 0 0-34.874-5.995c-50.828 4.148-137.932 50.42-209.89 107.251-63.356 81.499-95.716 124.92-128.438 220.563-16.788 45.584-37.214 80.245-60.321 96.152-8.557 4.946-17.14 7.823-25.512 6.913-24.666-2.663-34.336-28.991-43.273-53.76-7.035-26.847-17.484-61.25-37.186-66.502-26.458-7.062-56.423 41.344-80.079 15.053-10.922-16.834-10.013-48.963-3.517-75.968 8.473-27.943 20.927-54.261 33.678-88.394 45.38-121.468 10.765-284.373-24.722-383.021-15.545-35.172-20.296-59.115-24.825-80.357-4.529-21.243-9.447-41.761-30.31-70.354-21-28.768-66.566-63.458-126.887-85.953"/>
                    <path d="M1637.534-76.33c29.613 4.418 63.3 11.508 91.289 33.465 33.408 22.272 63.328 63.95 57.537 80.431-8.232 17.762-76.274-1.633-75.578 21.697-.399 17.763 53.64 48.591 100.338 75.912 46.697 27.321 91.725 63.106 108.633 102.082 21.42 49.408 2.785 73.267-30.624 66.818-26.625-5.17-62.938-22.542-103.938-37.502-19.322-7.043-40.555-12.426-64.544-11.377-145.458 38.448-261.84 284.958-413.897 373.064-16.407 2.032-32.48 2.784-43.82-1.596-56.322-21.967-83.662-68.395-92.506-129.06-7.888-54.076-28.926-110.388-70.817-153.346-23.516-16.946-50.336-28.936-80.274-37.52a257.117 257.117 0 0 0-34.661-6.941c-53.519 5.484-139.472 49.185-209.797 99.854-67.421 74.984-100.802 113.98-141.83 210.401-18.282 50.985-37.352 86.965-58.762 103.01-7.916 5.03-15.85 7.981-23.59 7.165-22.82-2.413-31.766-28.88-38.754-54.911-6.988-26.031-15.572-60.47-33.827-64.553-24.509-5.476-54.484 44.749-76.31 20.63-10.032-15.526-8.279-47.023-1.17-74.15 9.076-28.332 21.836-56.005 34.021-88.412 39.515-121.97 2.293-272.095-31.552-368.34-14.106-34.522-20.519-59.393-26.755-81.387-6.236-21.994-13.048-43.209-35.32-71.857-22.412-28.87-68.674-63.105-128.43-85.294"/>
                    <path d="M1625.293-84.255c28.601 4.148 58.827 11.136 85.87 31.878 29.761 21.066 55.43 60.553 47.04 76.793-8.574 17.252-70.473.14-72.923 23.73-.817 17.446 51.32 44.702 97.182 68.385 45.863 23.683 93.303 54.93 113.58 91.085 26.115 46.568 10.32 70.864-22.95 66.725-26.708-3.322-64.515-17.892-106.87-29.622-19.943-5.568-41.687-9.28-65.797-6.496-136.038 68.775-247.855 293.931-386.297 372.228-15.117 1.949-27.47 1.002-37.696-3.118-50.986-20.528-77.156-65.036-89.35-125.904-10.737-53.594-34.476-109.646-77.025-151.991-23.665-16.89-50.225-28.992-79.866-37.956a267.214 267.214 0 0 0-34.337-7.517c-54.938 6.988-137.448 46.985-205.389 91.53-69.963 67.096-104.059 101.377-151.787 193.724-22.448 59.774-43.088 99.02-62.966 115.297-7.331 5.142-14.662 8.176-21.79 7.424-21-2.171-28.926-28.87-34.763-55.17s-11.443-59.922-28.769-63.347c-23.2-4.64-53.444 47.821-72.283 24.129-10.134-12.742-7.35-43.84.408-71.365 9.559-29.186 22.532-57.667 32.267-90.436 34.69-116.642-5.818-257.163-35.515-348.499-15.062-35.19-23.07-60.887-30.968-83.586-7.897-22.7-16.407-44.453-39.98-73.11-23.766-28.889-70.612-62.576-129.857-84.394"/>
                    <path d="M1613.052-92.227c27.59 3.889 56.758 10.524 80.228 30.504 26.17 20.148 51.143 57.139 39.904 73.314-11.136 17.4-64.246 1.011-70.473 25.223-3.415 18.078 44.545 42.996 89.628 61.324 44.006 22.272 93.386 48.675 116.698 81.666 30.55 43.245 17.558 67.745-15.544 65.89-26.727-1.449-65.89-12.993-109.349-21.345-20.472-3.917-42.614-5.912-66.279-1.856-124.048 92.542-231.717 300.993-355.765 368.303-11.814.195-23.526-.307-32.667-4.306-45.556-19.962-71.522-63.106-87.4-123.798-13.8-52.795-40.35-107.994-83.699-149.16-23.822-16.557-50.113-28.49-79.42-37.52a279.826 279.826 0 0 0-33.956-7.759c-54.15 8.093-131.964 44.276-194.058 88.95-73.202 52.629-108.411 82.196-161.522 168.028-26.699 61.537-52.173 112.615-71.708 128.55-6.811 5.567-13.577 8.686-20.091 8.036-19.21-1.921-25.938-28.945-29.483-54.753-3.545-25.808-4.975-56.61-23.433-58.957-21.901-6.608-53.556 46.605-70.455 24.843-9.095-11.712-5.28-42.69 2.997-71.077 10.209-28.685 23.275-55.941 31.061-87.837 27.674-113.478-15.46-244.561-41.612-330.941-16.027-35.701-25.558-62.103-35.06-85.434-9.504-23.33-19.749-45.538-44.601-74.111-25.057-28.825-72.488-61.871-131.176-83.253"/>
                    <path d="M1600.812-100.124c26.588 3.62 54.679 9.93 74.39 29.372 25.576 18.903 46.967 54.001 36.452 69.518-13.512 17.576-61.926 2.505-68.098 26.077-6.05 18.755 35.859 42.865 78.437 60.247 42.577 17.382 90.75 39.756 116.735 69.323 34.68 39.46 24.388 63.839-8.445 64.405-26.662.464-66.956-7.935-111.362-12.64-20.9-2.209-43.33-2.404-66.298 2.728-109.97 114.555-210.985 301.505-320.816 358.791-11.136.557-22.273.455-30.346-3.638-40.341-20.416-66.883-62.26-86.612-122.498-16.909-51.672-46.309-105.525-90.473-145.05-23.99-15.99-50.011-27.497-78.965-36.313a290.117 290.117 0 0 0-33.511-7.693c-51.672 8.76-123.612 41.445-183.173 79.902-70.093 45.297-105.812 69.945-163.711 147.63-31.09 57.62-59.394 125.793-82.418 142.562-7.572 4.863-14.588 7.758-20.583 7.155-17.716-1.782-21.558-28.147-22.82-51.385.928-24.36.241-55.207-16.092-58.335-21.939-4.204-57.203 45.733-72.135 25.66-8.046-10.812-3.322-42.086 6.162-68.674 10.394-27.07 22.384-53.676 31.311-84.143 17.846-109.915-26.188-231.318-51.254-314.942-16.974-36.044-27.99-63.059-39.051-86.872-11.062-23.813-22.978-46.447-49.065-74.854-26.328-28.666-74.241-60.999-132.39-81.888"/>
                    <path d="M1588.571-108.003c25.576 3.35 52.61 9.327 71.625 27.906 21.66 18.244 39.144 51.839 29.38 66.706-12.546 16.927-59.485 3.944-64.7 26.504-5.318 18.068 27.914 43.19 66.408 57.537 41.873 15.693 87.16 34.81 114.834 60.887 37.65 35.479 29.956 59.542-2.478 62.484-26.505 2.394-67.746-2.636-112.773-3.591-21.205-.455-43.803 1.234-65.89 7.424-94.323 136.808-185.539 294.015-284.54 345.51-10.542.864-21.01 1.086-29.464-1.243-34.253-23.84-61.918-64.45-85.573-123.881-20.017-50.262-52.238-102.342-97.238-139.853-24.128-15.22-49.927-26.105-78.5-34.476a305.42 305.42 0 0 0-33.03-7.35c-48.006 9.011-113.023 38.708-169.307 71.514-66.28 38.652-101.08 58.882-162.737 127.519-34.133 52.191-67.662 128.846-90.826 156.436-7.758 4.733-14.95 7.424-20.964 6.663-17.78-2.31-17.938-26.69-16.992-49.862.947-23.173 1.43-52.582-14.486-55.858-21.345-4.39-58.373 42.977-71.792 24.129-7.229-10.209-1.04-39.098 8.436-64.321 9.076-27.544 19.358-54.011 23.321-83.634 14.115-105.478-30.597-217.305-54.419-297.43-17.93-36.192-30.383-63.671-42.949-87.883-12.565-24.212-26.123-47.144-53.389-75.281-27.525-28.416-75.893-59.94-133.022-80.385"/>
                    <path d="M1576.33-115.984c24.565 3.09 50.54 8.733 68.869 26.449 18.328 17.715 32.62 49.927 21.734 64.599-11.572 16.287-54.855 4.5-61.25 26.838-4.407 17.308 24.361 42.095 59.348 56.34 34.986 14.246 80.617 29.335 107.13 51.914 38.615 32.638 33.409 56.154 1.476 61.463-26.235 4.352-68.228 2.849-113.627 5.772-21.344 1.383-42.865 4.232-63.736 10.848-77.128 149.504-159.258 283.585-248.635 329.586a36.917 36.917 0 0 1-23.785-6.013c-33.743-21.345-62.892-60.553-90.52-118.787-23.033-48.572-58.01-98.5-103.826-133.718-24.324-14.282-49.853-24.37-78.037-32.1a316.325 316.325 0 0 0-32.481-6.765c-43.803 8.816-101.015 36.109-153.262 64.033-61.5 32.824-95.262 49.269-157.235 108.578-37.353 46.308-75.837 116.866-100.653 164.473-8.046 7.48-15.293 10.626-21.27 10.208-16.9-2.728-15.396-25.947-13.818-48.396 1.578-22.449 2.59-50.29-13.79-52.192-19.591-5.494-55.756 40.638-68.35 22.625-6.792-9.716-.779-37.64 7.202-63.847 7.805-25.985 15.962-52.675 21.475-79.54 6.143-99.642-37.715-202.31-68.21-281.19-14.291-36.973-28.137-64.72-42.16-89.211-14.115-24.64-29.167-47.617-57.537-75.393-28.694-28.081-77.443-58.706-127.992-79.92"/>
                    <path d="M1564.08-123.91c23.563 2.785 48.48 8.13 66.113 24.983 17.632 16.853 28.119 47.923 16.593 62.177-13.512 16.705-50.707 4.863-58.892 27.33-5.476 17.327 23.08 40.045 49.797 54.995 32.74 13.503 73.091 26.913 100.765 46.197 36.127 30.077 33.26 52.841 1.986 60.507-25.855 6.329-68.34 8.491-110.574 12.472-19.97 2.951-40.47 6.728-60.321 13.716-61.871 159.072-136.076 273.47-214.716 310.376-7.137-1.8-14.162-4.12-20.797-8.157-33.102-20.156-63.95-57.815-95.53-114.555-25.938-46.605-63.57-94.073-110.165-126.767-24.472-13.206-49.76-22.384-77.546-29.298a323.88 323.88 0 0 0-31.98-5.995c-39.82 7.963-88.644 33.483-136.112 57.361-55.839 28.1-88.394 41.362-148.186 91.976-38.494 40.044-81.499 103.01-108.532 151.397-9.438 16.927-17.03 27.84-22.968 30.003-16-1.03-13.995-23.497-12.232-45.027 1.764-21.53 1.856-49.399-12.77-51.923-19.571-3.397-54.214 40.313-66.38 22.81-6.58-9.465-1.337-35.988 5.224-61.313 5.921-25.586 12.733-49.974 13.92-76.358C534.87 229.11 491.904 134.98 459.2 56.87a599.176 599.176 0 0 0-46.048-89.387c-15.544-24.806-32.11-47.849-61.555-75.17-29.78-27.599-78.882-57.286-119.715-79.81"/>
                    <path d="M1551.84-131.844c22.551 2.562 46.401 7.536 63.347 23.535 16.945 15.999 23.312 46.206 12.63 59.838-12.519 15.981-47.97 5.392-55.3 26.857-6.395 17.326 18.82 39.534 44.544 53.24 26.115 14.302 61.927 26.57 86.715 44.796 36.016 26.477 31.246 49.835 1.41 59.496-24.824 8.046-64.135 11.813-105.608 19.247-19.535 3.498-39.905 8.76-58.781 16.63-43.821 157.67-110.75 257.377-178.95 283.51a74.715 74.715 0 0 1-20.166-7.638c-32.796-18.969-65.453-54.855-100.969-109.757-28.703-44.378-68.822-89.09-116.132-119.083-24.602-12.064-49.649-20.203-77.026-26.189-10.143-2.218-20.667-3.712-31.422-5.058-36.926 6.357-77.082 30.55-119.084 51.413-49.324 24.49-80.552 35.255-136.558 78.195-37.399 34.132-82.306 88.626-113.042 131.11-10.078 15.665-18.44 28.769-24.23 34.857-17.15 18.003-15.554-3.712-14.589-23.145 1.791-20.871 1.383-47.283-13.048-50.382-19.377-4.158-51.217 38.123-63.16 21.613-6.497-8.927-2.785-34.968 2.421-58.465 4.093-24.843 8.724-49.445 9.132-73.564 1.457-85.814-42.689-174.95-77.573-251.8a575.938 575.938 0 0 0-49.844-89.043c-16.927-24.834-34.94-47.83-65.398-74.576-30.81-27.06-80.125-55.68-110.805-79.41"/>
                    <path d="M1539.6-139.77c21.539 2.293 44.331 6.933 60.59 22.07 16.259 15.135 21.938 43.904 9.354 57.685-12.5 15.433-42.902 4.798-52.646 26.495-5.67 16.528 14.273 39.44 39.079 52.22 24.806 12.778 53.658 25.696 73.582 43.05 34.393 24.788 31.609 47.394 2.72 58.892-24.203 9.633-63.486 16.352-104.133 25.79-17.976 4.482-35.683 10.385-44.889 25.79-36.341 140.474-96.031 228.636-156.965 247.818a77.499 77.499 0 0 1-19.73-7.127c-32.75-17.735-67.263-51.635-106.638-104.356-31.321-41.928-73.75-83.642-121.692-110.796-24.703-10.774-49.5-17.855-76.431-22.81-9.986-1.857-20.287-3.035-30.83-4.01-35.487 4.64-67.661 27.024-103.612 45.826-42.253 22.096-71.95 31.06-122.777 67.569-35.182 28.982-78.4 75.383-110.815 111.9-10.95 13.568-20.157 25.057-26.69 32.481-19.359 22.152-17.744 3.972-17.855-10.459.464-14.848-2.237-32.397-17.27-34.865-18.357-5.494-47.395 34.43-59.598 18.56-6.607-8.593-4.64-33.891-1.578-57.704 2.951-22.505 6.543-44.916 7.183-68.507-3.109-79.81-48.405-163.87-85.378-238.993a561.693 561.693 0 0 0-53.528-88.161C400.808-76.126 381.394-98.964 350-125.06c-31.775-26.411-80.923-54.001-101.237-78.733"/>
                    <path d="M1527.36-147.704c20.527 2.023 42.261 6.339 57.824 20.612 15.563 14.273 21.15 41.482 9.466 54.567-13.698 15.35-40.054 4.76-50.308 25.985-8.26 17.159 11.136 38.55 32.889 51.236 21.753 12.686 48.461 24.648 62.242 42.883 29.455 24.528 25.53 47.636-2.32 60.906-23.497 11.202-60.099 19.145-97.35 29.41-17.093 5.4-26.847 17.994-31.784 35.765-31.98 122.796-85.313 198.494-140.26 209.89a82.529 82.529 0 0 1-19.49-6.57c-32.897-16.426-69.257-48.118-112.41-98.37-33.743-39.255-78.288-77.75-126.749-101.962-24.76-9.465-49.306-15.405-75.773-19.265-9.818-1.439-19.906-2.265-30.216-2.868-36.09 2.626-61.778 22.774-91.215 40.304-34.485 20.584-62.512 28.481-106.806 59.913-31.887 24.528-71.615 63.69-103.01 94.658-10.83 11.554-20.296 21.344-27.395 27.896-21.085 19.424-20.12 4.91-21.53-6.338-1.41-11.248-7.99-20.417-24.129-15.916-18.495-3.805-45.612 31.86-58.344 16.268-6.914-8.454-6.2-31.645-4.186-53.36 1.235-22.032 4.316-41.762 2.636-63.542-5.967-77.601-52.266-156.418-91.252-229.379a553.47 553.47 0 0 0-57.064-86.779c-19.489-24.472-40.267-47.023-72.525-72.385-32.768-25.679-76.7-52.74-91.085-77.796"/>
                    <path d="M1515.118-155.638c19.489 1.763 40.193 5.744 55.06 19.154 14.867 13.41 20.36 39.06 9.586 51.459-12.649 14.533-37.223 4.714-46.66 24.852-7.685 16.343 6.496 38.532 24.963 51.255 18.347 13.057 44.36 23.497 57.083 40.721 21.632 26.384 16.342 50.215-10.079 64.627-22.458 12.241-57.416 21.438-90.946 30.848-11.21 9.55-17.335 22.746-21.103 39.905-28.527 111.52-75.967 172.89-127.203 176.982-6.051.483-12.417-1.206-19.071-4.213-33.186-14.997-71.328-44.285-118.146-91.679-35.961-36.397-82.4-71.458-131.269-92.681-24.787-8.093-49.055-12.872-75.04-15.591-9.641-1.002-19.488-1.439-29.566-1.661-38.049 1.262-60.09 18.56-83.011 35.079-26.913 19.34-52.897 26.829-89.591 54.465-27.655 21.048-62.233 54.067-91.494 80.116-10.282 9.726-19.488 18.032-26.634 23.711-21.344 16.88-22.773 5.893-26.81-2.19-4.037-8.083-13.92-13.772-31.664-3.573-17.53-2.422-42.272 30.68-55.96 16.138-6.886-8.88-7.322-30.188-6.041-49.547.538-19.878 2.041-39.561-.928-60.803-10.598-75.634-57.751-149.217-98.612-219.588a549.86 549.86 0 0 0-60.442-84.886c-20.713-24.082-42.735-46.234-75.79-70.734-33.521-24.843-66.382-51.969-80.07-76.654"/>
                    <path d="M1502.906-163.564c18.504 1.495 38.123 5.142 52.294 17.698 14.17 12.556 19.572 36.629 9.697 48.331-11.581 13.725-34.336 4.64-43.004 23.767-7.025 15.479 4.232 37.492 20.519 50.113 16.286 12.62 36.424 24.295 48.47 40.387 19.488 26.087 10.143 52.127-15.043 67.365-21.558 13.039-52.897 21.344-81.889 30.625-7.971 10.143-12.936 23.952-16.565 39.06-25.056 98.37-67.318 148.01-116.772 152.242-5.847.491-12.167-1.012-18.895-3.712-33.557-13.466-73.388-40.156-123.751-84.404-37.956-33.353-86.046-64.878-135.213-83.011a363.542 363.542 0 0 0-74.241-11.832 244.31 244.31 0 0 0-29.01.009c-36.973 2.144-62.493 14.737-79.661 30.04-20.13 17.957-43.868 25.632-72.052 50.4-22.643 18.403-50.679 46.402-76.71 68.396a303.935 303.935 0 0 1-24.973 20.165c-21.122 14.71-25.641 6.942-32.787 1.773-7.146-5.17-20.676-7.6-37.306 1.058-16.538-1.28-37.548 32.379-51.041 18.56-7.35-7.517-9.113-27.84-9.336-46.93-.928-19.488-.928-38.92-5.179-59.458-14.978-73.081-62.79-141.402-105.367-208.804a549.304 549.304 0 0 0-63.606-82.464 466.246 466.246 0 0 0-78.882-68.766c-34.281-23.915-55.236-50.976-68.45-75.281"/>
                    <path d="M1490.628-171.498c17.502 1.234 36.054 4.547 49.547 16.24 13.493 11.693 18.774 34.207 9.8 45.213-10.524 12.918-31.553 4.64-39.357 22.672-6.367 14.625 4.306 35.376 16.5 48.749 13.642 12.741 32.87 23.46 40.666 40.267 18.56 25.38 8.519 51.82-15.777 67.494-20.927 13.53-50.391 21.623-76.821 33.678-6.765 10.95-10.607 25.196-14.18 38.179-22.523 84.737-61.11 122.127-109.21 126.61-5.68.529-11.99-.761-18.801-3.137-33.966-11.814-75.374-35.72-129.116-76.525-39.719-30.16-89.21-57.992-138.544-73.025a369.175 369.175 0 0 0-73.313-8.028c-9.45-.14-18.9.26-28.305 1.197-35.905 3.545-68.08 12.993-83.781 25.391-13.438 17.437-34.44 25.734-53.556 48.108-17.039 16.334-37.502 40.295-59.394 59.05a203.83 203.83 0 0 1-22.513 17.317c-20.352 12.992-28.426 8.157-38.912 5.708-10.487-2.45-26.69-3.527-39.302-1.67-15.553-.27-32.982 33.334-46.521 20.99-7.415-6.718-10.515-26.271-12.204-44.832-2.32-18.894-3.833-37.9-9.197-57.537C579.267 110.5 531.01 47.412 486.92-16.667a551.244 551.244 0 0 0-66.539-79.587 530.985 530.985 0 0 0-80.561-66.502c-33.836-22.94-44.49-49.825-57.23-73.713"/>
                    <path d="M1478.387-179.46c16.491.928 33.985 3.944 46.782 14.774 12.797 10.83 17.985 31.784 9.92 42.104-9.475 12.064-28.694 4.594-35.71 21.567-5.716 13.772 4.371 33.26 15.832 45.928 11.461 12.667 25.576 24.527 33.26 40.146 12.89 27.237 3.926 53.11-19.488 69.119-20.351 13.92-49.482 22.829-72.98 36.285-5.465 9.55-8.927 20.76-12.407 31.757-20.927 71.05-57.055 102.082-104.142 107-5.568.585-11.879-.491-18.774-2.505-34.393-10.05-77.22-30.996-134.164-68.06-41.241-26.848-91.874-50.884-141.254-62.81a376.275 376.275 0 0 0-72.255-4.175 253.136 253.136 0 0 0-27.544 2.44c-34.773 4.965-72.46 13.763-93.238 24.444-10.292 15.294-28.008 24.324-37.845 44.174-11.043 14.505-23.302 34.94-40.387 51.162a131.51 131.51 0 0 1-19.386 15.136c-19.062 11.814-30.783 9.688-44.545 9.809-13.763.12-25.159-11.823-36.026-11.387-14.589.585-28.639 33.576-42.114 22.625-7.359-5.967-11.758-24.61-14.755-42.457-3.62-18.133-6.496-36.508-12.937-55.217-22.848-66.576-71.3-124.475-116.661-184.917a554.956 554.956 0 0 0-69.212-76.237c-23.887-22.077-49.259-42.336-77.86-64.033-29.066-22.096-37.196-48.257-49.445-71.764"/>
                    <path d="M1466.147-187.358c15.48.696 31.914 3.35 44.016 13.317 12.101 9.967 17.196 29.363 10.032 38.977-8.408 11.303-25.855 4.557-32.054 20.481-5.058 12.91 4.436 31.145 15.164 43.098 10.728 11.952 23.571 23.33 26.56 39.904 11.758 26.913-.928 54.754-23.628 71.087-19.943 14.319-46.243 21.836-68.181 32.75-5.912 8.482-9.893 18.56-13.327 27.552-20.87 56.85-54.957 86.037-101.33 91.531-5.475.65-11.804-.167-18.792-1.856-34.801-8.176-78.882-25.985-138.832-59.05-42.503-23.414-94.036-43.617-143.305-52.405a382.724 382.724 0 0 0-71.114-.409c-8.97.75-17.894 1.971-26.736 3.657-33.613 6.385-69.602 16.463-104.17 26.857-12.835 13.78-29.038 23.432-29.623 40.053-4.89 12.491-8.714 29.4-20.574 43.478a80.07 80.07 0 0 1-15.711 13.447c-17.262 11.052-32.37 11.656-48.016 12.834-8.974-8.983-17.076-27.534-27.237-26.578-13.642 1.383-24.593 33.241-37.938 23.58-7.294-5.27-12.834-22.838-17.066-39.82-4.817-17.225-9.011-34.792-16.37-52.406-26.17-62.66-74.632-115.436-120.996-171.953a560.245 560.245 0 0 0-71.578-72.46c-24.769-21.149-51.097-40.554-84.06-62.13-11.73-20.537-19.952-45.863-31.775-68.952"/>
                    <path d="M1453.906-195.237c14.468.427 29.845 2.784 41.26 11.851s16.398 26.913 10.134 35.877c-7.35 10.487-23.006 4.51-28.407 19.377-4.398 12.065 4.52 29.029 14.505 40.276 9.986 11.248 21.892 21.994 24.686 37.567 5.623 29.093-6.339 56.349-28.398 72.599-19.488 14.365-45.473 22.142-68.265 31.552-6.617 7.257-11.776 13.753-15.22 21.233-22.272 45.557-54.697 73.072-100.569 79.374-5.42.742-11.776.195-18.839-1.049-35.162-6.208-80.273-20.788-143.054-49.519-43.505-19.925-95.65-36.193-144.687-41.91a389.378 389.378 0 0 0-69.88 3.36 263.186 263.186 0 0 0-25.91 4.826c-32.407 7.777-65.602 18.356-96.784 25.984-22.068 7.638-34.188 10.84-42.818 37.474-3.054 14.254-1.012 29.53-7.425 41.454a44.545 44.545 0 0 1-11.702 12.018c-14.987 10.589-28.769 8.5-35.85-3.99-6.44-13.252-15.358-30.244-24.833-28.871-12.733 1.856-20.9 32.09-34.058 23.655-7.211-4.64-13.754-20.982-19.1-36.963-5.883-16.166-11.247-32.759-19.423-49.185-29.102-58.382-77.294-106.128-124.4-158.487-24.398-27.135-48.406-48.48-73.602-68.293-25.557-20.092-52.74-38.54-76.663-58.808-6.96-19.962-15.378-44.425-26.681-67.068"/>
                    <path d="M1441.656-203.218c13.457.167 27.776 2.153 38.495 10.403 10.718 8.25 15.609 24.51 10.208 32.75-6.301 9.68-20.175 4.482-24.76 18.291-3.712 11.202 4.585 26.913 13.846 37.446 9.262 10.533 20.203 20.658 22.802 35.172 5.132 28.583-11.062 57.75-32.898 74.13-19.489 14.626-42.912 20.806-65.946 26.365-8.788 3.916-15.776 8.77-21.121 14.487-25.382 39.552-56.61 65.61-102.175 72.933-5.383.863-11.767.612-18.885-.223-35.46-4.13-81.415-15.34-146.776-39.515-44.23-16.37-96.737-28.769-145.411-31.377a407.14 407.14 0 0 0-68.265 6.951c-8.269 1.54-15.907 3.165-23.554 5.114-28.434 7.229-55.04 14.848-74.584 13.966-21.605-2.004-37.168-4.844-47.96 16.046-5.225 18.56-10.144 45.102-17.02 60.72-2.571 5.225-5.271 9.011-8.12 10.505-8.529 4.473-15.313-7.535-22.486-19.488-7.174-11.953-16.705-27.117-25.512-25.428-11.86 2.274-17.632 30.495-30.56 23.2-7.09-4.027-14.486-19.07-20.806-33.91-6.746-14.996-13.14-30.503-22.012-45.593-31.553-53.825-79.216-96.653-126.684-144.66-24.927-25.214-49.408-45.11-75.244-63.754-26.244-18.923-51.718-36.119-62.957-55.218-7.424-19.32-16.027-42.93-26.847-65.156"/>
                    <path d="M1429.416-211.152c12.454-.093 25.706 1.559 35.738 8.946s14.848 22.087 10.366 29.631c-5.234 8.872-17.326 4.446-21.113 17.197-3.08 10.347 4.64 24.796 13.188 34.624 8.547 9.828 18.56 19.312 20.936 32.778 4.992 27.896-10.858 56.33-32.203 72.265-19.228 14.356-42.327 20.332-65.035 25.715-10.71 2.533-21.345 5.048-28.843 9.169-33.696 32.211-64.033 57.073-109.386 65.61-5.364 1.012-11.767 1.087-18.931.688-35.683-1.986-82.25-9.726-149.94-29.103-44.703-12.788-97.266-21.27-145.356-20.89a465.485 465.485 0 0 0-59.393 6.18c-6.84 1.226-12.993 2.256-18.329 2.868-19.869 2.265-38.976 4.742-56.85 3.471-20.825-1.475-38.82-7.767-55.44 1.67-6.533 13.828-9.874 38.393-15.155 53.918-2.004 5.207-4.24 9.058-6.774 10.793-7.61 5.216-14.941-5.02-22.616-15.368-7.675-10.347-17.632-23.785-25.855-21.864-11.043 2.57-14.848 28.407-27.506 22.078-6.96-3.527-15.053-17.16-22.208-30.746-7.581-13.697-14.848-27.914-24.267-41.677-33.511-48.971-80.385-87.03-127.89-130.535-25.298-23.2-50.114-41.52-75.838-58.809-26.133-17.567-41.037-33.13-48.842-51.44-7.962-18.68-16.704-41.427-27.015-63.235"/>
                    <path d="M1417.175-219.078c11.443-.362 23.637.928 32.973 7.48 9.336 6.552 14.04 19.656 10.477 26.523-4.176 8.055-14.486 4.399-17.456 16.101-2.431 9.485 4.724 22.672 12.52 31.785 7.794 9.113 16.843 17.985 19.06 30.402 4.854 27.2-10.653 54.901-31.496 70.39-18.96 14.087-41.761 19.85-64.117 25.057-10.561 2.459-21.15 4.835-31.73 7.192-45.611 24.908-79.744 47.078-124.994 57.073a93.59 93.59 0 0 1-18.95 1.633c-35.813.241-82.752-3.962-152.52-18.291-44.889-9.215-95.048-14.654-135.937-14.616-16.89-.53-29.576-1.634-42.113-1.856-4.64-.093-9.28 0-14.013.222-17.465.798-35.785 3.165-52.99 2.348-20.036-.928-37.566-5.995-58.419-3.786-11.48 5.494-16.797 23.757-21.456 37.677-1.642 4.9-3.424 8.798-5.633 10.756-6.654 5.902-14.282-2.44-22.272-11.136-7.99-8.696-18.199-20.277-25.864-18.217-10.273 2.738-12.566 25.882-24.973 20.453-6.812-2.978-15.424-15.145-23.2-27.376-8.195-12.324-16.176-25.187-25.985-37.53-34.94-43.904-80.738-77.331-127.956-116.252-25.483-21.02-50.54-37.733-75.28-54.169-17.744-14.7-26.06-29.195-34.337-46.855-8.454-18.041-17.317-39.905-27.182-61.315"/>
                    <path d="M1404.935-227.012c10.43-.622 21.567.362 30.216 6.023 8.65 5.66 13.243 17.233 10.589 23.404-3.118 7.248-11.647 4.362-13.81 15.006-1.781 8.631 4.799 20.556 11.86 28.964 7.063 8.408 15.155 16.64 17.179 28.007 4.723 26.505-10.45 53.482-30.792 68.525-18.69 13.819-41.167 19.368-63.208 24.407-10.403 2.385-20.834 4.64-31.246 6.98-60.414 18.188-101.349 37.825-147.286 49.286a113.924 113.924 0 0 1-19.043 2.626c-35.812 2.525-82.872 1.912-152.418-7.804-43.542-6.088-84.45-12.064-110.573-18.143a138.126 138.126 0 0 0-34.625-5.92c-4.473-.205-8.955-.196-13.456-.066-16.77.483-34.281 2.729-50.837 2.367-19.247-.427-36.313-4.213-56.294-1.773-13.92 1.726-27.274 7.758-33.91 17.29-2.338 3.359-4.407 6.32-6.82 7.869-6.2 5.763-13.92-.613-21.948-7.573-8.027-6.96-18.328-16.704-25.483-14.542-9.605 2.85-10.895 23.07-22.969 18.477-6.663-2.533-15.61-13.187-24.054-24.008-8.445-10.82-16.974-22.272-27.043-33.158-35.803-38.708-80.32-67.68-126.832-101.961-25.483-18.774-48.443-33.335-64.748-47.255a265.544 265.544 0 0 1-28.249-44.155c-8.955-17.391-17.957-38.42-27.34-59.394"/>
                    <path d="M1392.694-234.937c9.42-.928 19.489-.242 27.451 4.565 7.962 4.808 12.454 14.793 10.7 20.287-2.06 6.422-8.798 4.315-10.162 13.92-1.113 7.777 4.872 18.44 11.201 26.142 6.33 7.703 13.485 15.285 15.34 25.605 4.585 25.808-10.208 52.052-30.086 66.64-18.421 13.55-40.591 18.895-62.298 23.767a3448.892 3448.892 0 0 1-30.773 6.765c-68.673 14.914-120.754 32.008-171.489 44.545a193.279 193.279 0 0 1-20.091 3.545c-36.035 4.845-82.965 7.851-148.27-.658C949.435-4 926.374-16.574 903.786-24.25a129.43 129.43 0 0 0-33.093-6.775 153.168 153.168 0 0 0-12.9-.352c-16.064.167-32.778 2.301-48.675 2.385-18.458.102-35.06-2.432-54.168.25-13.28 1.856-26.968 6.413-40.22 7.322-4.64.316-9.188.204-11.972 1.16-8.408 2.868-16.76-2.589-25.158-8.352-8.4-5.763-18.793-13.92-26.087-12.37-9.79 2.078-10.607 19.21-22.375 15.358-6.496-2.134-15.618-11.238-24.332-20.583-8.714-9.345-17.633-19.284-27.748-28.676-36.11-33.409-79.058-58.14-121.784-88.06C433-177.79 418.904-189.39 408-201.752a243.559 243.559 0 0 1-30.198-42.438c-9.466-16.704-18.616-36.916-27.516-57.472"/>
                </g>
            </g>
            <path fill="url(#ypvz5e32ic)" fill-rule="nonzero" opacity=".35" style="mix-blend-mode:multiply" d="M384.117 432.587h2156.782v320.427H384.117z" transform="translate(-463.484 -350.968)"/>
            <path fill="url(#79qq1gq0od)" fill-rule="nonzero" opacity=".35" style="mix-blend-mode:multiply" transform="rotate(180 1230.766 1474.788)" d="M384.117 1416.258h2156.782v468.028H384.117z"/>
        </g>
    </g>
</svg>
