<svg width="288" height="58" viewBox="0 0 288 58" xmlns="http://www.w3.org/2000/svg">
    <path d="m13.03 28.88-6.484 6.486L0 28.88l6.544-6.544 6.486 6.544zm15.85-15.85 11.167 11.167 6.546-6.542L28.88 0 11.167 17.713l6.546 6.541L28.88 13.03zm22.336 9.306L44.73 28.88l6.544 6.544 6.541-6.544-6.599-6.544zM28.88 44.73 17.713 33.506l-6.546 6.543L28.88 57.76l17.713-17.713-6.546-6.541L28.88 44.73zm0-9.362 6.544-6.546-6.544-6.483-6.544 6.541 6.544 6.486v.002zm68.816.674v-.11c0-4.231-2.257-6.376-5.923-7.786 2.255-1.24 4.174-3.273 4.174-6.825v-.111c0-4.965-4.005-8.18-10.436-8.18H70.79v31.645h15.06c7.163.055 11.846-2.878 11.846-8.63v-.003zm-8.688-13.535c0 2.368-1.918 3.326-5.02 3.326H77.56v-6.712h6.88c2.934 0 4.568 1.184 4.568 3.273v.113zm1.75 12.635c0 2.368-1.86 3.442-4.91 3.442H77.56v-6.941h8.064c3.555 0 5.134 1.3 5.134 3.441v.058zm21.547 9.588v-31.7h-6.994v31.645h6.994v.055zm37.455 0v-31.7h-6.883v19.518L128.042 13.03h-6.43v31.645h6.882V24.594l15.343 20.136h5.923zm38.579 0-13.59-31.869h-6.43l-13.594 31.87h7.164l2.876-7.108h13.37l2.875 7.107h7.333-.004zm-12.69-13.256h-8.405l4.231-10.264 4.173 10.264zm45.916 13.256v-31.7h-6.883v19.518L199.847 13.03h-6.43v31.645h6.883V24.594l15.342 20.136h5.923zm35.93-5.133-4.456-4.455c-2.483 2.255-4.683 3.72-8.348 3.72-5.415 0-9.194-4.512-9.194-9.927v-.168c0-5.415 3.834-9.87 9.194-9.87 3.157 0 5.64 1.353 8.122 3.552l4.455-5.133c-2.931-2.876-6.486-4.907-12.464-4.907-9.702 0-16.527 7.388-16.527 16.358v.113c0 9.08 6.936 16.3 16.245 16.3 6.091.058 9.701-2.086 12.972-5.583zm29.726 5.133v-6.204h-17.205v-6.657h14.948v-6.204h-14.948v-6.43h16.979V13.03h-23.86v31.645h24.086v.055z" fill="#000" fill-rule="nonzero"/>
</svg>
