<svg width="295" height="60" viewBox="0 0 295 60" xmlns="http://www.w3.org/2000/svg">
    <g fill="none" fill-rule="evenodd">
        <path d="M.85 0h294v60H.85z"/>
        <g fill="#A2A2A2">
            <path d="m36.383 39.356-7.808 3.443v-.345a23.555 23.555 0 0 1-4.751.69c-7.343-.073-13.174-3.972-13.24-8.605v-1.724c2.413 3.556 7.322 5.94 13.24 5.852 2 .087 4.05-.235 5.77-.686l.68-1.722c-2.043.617-4.27 1.047-6.45 1.031-7.343.018-13.174-3.88-13.24-8.603v-1.375c2.413 3.285 7.311 5.67 13.24 5.505 2.666.165 5.273-.404 7.467-1.375l.34-1.722c-2.142 1.148-4.919 1.813-7.81 1.722-7.338.087-13.167-3.808-13.235-8.609v-1.377c2.412 3.364 7.322 5.746 13.24 5.854 3.361-.108 6.55-1.007 9.163-2.41l.34-2.067c-2.371 1.782-5.834 2.931-9.504 3.1-7.344-.169-13.175-4.066-13.24-8.952.067-4.644 5.896-8.54 13.239-8.605 4.375.064 8.441 1.62 10.862 4.132l.235.396 1.711.01-.249-.406C33.975 9.19 29.161 7 23.823 7 15.7 7 9.228 11.54 9.228 16.98v17.901c.285 5.311 6.61 9.637 14.597 9.637 5.273 0 10.014-2.102 12.557-5.162l.002-.001z"/>
            <path d="M284.765 35.46h-3.646V27.87h-7.115v7.588h-3.648V17.756h3.648v7.173h7.115v-7.173h3.646v17.703zm-28.602-9.193h3.259c.964 0 1.7-.228 2.206-.681.506-.454.76-1.103.76-1.946 0-.866-.255-1.567-.764-2.103-.512-.533-1.217-.81-2.117-.827h-3.344v5.557zm0 2.955v6.237h-3.646V17.756h6.905c1.33 0 2.499.244 3.508.73a5.37 5.37 0 0 1 2.33 2.073c.542.895.813 1.914.813 3.058 0 1.734-.593 3.102-1.781 4.103-1.188 1.002-2.833 1.502-4.93 1.502h-3.199zm-17.598-.363h4.427l-2.225-6.628-2.202 6.626v.002zm5.41 2.952h-6.394l-1.217 3.648h-3.879l6.59-17.703h3.382l6.625 17.703h-3.877l-1.23-3.646v-.002zm-24.017-5.786h2.943c.915 0 1.626-.235 2.128-.7.503-.467.754-1.109.754-1.927 0-.836-.237-1.492-.713-1.97-.472-.48-1.2-.718-2.181-.718h-2.931V26.025zm2.906 2.953h-2.906v6.481h-3.647V17.756h6.578c2.092 0 3.705.466 4.838 1.398 1.137.932 1.704 2.25 1.704 3.952 0 1.208-.262 2.215-.784 3.02-.523.808-1.317 1.45-2.379 1.929l3.832 7.234v.17h-3.917l-3.32-6.481zm-11.286 4.244c-.66.786-1.585 1.396-2.785 1.83-1.2.434-2.53.651-3.988.651-1.532 0-2.877-.334-4.03-1.003-1.157-.669-2.046-1.64-2.678-2.912-.626-1.273-.948-2.77-.966-4.488v-1.204c0-1.766.297-3.296.893-4.589.596-1.293 1.457-2.282 2.581-2.967 1.119-.684 2.437-1.028 3.943-1.028 2.101 0 3.743.502 4.926 1.501 1.183 1.002 1.883 2.459 2.104 4.373h-3.552c-.162-1.014-.521-1.756-1.074-2.226-.559-.47-1.32-.706-2.293-.706-1.24 0-2.186.466-2.834 1.4-.647.932-.976 2.318-.985 4.157v1.131c0 1.857.354 3.259 1.058 4.207.706.95 1.74 1.423 3.099 1.423 1.371 0 2.35-.292 2.933-.875v-3.053h-3.32V26.16h6.968v7.063zm-19.143-5.434h-7.006v4.742h8.221v2.93h-11.866V17.755h11.843v2.954h-8.198v4.22h7.006v2.858zm-22.267 4.742h7.746v2.93h-11.396V17.755h3.648V32.53h.002zm-8.782-4.742h-7.004v4.742h8.219v2.93h-11.868V17.755h11.845v2.954h-8.196v4.22h7.004v2.858zm-14.509-7.078h-5.425v14.75h-3.646V20.71h-5.349v-2.954h14.422v2.954h-.002zM128.94 35.46h-3.65l-7.1-11.65v11.65h-3.649V17.755h3.646l7.115 11.672V17.756h3.636v17.703h.002zm-19.555 0h-3.649V17.755h3.647v17.703h.002zm-12.005-9.253c0-1.857-.333-3.268-.998-4.234-.665-.962-1.613-1.446-2.846-1.446-1.224 0-2.168.477-2.832 1.43-.665.952-1 2.348-1.01 4.19v.862c0 1.807.333 3.21.996 4.206.667.997 1.622 1.496 2.871 1.496 1.224 0 2.165-.48 2.821-1.44.658-.96.99-2.36.996-4.202v-.862h.002zm3.696.802c0 1.743-.308 3.27-.925 4.584-.615 1.312-1.497 2.326-2.645 3.041-1.145.712-2.461 1.067-3.945 1.067-1.467 0-2.775-.352-3.927-1.056-1.151-.705-2.042-1.713-2.675-3.022-.632-1.31-.952-2.814-.961-4.518v-.874c0-1.743.315-3.278.943-4.603.628-1.325 1.515-2.342 2.662-3.052 1.148-.708 2.459-1.064 3.933-1.064 1.477 0 2.787.356 3.935 1.064 1.147.711 2.035 1.727 2.662 3.052.628 1.325.943 2.855.943 4.59v.79zm-18.717 2.554c-.137 1.903-.842 3.404-2.11 4.498-1.268 1.094-2.94 1.642-5.016 1.642-2.27 0-4.055-.765-5.354-2.293-1.304-1.526-1.953-3.625-1.953-6.29v-1.084c0-1.702.3-3.202.9-4.5.6-1.295 1.457-2.291 2.572-2.983 1.114-.694 2.409-1.04 3.885-1.04 2.042 0 3.687.547 4.936 1.641 1.249 1.094 1.97 2.63 2.165 4.607h-3.647c-.09-1.142-.409-1.971-.955-2.485-.548-.516-1.38-.772-2.499-.772-1.217 0-2.126.436-2.73 1.307-.605.872-.915 2.224-.93 4.056v1.336c0 1.914.29 3.312.87 4.196.58.884 1.493 1.325 2.74 1.325 1.128 0 1.97-.258 2.524-.772.555-.516.872-1.311.954-2.389h3.648zm-44.354 7.661-1.37 6.948 11.304-17.37-9.25 4.17 4.111-9.73h9.25l1.712-7.293h-26.72l-1.712 7.293h9.249l-4.454 19.456 7.88-3.474zm-4.798 14.244 2.741-11.81-7.88 3.473 4.8-20.498h-9.25l2.398-10.075h29.46l-2.398 10.075h-9.593l-2.055 5.559 10.62-4.517-18.843 27.793z"/>
        </g>
    </g>
</svg>
