<svg width="101" height="120" viewBox="0 0 101 120" xmlns="http://www.w3.org/2000/svg">
    <g fill="#000" fill-rule="evenodd">
        <path d="M43.434 17.984c-1.195-4.958-3.383-7.139-7.235-7.535-5.463-.561-8.472.942-10.541 4.976-1.549 3.021-.895 6.2-.929 9.312-.048 4.374 2.262 7.437 6.348 8.889 5.511 1.957 11.106-1.178 12.275-7.083h-4.691c-.33.729-.545 1.504-.992 2.11-.454.615-1.135 1.063-1.6 1.479-4.747.164-5.458-.357-6.24-4.693-.232-1.285-.429-2.633-.297-3.916.26-2.546-.078-5.372 2.642-7.228h4.188l2.829 3.689h4.243zm29.095 21.229v22.535h15.308L87.5 58.47h-9.736v-6.017l8.267-.377v-3.708h-8.16v-5.709h9.792v-3.446H72.529zm-6.474-17.082c-.154-2.7-.154-4.54-1.112-6.609-1.783-3.85-4.954-5.462-9.246-5.117-3.891.312-6.635 1.949-8.127 5.675-1.275 3.181-1.106 6.433-.672 9.675.966 7.213 7.895 9.253 12.455 7.887 4.434-1.328 6.56-6.018 6.702-11.65v.139zM76 82.657h3.824l3.965 7.679h5.432l-4.496-8.88c.504-.455.673-.665.889-.794 2.94-1.747 3.488-4.555 2.952-7.542-.52-2.896-2.711-4.266-5.474-4.98-3.888-1.005-7.729-.38-11.65-.504V90.29h4.558v-7.633zm2.736-57.246 4.181 7.944c1.721-.05 3.363.593 5.025-.576-.807-1.587-1.532-2.961-2.206-4.358-.661-1.374-1.27-2.771-2.047-4.478.568-.382 1.026-.656 1.448-.978 4.699-3.572 3.029-10.853-2.918-11.96-4.071-.756-8.005-.458-12.071-.4v22.541h5.166v-7.735h3.422zm-10.875 36.48V39.338h-5.304v13.445l-.571.13-7.907-13.585h-5.009c-.123 7.644-.11 14.971-.036 22.348h4.962V48.655l.833-.222c2.693 4.544 5.384 9.089 7.972 13.458h5.06zM0 0h99.872c.038.525.109 1.051.109 1.578.006 31.295.009 62.591.002 93.886 0 .888-.088 1.777-.149 2.909-1.4.063-2.555.161-3.711.161-31.252.009-62.503.008-93.755.001-.789 0-1.579-.073-2.368-.112V0zM0 104.772c1.49-.28 2.09.525 2.524 1.833.95 2.844 2.037 5.641 3.297 9.085.69-1.784 1.17-2.985 1.615-4.2.452-1.233.672-2.6 1.353-3.683.648-1.028.221-3.106 2.795-2.97-1.364 5.03-3.105 9.655-5.638 15.081-.98-2.01-1.572-3.108-2.059-4.25-1.32-3.092-2.594-6.205-3.887-9.308v-1.588zM34.471 114.611c.296-3.427.56-6.494.84-9.56.004-.048.217-.077.332-.115 1.14 2.184 1.381 8.682.465 13.843-2.376-.564-2.865-2.827-4.039-4.375-1.25-1.647-2.367-3.397-3.817-5.5-1.064 3.489.453 6.838-1.129 9.929-1.272-2.221-1.532-7.757-.73-13.986 2.707.299 3.01 2.927 4.31 4.468 1.335 1.58 2.418 3.374 3.768 5.296M73.545 109.74c-.804-3.521-.944-3.591-5.754-2.89v4.76c2.336.382 4.232.27 5.754-1.87m-2.843 3.93c-.196-.025-.71-.14-1.224-.143-.51-.003-1.022.107-1.7.188l-.683 5.55c-2.232-2.54-1.188-4.965-1.362-7.137-.185-2.326-.042-4.68-.042-7.466 1.992 0 3.538.014 5.083-.004 2.06-.023 3.632.897 4.37 2.758.667 1.685.403 3.38-1.102 4.678-.295.254-.518.59-.88 1.01l3.024 5.972c-3.453-.804-3.256-3.732-5.484-5.405M52.248 115.98c0-3.373-.012-6.662.018-9.95.003-.362.247-.72.465-1.315 2.074 1.328 1.088 3.292 1.227 4.878.16 1.828.037 3.682.037 5.415 2.565 3.068 3.005 3.114 5.973.717.915-3.566-.52-7.454.97-11.026.574.165.782.17.808.241 1.506 4.071 1.588 8.264-.465 12.02-1.804 3.304-5.719 2.81-9.033-.98M98.727 109.246l-1.39-2.61c-4.479-.305-4.479-.305-5.249 2.803 1.331.545 2.718 1.147 4.129 1.685 2.964 1.13 4.364 3.143 3.594 5.228-.77 2.082-3.858 3.326-6.408 2.582-2.42-.707-3.082-1.554-3.435-4.813 2.628 1.987 5.004 5.608 8.291 1.254-1.167-3.921-6.143-2.234-7.72-5.537-.33-3.41.398-4.738 2.931-5.154 3.721-.61 5.497.506 6.1 3.835l-.843.727M16.136 113.104v4.078l6.967.37c-2.159 1.785-4.306 1.957-8.734.863V104.94h9.038c-2.257 2.477-4.805.953-7.137 1.837v4.095l6.412.322c-2.193 2.204-4.368 1.054-6.546 1.911M87.735 104.962c-1.916 2.27-4.312.905-6.672 1.932l-.236 3.79 6.19.616c-1.576 2.308-3.87.835-5.846 1.824v4.067l6.592.342c-2.475 2.306-5.276 1.283-8.396 1.377-.411-4.684-.198-9.2-.142-13.948h8.51zM43.183 106.754l-4.508-.773c2.254-1.652 7.793-1.807 11.017-.536-1.696.977-1.696.977-3.964 1.185-1.267 3.875.468 8.146-1.33 12.047-1.717-3.758-.315-7.817-1.215-11.923"/>
        <path d="M82.4 19.437c-1.713 2.93-4.29 2.033-6.962 1.961v-6.892c2.583-.58 4.937-.693 6.962 1.663v3.268zM76.62 71.638c6.061-.742 7.471.547 6.44 5.732-1.972 1.88-4.285 1.341-6.82 1.112-.25-2.43-.73-4.684.38-6.844M61.168 20.512c0 1.916.088 2.56 0 3.997-.233 3.787-1.454 5.709-5.714 5.709-4.37-1.068-5.525-10.506-2.423-14.589.55-.726 1.837-1.311 2.814-1.474.707-.119.852.09 2.353.12 2.336 1.626 2.97 3.594 2.97 6.237z"/>
    </g>
</svg>
