<svg width="132" height="75" viewBox="0 0 132 75" xmlns="http://www.w3.org/2000/svg">
    <g fill="#000" fill-rule="evenodd">
        <path d="M14.207 50.417c7.607-6.632 11.682-14.923 11.662-25.036-.02-10.123-4.1-18.422-11.952-25.2.634-.059.993-.12 1.352-.12 8.265-.007 16.533-.152 24.793.03 10.904.241 18.934 5.256 23.62 15.201 5.225 11.095.69 25.394-9.872 31.654-4.296 2.546-8.894 3.814-13.892 3.784-8.045-.045-16.09-.01-24.135-.01h-1.412l-.164-.303zM64.35 50.1C78.285 36.225 88.27 20.131 93.07.91c4.926 19.225 14.895 35.402 28.798 49.349-9.386-3.308-18.948-5.054-28.807-5.076-9.808-.021-19.312 1.761-28.711 4.917M4.888 72.598c.587 0 1.069-.062 1.447-.187.674-.232 1.227-.678 1.657-1.338.343-.529.59-1.206.742-2.034.087-.493.131-.95.131-1.373 0-1.623-.316-2.883-.947-3.78-.631-.899-1.646-1.348-3.048-1.348H1.792v10.06h3.096zM0 61.014h5.236c1.778 0 3.157.64 4.136 1.917.874 1.153 1.312 2.63 1.312 4.432 0 1.391-.259 2.648-.775 3.772-.91 1.986-2.473 2.98-4.69 2.98H0v-13.1zM13.279 61.014h9.506v1.604h-7.776v3.978h7.188v1.516h-7.188v4.441h7.91v1.561h-9.64zM25.461 61.014h9.087v1.604h-7.314v3.978h6.431v1.562h-6.43v5.956H25.46zM36.85 74.114h1.791v-13.1H36.85zM52.363 68.745l-2.017-5.788-2.096 5.788h4.113zm-2.942-7.73h2.003l4.753 13.098h-1.943l-1.368-3.924h-5.14l-1.42 3.924h-1.82l4.935-13.099zM57.779 61.014h1.774v11.54h6.574v1.56h-8.348zM67.936 61.014h1.775v11.54h6.573v1.56h-8.348zM78.495 74.114h1.793v-13.1h-1.793zM89.934 68.745l-2.017-5.788-2.095 5.788h4.112zm-2.942-7.73h2.004l4.753 13.098h-1.943l-1.368-3.924h-5.14l-1.421 3.924h-1.82l4.935-13.099zM95.35 61.014h2.09l6.535 10.584V61.014h1.694v13.1h-1.994l-6.63-10.572v10.572H95.35zM117.806 61.968c.905.874 1.407 1.866 1.508 2.98h-1.732c-.192-.846-.575-1.514-1.15-2.008-.576-.493-1.383-.74-2.422-.74-1.267 0-2.291.454-3.07 1.36-.78.908-1.169 2.3-1.169 4.173 0 1.536.351 2.781 1.056 3.736.703.955 1.753 1.433 3.149 1.433 1.285 0 2.264-.503 2.934-1.508.357-.53.623-1.225.797-2.087h1.731c-.153 1.38-.658 2.536-1.516 3.47-1.029 1.123-2.416 1.684-4.161 1.684-1.505 0-2.768-.46-3.791-1.382-1.346-1.22-2.018-3.103-2.018-5.649 0-1.934.504-3.519 1.515-4.757 1.094-1.344 2.601-2.017 4.523-2.017 1.638 0 2.911.438 3.816 1.312M121.9 61.014h9.506v1.604h-7.777v3.978h7.188v1.516h-7.188v4.441h7.91v1.561h-9.64z"/>
    </g>
</svg>
