<svg width="410" height="64" viewBox="0 0 410 64" xmlns="http://www.w3.org/2000/svg">
    <g fill="#000" fill-rule="evenodd">
        <path d="M61.448 52.65c.396-1.78.326-8.248-.087-9.44h-8.895c3.172 3.336 6.068 6.378 8.982 9.44zm-8.669 8.858.19-.422a19645.38 19645.38 0 0 0-9.148-9.111c-.322 2.953-.319 5.73-.324 8.506 0 .742.394 1.03 1.095 1.029 2.73-.004 5.458-.002 8.187-.002zM20.71 18.825c0-3.393.051-6.406-.053-9.414-.017-.472-.65-1.093-1.152-1.351a428.338 428.338 0 0 0-10.94-5.45c-1.324-.634-2.74-.371-4.32-.183C9.765 7.927 15.07 13.21 20.71 18.825zM2.347 4.154c-.193 1.92-.23 3.783.862 5.51.43.684.762 1.429 1.127 2.154 1.246 2.479 2.495 4.959 3.725 7.446.402.812.958 1.196 1.923 1.167 2.214-.066 4.43-.021 6.646-.021h2.06L2.346 4.154zm20.42.37v15.76H38.74L22.766 4.524zm20.837 15.643c1.985.395 14.874.32 15.991-.037L43.605 4.176v15.99zM4.241 43.217c.208.415.25.6.363.713a6798.202 6798.202 0 0 0 15.222 15.16c.17.169.466.212.813.362.04-.435.087-.716.087-.997.004-4.54.008-9.08-.003-13.618-.004-1.653-.102-1.735-1.81-1.736-4.438-.003-8.875-.004-13.313.003-.387 0-.776.064-1.359.114zM45.467 2.394c5.198 5.634 10.484 10.983 16.096 16.45V2.393H45.467zm-27.05 59.032.232-.324c-1.333-1.346-2.663-2.697-4.002-4.037-1.315-1.317-2.64-2.622-3.96-3.934-1.36-1.355-2.702-2.727-4.08-4.063-1.338-1.295-2.552-2.735-4.175-3.95-.355 2.893-.232 15.01.155 16.308h15.83zm.571-20.564L2.483 24.41c-.098.794-.185 1.178-.187 1.56-.018 4.42-.033 8.842-.028 13.262.001 1.794.055 1.824 1.887 1.838 4.724.037 9.448.076 14.172.102.146 0 .294-.133.661-.312zM4.083 22.88c2.262 2.76 15.514 15.739 16.551 16.185V22.927c-1.438-.453-14.849-.494-16.55-.047zM24.447 2.352l-.143.328C29.601 7.979 34.898 13.279 40.2 18.574c.202.202.45.359.683.53.037.027.108.025.16.014.052-.011.1-.048.151-.073.355-2.898.21-15.434-.217-16.693H24.447zM61.69 61.51c0-1.542-.032-2.808.012-4.073.03-.866-.22-1.545-.826-2.192-3.455-3.694-6.863-7.432-10.323-11.12-.413-.441-1.033-.915-1.586-.955-1.724-.123-3.462-.045-5.326-.045-.254 1.797-.19 3.466-.058 5.126.027.343.384.702.662.98 3.86 3.872 7.726 7.739 11.62 11.579.342.337.874.64 1.336.669 1.385.087 2.778.03 4.49.03zm-.2-20.453c.374-2.225.268-17.113-.13-18.368-.313-.035-.654-.106-.995-.107-5.078-.007-10.155-.005-15.232-.006-.118 0-.234-.003-.35.004-1.16.075-1.23.148-1.289 1.373-.008.174 0 .348 0 .523 0 5.003-.005 10.006.003 15.009.001.503.078 1.006.124 1.572h17.87zM41.135 61.42c.093-.385.17-.552.17-.72.012-5.411.031-10.824.012-16.237-.005-1.264-.159-1.361-1.645-1.364-5.138-.01-10.277-.008-15.415 0-1.542.002-1.533.062-1.526 1.562.026 5.12.011 10.242.011 15.364v1.395h18.393zM22.761 22.687c0 .937.003 1.628 0 2.319-.022 4.949-.043 9.896-.07 14.844-.006 1.03.213 1.312 1.145 1.307 5.255-.023 10.51-.053 15.766-.087 1.66-.011 1.72-.062 1.723-1.82a3270.9 3270.9 0 0 0-.002-15.023c0-.5-.09-1-.142-1.54h-18.42zm-16.658-2.5c-.993-2.045-1.906-3.967-2.856-5.871-.8-1.604-1.649-3.186-2.466-4.782-.536-1.046-.845-2.126-.77-3.338C.1 4.803.001 3.4.041 2.005.08.55.606.048 2.092.027 3.845 0 5.6-.025 7.35.047c.67.03 1.378.232 1.984.527 3.301 1.608 6.574 3.274 9.863 4.909.4.198.834.327 1.532.597 0-1.125-.004-2.034.001-2.944.003-.582-.03-1.17.04-1.744.104-.848.546-1.396 1.496-1.364.35.012.701-.006 1.051-.006H61.35c.293 0 .585-.011.877.004 1.36.067 1.645.34 1.72 1.644.016.29.002.582.002.873v58.702c0 .407.01.816-.019 1.222-.05.749-.47 1.17-1.216 1.239-.407.037-.818.024-1.226.024H2.598c-.41-.001-.825.035-1.225-.025-.78-.12-1.254-.592-1.32-1.394-.035-.404-.002-.814 0-1.222L.134 24.75c0-.757-.016-1.514-.036-2.271-.04-1.625.354-2.038 2.038-2.07.935-.02 1.87.012 2.804-.011.324-.008.647-.113 1.162-.211zM113.858 29.466c1.336 0 2.605.005 3.875-.002 1.693-.008 3.388.009 5.08-.047 1.874-.062 2.292-.46 2.728-2.271.225-.936.516-1.856.892-3.188.412.677.744.976.765 1.294.192 2.958.332 5.919.486 8.879.003.058.024.137-.006.171-.229.272-.427.642-.723.76-.146.057-.572-.309-.703-.567-.15-.293-.074-.69-.164-1.024-.56-2.103-1.114-2.513-3.307-2.512-2.394.002-4.788-.005-7.182.007-.567.003-1.135.064-1.822.107-.05.632-.125 1.137-.127 1.642-.01 3.143-.013 6.285-.004 9.427.006 1.804.501 2.313 2.302 2.598a8.69 8.69 0 0 1 2.142.613c.271.12.575.671.501.92-.08.272-.557.477-.902.607-.257.096-.577.027-.868.027l-10.335.029c-.116.001-.233.006-.35.007-.558.001-1.134-.071-1.135-.773 0-.747.643-.682 1.16-.726.405-.036.82-.033 1.214-.122 1.567-.355 1.952-.788 1.96-2.379.03-7.799.044-15.598.048-23.397.001-1.391-.107-1.512-1.479-1.955-.719-.231-1.476-.358-2.174-.637-.312-.124-.699-.48-.74-.775-.085-.598.43-.745.934-.749.993-.006 1.985.008 2.976.008 6.54 0 13.078-.006 19.617.003 1.8.003 1.987.218 2.046 2.001.038 1.162.163 2.324.137 3.484-.009.375-.32.996-.594 1.059-.57.129-.895-.343-1.037-.922-.243-1.002-.46-2.022-.83-2.979-.288-.747-.94-1.134-1.806-1.132-3.85.008-7.703-.004-11.554-.014-.867-.002-1.277.4-1.274 1.276.011 3.317-.002 6.634.015 9.95.002.387.137.773.238 1.302M176.005 24.285c.126 1.117.28 1.842.276 2.565-.027 5.001-.093 10.002-.134 15.003-.02 2.42.004 2.394 2.227 3.312.528.218 1.498.112 1.396 1.016-.117 1.013-1.04.713-1.692.715-6.302.02-12.605.023-18.908.03-.291 0-.645.088-.858-.043-.302-.187-.5-.539-.743-.822.253-.199.477-.488.764-.58.872-.279 2.05-.22 2.577-.787.525-.564.423-1.722.562-2.624.079-.514.124-1.04.127-1.56.032-6.969.037-13.938.095-20.906.012-1.335-.414-2.238-1.74-2.662-.66-.21-1.477-.49-1.4-1.31.082-.879.972-.808 1.654-.95 1.13-.24 2.233-.609 3.365-.827 1-.193 1.272.053 1.357 1.031.035.404.01.813.01 1.22-.022 8.727-.045 17.453-.066 26.18-.001.523.01 1.047.02 1.57.015.68.399 1.098 1.018 1.254 1.78.45 3.574.576 5.352-.004 1.298-.424 1.686-.919 1.7-2.3.04-3.666.02-7.33.06-10.996.013-1.108-.812-1.439-1.542-1.9-.516-.325-1.373-.604-1.454-1.02-.174-.924.917-.82 1.448-1.196 1.084-.767 2.15-1.558 3.219-2.347.317-.235.614-.496 1.31-1.062M254.813 41.426c1.314-3.177 2.578-6.029 3.678-8.942 1.433-3.797 2.755-7.638 4.081-11.475.243-.703.345-1.474.391-2.221.077-1.25-.335-1.688-1.577-1.804-.696-.065-1.399-.062-2.097-.111-.62-.044-1.14-.226-1.185-1.105 1.324-.625 2.726-.269 4.072-.323a42.275 42.275 0 0 1 4.028.008c1.352.073 2.761-.406 4.087.285.025.944-.53 1.246-1.227 1.171-2.019-.213-2.924.943-3.602 2.601-3.288 8.051-6.627 16.08-9.92 24.128-.395.962-.568 2.014-.97 2.971-.173.413-.672.958-1.02.956-.363-.002-.882-.524-1.058-.934-1.952-4.524-3.795-9.096-5.78-13.605-2.053-4.671-4.215-9.295-6.363-13.925-.633-1.363-1.666-2.194-3.287-2.157-.788.018-1.54-.159-1.383-1.321.297-.071.57-.193.846-.194 4.026-.022 8.054-.026 12.081-.033.292-.001.624-.069.865.047.311.147.55.447.82.682-.273.255-.52.688-.824.731-.86.121-1.745.074-2.619.108-1.998.079-2.434.691-1.663 2.498 1.503 3.519 3.076 7.007 4.588 10.522 1.511 3.513 2.98 7.045 4.475 10.564.086.204.24.379.563.878M298.474 29.378c1.945-.902 3.613-1.896 5.418-2.456 2.142-.665 4.364-.788 6.286.848 1.276 1.087 1.966 2.413 1.964 4.1-.004 3.201.01 6.404.016 9.607.001.523-.018 1.048.011 1.571.071 1.272.228 1.456 1.436 1.834.5.157 1.018.284 1.484.515.216.106.487.461.447.642a1.225 1.225 0 0 1-.577.751c-.289.146-.68.11-1.029.111-2.453.012-4.906.008-7.36.02-.732.002-1.41-.039-1.537-1.252.675-.145 1.322-.296 1.974-.42 1.721-.329 1.964-.624 1.951-2.272-.022-2.735.001-5.47-.046-8.204a12.323 12.323 0 0 0-.316-2.583c-.6-2.535-3.259-3.974-5.67-3.049a25.86 25.86 0 0 0-3.436 1.637c-.97.548-1.418 1.401-1.368 2.607.134 3.196.137 6.398.216 9.597.04 1.612.262 1.87 1.823 2.283.392.103.801.143 1.205.207.52.082.97.336.807.891-.079.268-.557.528-.89.585-.508.09-1.047-.012-1.573-.012-2.394 0-4.79.034-7.183-.014-.372-.007-.98-.303-1.06-.583-.193-.684.393-.84.961-.899.348-.035.694-.092 1.037-.16.896-.178 1.486-.617 1.48-1.633-.02-3.138-.006-6.276-.038-9.414-.009-.843-.552-1.385-1.29-1.718-.262-.118-.58-.114-.839-.233-.734-.336-.812-1.002-.183-1.473.185-.138.403-.236.615-.33 1.422-.647 2.511-1.65 3.386-2.94.255-.374.79-.559 1.194-.83.188.452.417.894.548 1.362.104.376.087.786.136 1.307M348.486 47.574c-.133-.5-.297-.971-.376-1.454-.073-.448-.057-.91-.09-1.593-.534.25-.927.42-1.309.614-1.603.81-3.134 1.828-4.819 2.394-2.527.85-5.852-.683-6.716-4.01-.403-1.555-.585-3.195-.644-4.805-.095-2.556.016-5.118.002-7.677-.01-1.847-.036-1.865-1.906-2.182-.593-.1-1.114-.31-.934-.946.081-.285.677-.581 1.053-.601 1.338-.07 2.683-.051 4.024-.011 1.13.032 1.306.199 1.312 1.356.013 2.56-.034 5.119-.04 7.679-.007 1.628.091 3.26 0 4.883-.12 2.126 1.224 3.77 3.754 3.893 2.21.107 4.104-.8 5.707-2.227.41-.366.623-1.134.636-1.724.076-3.255.046-6.514.086-9.77.022-1.756-.932-2.755-2.53-2.554-.455.056-.969.046-1.383-.118-.3-.12-.479-.54-.713-.826.247-.2.491-.564.743-.57 2.1-.044 4.201-.034 6.301-.013.738.008 1.013.536 1.018 1.174.01 1.162-.047 2.325-.067 3.488-.059 3.488-.14 6.975-.157 10.462-.006 1.382.247 1.565 1.666 1.627.35.016.727-.073 1.044.03.337.11.62.392.925.599-.225.298-.388.759-.683.866-1.887.694-3.805 1.31-5.904 2.016M197.827 47.654l-.553-3.065c-1.05.586-2.034 1.164-3.046 1.69-.616.323-1.317.497-1.902.86-2.729 1.703-7.199-.116-7.929-4.24-.291-1.647-.296-3.353-.328-5.035-.044-2.268.038-4.537.018-6.807-.016-1.787-.17-1.922-1.952-2.2-.286-.045-.623-.045-.831-.203-.197-.15-.368-.494-.339-.727.027-.215.33-.561.517-.566 1.748-.042 3.501-.097 5.243.012.843.052.784.904.775 1.529-.038 2.616-.12 5.232-.159 7.848-.022 1.455-.01 2.91.024 4.364.068 2.937 1.821 4.26 4.904 3.96 1.621-.158 2.964-.994 4.314-1.797.858-.512 1.011-1.394 1.033-2.28.044-1.744.041-3.49.048-5.237.006-1.454.029-2.91-.012-4.363-.055-1.964-.552-2.436-2.515-2.545-.523-.03-1.083.012-1.553-.17-.331-.128-.536-.577-.942-1.05.636-.174.956-.333 1.277-.337a191.88 191.88 0 0 1 5.778.007c1.103.022 1.484.38 1.502 1.475.015.807-.2 1.614-.214 2.424a661.437 661.437 0 0 0-.122 10.82c-.003 1.917.108 1.97 1.948 2.054.602.027 1.452-.243 1.6.63.157.927-.728.817-1.309 1.018-1.691.587-3.364 1.227-5.275 1.93M137.283 36.974l.273.043c0 .812-.061 1.63.011 2.437.298 3.338 2.459 7.475 7.698 6.839 2.062-.25 3.662-1.087 4.672-2.887 2.393-4.264 2.107-8.6-.077-12.782-1.08-2.068-3.157-3.225-5.509-3.035-2.917.236-5.192 1.75-6.13 4.657-.49 1.519-.636 3.149-.938 4.728m7.513-10.4c5.216.002 8.806 2.958 10.505 7.988 1.703 5.049-2.33 11.237-7.249 12.507-1.24.32-2.42.732-3.743.682-4.765-.18-8.208-2.392-10.142-6.698-3.034-6.753 2.474-14.776 9.579-14.481.349.014.7.002 1.05.002M275.792 33.23c.519.025.916.059 1.313.06 2.149.012 4.297.04 6.446.013 1.517-.018 2.02-.574 1.765-2.06-.241-1.401-.863-2.516-2.304-3.208-1.442-.693-2.687-.43-3.997.134-1.835.79-3.31 3.024-3.223 5.062m-.545 1.309c-.965 4.028.594 7.927 3.948 9.66 2.875 1.484 5.718 1.21 8.38-.672.533-.376 1.114-1.295 1.749-.587.727.81-.303 1.354-.815 1.775-2.613 2.14-5.606 3.468-9.017 2.952-3.314-.502-6.228-2.093-7.52-6.146-1.517-4.76-.4-8.978 2.93-12.56 2.6-2.795 7.278-3.046 9.898-1.752 2.277 1.125 3.676 2.997 4.22 5.456.336 1.513.108 1.773-1.434 1.783-3.503.02-7.007.003-10.51.01-.627.002-1.253.054-1.83.08M378.139 33.093c.526.077.955.189 1.385.195 1.98.025 3.967-.066 5.94.044 2.846.158 3.195-1.051 2.116-3.45-.696-1.551-2.873-2.665-4.33-2.299-2.812.709-4.406 2.562-5.111 5.51m13.546 9.598c.678.808.339 1.369-.21 1.756-1.178.835-2.337 1.764-3.644 2.34-2.451 1.081-4.99 1.369-7.628.383-3.032-1.132-4.99-3.23-5.754-6.279-.97-3.861-.251-7.547 2.122-10.751 1.648-2.225 3.896-3.627 6.834-3.569 1.449.027 2.862-.045 4.249.68 2.507 1.312 3.622 3.501 4.264 6.06.155.613-.112 1.03-.775 1.094-.463.043-.931.048-1.398.048-3.325.004-6.65-.001-9.975.004-2.185.003-2.271.044-2.176 2.261.102 2.388.909 4.523 2.56 6.313 1.937 2.099 6.036 2.741 8.737 1.297.955-.51 1.87-1.093 2.794-1.637M363.11 25.476c.82 1.803.524 3.548.78 5.42.363-.39.634-.644.862-.932.98-1.244 2.05-2.384 3.505-3.088 1.452-.7 2.731-.348 3.675.94.541.739.628 1.492.197 2.279-.456.829-1.446 1.312-2.373 1.103a10 10 0 0 1-1.968-.685c-.822-.38-1.456-.23-2.003.463-1.093 1.384-2.004 2.778-1.887 4.708.151 2.492.057 5 .098 7.5.024 1.467.08 1.529 1.553 1.788.975.172 1.966.252 2.947.4.498.076.987.21 1.515.328-.054 1.107-.683 1.23-1.44 1.223-1.577-.014-3.152-.014-4.728-.014-1.984 0-3.967.009-5.952.01-.29 0-.638.082-.858-.047-.308-.178-.519-.521-.77-.793.243-.202.458-.513.737-.584.673-.174 1.377-.233 2.066-.345.882-.144 1.313-.645 1.306-1.556-.027-3.373-.006-6.747-.062-10.12-.018-1.183-.512-1.63-1.684-1.812-.23-.037-.467-.03-.697-.066-.573-.09-1.079-.382-1.004-.986.048-.38.402-.936.731-1.032 1.997-.588 3.504-1.756 4.618-3.484.114-.178.357-.272.835-.618M407.789 32.449c-.44-.498-.854-.807-1.048-1.218-.725-1.536-1.84-2.628-3.397-3.307-1.306-.57-2.682-.312-3.588.737-.901 1.042-1.085 2.872-.17 3.853.687.738 1.603 1.317 2.512 1.784 1.799.923 3.864 1.387 5.289 2.945.614.672 1.12 1.46 1.579 2.25 1.658 2.86-.592 6.375-3.144 7.46-2.285.972-4.584 1.064-6.962.29-2.621-.854-2.631-.808-2.754-3.468-.032-.695-.154-1.39-.147-2.083.003-.347.204-.691.686-1.11.329.574.64 1.159.988 1.72.485.786.938 1.6 1.513 2.318 1.11 1.384 2.623 1.738 4.36 1.675 2.523-.093 4.11-2.822 2.588-5.191-1.096-1.705-2.838-2.322-4.501-3.126-1.095-.528-2.264-.93-3.288-1.566-1.777-1.104-2.592-2.773-2.412-4.88.18-2.132 1.406-3.468 3.296-4.317 2.416-1.086 4.913-.77 7.37-.331 1.382.247 1.588.666 1.589 2.08 0 1.06.318 2.169-.36 3.485M208.02 40.36c.452.79.733 1.338 1.065 1.852.563.87 1.116 1.752 1.747 2.572.886 1.15 2.141 1.52 3.554 1.516 1.602-.005 3.12-.824 3.594-1.983.544-1.33-.01-3.438-1.357-4.38-1.128-.787-2.407-1.37-3.643-1.995-.878-.445-1.848-.727-2.686-1.23-2.503-1.506-3.327-3.185-2.715-5.99.207-.945.866-1.94 1.603-2.59 1.132-.995 2.53-1.633 4.146-1.564 1.222.053 2.455-.028 3.671.08 2.113.192 2.55.723 2.621 2.834.021.638.134 1.276.11 1.91-.01.29-.252.574-.518 1.132-.434-.595-.786-.958-.999-1.39-.754-1.524-1.88-2.611-3.47-3.26-1.263-.514-2.606-.201-3.55.934-.882 1.058-1.072 2.542-.217 3.515.668.759 1.54 1.403 2.438 1.883 1.73.923 3.658 1.43 5.2 2.754 4.016 3.446 2.562 8.378-1.573 10.087-2.15.888-4.285.93-6.47.244a7.454 7.454 0 0 0-.505-.146c-2.266-.543-2.353-.631-2.484-3.016-.055-.985-.047-1.973-.04-2.96.001-.14.16-.281.478-.808M331.248 44.835c-.366.64-.448.946-.647 1.104-2.038 1.602-4.4 2.157-6.888 1.652-2.083-.423-3.19-2.033-3.242-4.4-.061-2.73.01-5.466.006-8.2-.003-1.728-.041-3.458-.064-5.32-.756-.05-1.335-.023-1.88-.148-.334-.077-.722-.329-.875-.614-.082-.154.21-.697.45-.804 2.497-1.118 3.79-3.139 4.45-5.676.154-.595.54-.87 1.296-.659.538 1.686-.065 3.52.392 5.452.539.037 1.093.106 1.647.108 1.225.003 2.45-.043 3.675-.036.693.004 1.353.191 1.294 1.05-.05.731-.56 1.124-1.305 1.142-1.167.03-2.334.046-3.5.063-.572.008-1.142.001-1.781.001-.11.553-.253.936-.254 1.32-.006 4.013.006 8.027.025 12.04.002.404.02.822.125 1.21.456 1.68 1.893 2.394 3.514 1.752.697-.276 1.358-.642 2.06-.896.339-.122.736-.078 1.502-.14M174.36 19.058c-1.169.018-2.376-1.203-2.33-2.356.037-.962 1.195-1.984 2.268-2.001 1.225-.021 2.507 1.12 2.463 2.192-.036.89-1.433 2.15-2.4 2.165"/>
    </g>
</svg>
