<svg width="191" height="39" viewBox="0 0 191 39" xmlns="http://www.w3.org/2000/svg" xmlns:xlink="http://www.w3.org/1999/xlink">
    <defs>
        <path id="ijfackzc7a" d="M.746.717h20.558v29.238H.746z"/>
        <path id="nn83cldsvc" d="M0 .434h17.686v30.214H0z"/>
    </defs>
    <g fill="none" fill-rule="evenodd">
        <path d="M154.216 9.698c-3.038 0-5.75 1.248-7.703 3.308l-14.104 13.29c-1.302 1.194-2.929 1.845-4.61 1.79h-.326c-3.743-.27-6.78-3.363-7.05-7.106-.164-2.17.595-4.23 2.06-5.804 1.464-1.573 3.471-2.44 5.64-2.44 1.791 0 3.581.65 4.938 1.79.65.541 1.626.487 2.17-.163.542-.651.488-1.628-.164-2.17-1.953-1.627-4.393-2.55-6.943-2.55-2.984 0-5.804 1.248-7.865 3.418-2.061 2.224-3.093 5.045-2.875 8.082.38 5.262 4.611 9.547 9.872 9.927h.76c2.332 0 4.72-.976 6.509-2.658l9.06-8.516v.433c0 5.913 4.826 10.741 10.74 10.741 1.898 0 3.796-.489 5.424-1.465a1.564 1.564 0 0 0 .542-2.115 1.563 1.563 0 0 0-2.115-.543c-1.194.706-2.496 1.03-3.907 1.03-4.23 0-7.702-3.417-7.702-7.702 0-2.007.814-3.851 2.062-5.262l.217-.216.108-.109a7.662 7.662 0 0 1 5.262-2.115 7.697 7.697 0 0 1 7.702 7.702v9.221c0 .868.705 1.52 1.519 1.52.868 0 1.519-.706 1.519-1.52v-9.22c0-5.75-4.827-10.578-10.74-10.578" fill="#000"/>
        <g transform="translate(168.604 8.98)">
            <mask id="cfaz3qe9bb" fill="#fff">
                <use xlink:href="#ijfackzc7a"/>
            </mask>
            <path d="M10.564 19.106a7.649 7.649 0 0 1-5.315-2.115 8.363 8.363 0 0 1-1.465-1.953v-7.27c.108-.216.38-.596.65-.975 1.465-1.953 3.69-3.092 6.13-3.092a7.697 7.697 0 0 1 7.703 7.703c-.054 4.285-3.471 7.702-7.703 7.702m0-18.389c-2.55 0-4.882.868-6.78 2.441V2.4c0-.868-.706-1.519-1.519-1.519-.868 0-1.52.705-1.52 1.52v26.036c0 .868.706 1.52 1.52 1.52.868 0 1.52-.706 1.52-1.52v-8.68a10.599 10.599 0 0 0 6.78 2.442c5.912 0 10.74-4.827 10.74-10.74C21.25 5.545 16.476.718 10.564.718" fill="#000" mask="url(#cfaz3qe9bb)"/>
        </g>
        <g transform="translate(0 .422)">
            <mask id="k4rtpxywsd" fill="#fff">
                <use xlink:href="#nn83cldsvc"/>
            </mask>
            <path d="M16.219 30.648h-6.076C4.557 30.648 0 26.092 0 20.505V1.953C0 1.085.706.433 1.519.433c.814 0 1.519.706 1.519 1.52v18.552c0 3.905 3.2 7.106 7.105 7.106h6.022c.868 0 1.518.704 1.518 1.518.055.814-.65 1.52-1.464 1.52" fill="#000" mask="url(#k4rtpxywsd)"/>
        </g>
        <path d="M28.587 12.572c-4.231 0-7.703 3.473-7.703 7.703 0 1.573.488 3.092 1.302 4.34.053-.109.162-.217.27-.326l10.416-10.415a7.65 7.65 0 0 0-4.285-1.302m0 18.498c-5.913 0-10.795-4.828-10.795-10.795A10.788 10.788 0 0 1 28.587 9.481a10.71 10.71 0 0 1 7.594 3.145 1.54 1.54 0 0 1 0 2.17L24.573 26.406c-.11.108-.217.162-.326.271a7.86 7.86 0 0 0 4.34 1.302 7.548 7.548 0 0 0 4.556-1.518c.705-.49 1.627-.38 2.116.324.488.706.379 1.628-.325 2.116a10.444 10.444 0 0 1-6.347 2.17M57.824 9.806a6.983 6.983 0 0 0-5.424 2.603c-1.302-1.627-3.255-2.657-5.479-2.657a6.8 6.8 0 0 0-4.448 1.627c-.27-.217-.596-.38-.976-.38-.868 0-1.52.705-1.52 1.52V29.55c0 .868.706 1.52 1.52 1.52.814 0 1.518-.706 1.518-1.52v-12.8c0-2.17 1.79-3.907 3.906-3.907 2.17 0 3.906 1.79 3.906 3.906v12.748c0 .867.705 1.519 1.519 1.519.868 0 1.519-.706 1.519-1.52V16.804c0-2.17 1.79-3.905 3.905-3.905 2.17 0 3.905 1.79 3.905 3.905V29.55c0 .868.706 1.52 1.52 1.52.867 0 1.518-.706 1.518-1.52V16.803c.108-3.851-3.038-6.997-6.889-6.997M77.786 9.806a8.54 8.54 0 0 0-5.696 2.17c-.217-.543-.76-.976-1.41-.976-.868 0-1.519.704-1.519 1.518V29.55c0 .868.706 1.52 1.519 1.52.867 0 1.519-.706 1.519-1.52V18.376a5.58 5.58 0 0 1 5.587-5.587 5.579 5.579 0 0 1 5.587 5.587V29.55c0 .868.705 1.52 1.519 1.52.868 0 1.52-.706 1.52-1.52V18.431a8.612 8.612 0 0 0-8.626-8.625M108.542 31.07h-7.756c-.87 0-1.52-.705-1.52-1.52 0-.867.706-1.518 1.52-1.518h7.756c.054 0 1.465 0 2.332-.867.49-.49.76-1.248.76-2.225 0-.976-.27-1.736-.76-2.224-.867-.868-2.278-.868-2.278-.868h-4.285c-.325 0-2.766-.054-4.502-1.79-1.03-1.03-1.573-2.44-1.573-4.122 0-4.503 3.96-6.021 6.02-6.184H111.852c.868 0 1.52.705 1.52 1.518 0 .814-.706 1.52-1.52 1.52h-7.377c-.597.053-3.147.487-3.147 3.146 0 .868.218 1.518.706 1.953.868.868 2.333.922 2.387.922h4.285c.217 0 2.658 0 4.448 1.735 1.139 1.085 1.681 2.55 1.681 4.394 0 1.845-.542 3.309-1.681 4.394-1.845 1.627-4.123 1.736-4.61 1.736M92.269 31.07a1.516 1.516 0 0 1-1.518-1.52v-17.9c0-.867.704-1.519 1.518-1.519.814 0 1.519.706 1.519 1.52v17.9c0 .814-.651 1.519-1.52 1.519M90.262 6.334a1 1 0 0 1-.651-.27c-.38-.38-.38-.923 0-1.303L91.673 2.7c.379-.38.921-.38 1.301 0l2.007 2.007c.38.38.38.922 0 1.302s-.921.38-1.301 0l-1.357-1.356-1.41 1.41c-.163.218-.434.271-.65.271" fill="#000"/>
    </g>
</svg>
