<svg width="115" height="57" viewBox="0 0 115 57" xmlns="http://www.w3.org/2000/svg">
    <g fill="#000" fill-rule="evenodd">
        <path d="M71.036 0c.049 17.743.103 35.485.132 53.229.002.688-.224 1.377-.409 2.444H60.656V16.566l-.81-.403c-.81.83-1.686 1.607-2.419 2.499-9.382 11.41-18.732 22.847-28.128 34.247-.923 1.12-2.092 2.042-3.58 2.636 4.101-7.063 9.793-12.838 14.765-19.421V22.5c-5.6 5.587-9.49 11.697-15.005 17.238l-14.853-18.13v33.657c-3.799 1.349-7.228.75-10.626.611V4.298h9.392c6.251 6.162 10.468 13.223 16.597 18.894L41.473 4.766h10.438c.079 5.593.15 10.74.221 15.885l.96.238L70.17 0h.866zM79.996 5.303h32.497c-2.295 6.75-5.472 12.595-8.442 19.005 7.567 4.123 11.48 10.245 10.478 18.929-.388 3.364-1.444 6.32-4.904 8.623l-6.385-7.515c-.642-9.812-.731-9.922-10.371-12.775l-2.84-3.588 5.689-12.237H79.996V5.303z"/>
    </g>
</svg>
