<svg width="294" height="61" viewBox="0 0 294 61" xmlns="http://www.w3.org/2000/svg">
    <g fill="none" fill-rule="evenodd">
        <path d="M0 .42h294v60H0z"/>
        <g fill="#AAA">
            <path d="M75.305 38.13c-.422 2.11-2.417 5.525-6.408 5.525-3.914 0-4.72-3.454-4.374-5.449.46-2.456 2.647-5.526 6.37-5.526 3.645.038 4.873 2.916 4.412 5.45zm2.072-10.707-.46 2.264h-.115c-.576-1.266-2.187-3.031-5.756-3.031-5.756 0-11.627 4.451-12.932 11.473-1.112 6.14 1.842 11.55 8.673 11.55 2.494 0 5.372-.959 6.868-3.07h.115l-.422 2.303h6.37l3.99-21.489h-6.33zM87.316 27.423h5.986l-.422 2.264h.115c.767-1.036 2.264-3.031 5.948-3.031l-1.19 6.523c-3.031.039-5.219.652-5.794 3.952l-2.187 11.78h-6.447l3.99-21.488zM103.279 19.02h6.446l-3.031 16.193h.115l7.444-7.79h7.56l-9.824 9.44 5.64 12.049h-7.29l-4.144-10.36h-.115l-1.88 10.36h-6.485z"/>
            <path d="M125.611 35.788c.5-1.266 2.264-3.683 5.603-3.683 3.338 0 4.144 2.417 4.144 3.683h-9.747zm6.524-9.132c-6.524 0-12.318 5.603-13.392 11.588-1.19 6.37 3.108 11.397 9.286 11.397 2.187 0 4.451-.653 6.446-1.957 2.034-1.228 3.914-3.07 5.373-5.487h-6.562c-1.075 1.113-2.302 1.995-4.298 1.995-2.494 0-4.374-1.497-4.26-4.067h16.117c.192-.5.307-.883.46-1.689 1.229-6.561-2.609-11.78-9.17-11.78zM49.596 19.02 38.238 36.057h-.077V19.02h-5.487L12.566 48.912h7.79l11.282-17.037h.115v17.037h5.525L48.56 31.875h.115v17.037h6.446V19.02zM157.614 27.423h-4.068l1.19-6.37h-5.64l-.461 2.456c-.499 2.801-2.264 3.646-4.605 3.914h-.038l-.96 4.874h3.185l-3.07 16.615h6.409l3.07-16.615h4.105l.883-4.874zM263.138 19.02h6.408l-1.957 10.667h.115c1.382-1.995 3.224-3.031 6.063-3.031 2.034 0 4.375.767 5.449 2.417 1.381 2.11 1.228 3.991.499 7.828l-2.187 12.01h-6.409l2.15-11.703c.191-1.036.805-4.528-2.61-4.528-3.607 0-4.221 3.224-4.413 4.298l-2.187 11.895h-6.408l5.487-29.853zm-27.053 8.403h-4.029l1.19-6.37h-5.64l-.461 2.456c-.5 2.802-2.264 3.646-4.605 3.914h-.077l-.92 4.874h3.184l-3.07 16.615h6.409l3.07-16.615h4.105l.844-4.874zm-30.89 16.27c3.991 0 5.987-3.453 6.409-5.525.46-2.571-.768-5.45-4.413-5.45-3.684 0-5.91 3.07-6.37 5.526-.345 1.996.46 5.45 4.375 5.45zm10.822 5.219h-6.37l.422-2.302h-.115c-1.497 2.11-4.375 3.07-6.869 3.07-6.83 0-9.785-5.373-8.672-11.55 1.266-7.023 7.176-11.474 12.932-11.474 3.53 0 5.18 1.727 5.755 3.031h.115l.461-2.264h6.37l-4.03 21.489zm-12.203-37.528-12.51 7.636h3.531l-11.32 17.037h-.115V19.02h-5.525l-11.32 17.037h-.115V19.02h-6.447v29.892h5.602l11.32-17.037h.115v17.037h5.526l20.03-29.892h3.185l-1.957-7.636zm53.261 29.393c-2.11 4.873-7.137 8.864-12.931 8.864-6.524 0-10.553-5.142-9.402-11.55 1.19-6.293 7.023-11.435 13.47-11.435 5.678 0 9.592 3.799 9.707 9.056h-6.523c-.422-1.497-1.381-3.032-4.106-3.032-3.031-.153-5.525 2.341-6.101 5.45-.576 3.146 1.036 5.486 4.106 5.486 2.647 0 4.26-1.534 5.18-2.877h6.6v.038z"/>
        </g>
    </g>
</svg>
