<svg width="321" height="48" viewBox="0 0 321 48" xmlns="http://www.w3.org/2000/svg">
    <g transform="translate(.684 .632)" fill="#FFF" fill-rule="evenodd">
        <path d="M207.468 40.62c0 .786 0 .966.532 1.451l2.977 2.937v.126h-13.203V39.49a9.184 9.184 0 0 1-8.754 6.128c-6.784 0-11.71-5.374-11.71-15.263 0-9.264 5.316-15.446 12.776-15.446a7.79 7.79 0 0 1 7.67 4.803V7.258a1.55 1.55 0 0 0-.6-1.505l-2.837-2.76V2.87l13.15-1.56v39.31zm-9.694-1.793v-18.58a4.92 4.92 0 0 0-3.931-1.861c-3.21 0-6.31 2.936-6.31 11.662 0 8.17 2.675 11.055 6.006 11.055a5.3 5.3 0 0 0 4.235-2.276zm18.447 6.307V20.05a1.695 1.695 0 0 0-.532-1.505l-2.924-3.045v-.126h13.2v25.443c0 .787 0 .966.532 1.45l2.908 2.759v.126l-13.184-.018zm-.48-38.933c0-2.97 2.381-5.375 5.318-5.375 2.936 0 5.314 2.407 5.314 5.375 0 2.97-2.378 5.374-5.314 5.374-2.937 0-5.317-2.405-5.317-5.374zm45.84 34.365c0 .787 0 1.02.532 1.505l2.977 2.937v.126h-13.272v-6.432a9.619 9.619 0 0 1-9.089 6.915c-5.884 0-9.038-4.335-9.038-12.542 0-3.958 0-8.295.125-13.167a1.531 1.531 0 0 0-.532-1.451l-2.921-2.959v-.126h13.096V31.73c0 5.375.778 8.958 4.109 8.958a5.31 5.31 0 0 0 4.288-2.704V20.066a1.695 1.695 0 0 0-.532-1.505l-2.94-3.063v-.126h13.2v25.192l-.003.002zm44.938 4.566c0-.966.177-13.291.177-16.124 0-5.374-.833-9.082-4.572-9.082a5.917 5.917 0 0 0-4.697 2.58c.376 1.676.554 3.39.532 5.106 0 3.726-.124 8.473-.177 13.223-.098.544.105 1.099.532 1.451l2.976 2.76v.124h-13.324c0-.896.177-13.294.177-16.126 0-5.463-.833-9.082-4.519-9.082a5.304 5.304 0 0 0-4.395 2.65v18.276c0 .789 0 .968.532 1.451l2.906 2.76v.124h-13.183V20.14a1.695 1.695 0 0 0-.531-1.507l-2.924-3.134v-.126h13.203v6.378c1.225-4.21 5.126-7.039 9.463-6.861 4.393 0 7.372 2.473 8.628 7.167a10.286 10.286 0 0 1 9.923-7.167c5.884 0 9.215 4.388 9.215 12.684 0 3.96-.124 8.475-.177 13.222a1.44 1.44 0 0 0 .602 1.452l2.906 2.759v.126h-13.271l-.002-.002zm-165.834-3.903 3.914 3.779v.126h-19.862v-.126l3.987-3.779c.426-.352.63-.907.532-1.452v-24.17c0-1.02 0-2.4.177-3.582l-13.395 33.592h-.16l-13.874-30.906c-.303-.769-.392-.824-.587-1.343v20.264a7.11 7.11 0 0 0 .656 3.96l5.583 7.416v.126H92.842v-.126l5.58-7.436a7.128 7.128 0 0 0 .657-3.94V11.236a4.368 4.368 0 0 0-.918-3.063l-3.954-5.18V2.87h14.176l11.87 26.174L130.707 2.87h13.874v.124l-3.896 4.388a1.55 1.55 0 0 0-.603 1.507v30.888a1.44 1.44 0 0 0 .603 1.452zm15.538-12.112v.124c0 7.669 3.917 10.75 8.507 10.75 3.831.132 7.378-2.04 9.035-5.535h.124c-1.595 7.58-6.236 11.161-13.182 11.161-7.495 0-14.565-4.567-14.565-15.157 0-11.126 7.087-15.57 14.92-15.57 6.307 0 13.022 3.01 13.022 12.687v1.54h-17.86zm0-1.54h8.737v-1.56c0-7.884-1.613-9.98-4.04-9.98-2.941 0-4.732 3.136-4.732 11.54h.035z" fill-rule="nonzero"/>
        <circle cx="23.211" cy="23.211" r="23.211"/>
        <ellipse cx="60.605" cy="23.211" rx="11.605" ry="23.211"/>
        <ellipse cx="78.658" cy="23.211" rx="3.868" ry="23.211"/>
    </g>
</svg>
