<svg width="269" height="85" viewBox="0 0 269 85" xmlns="http://www.w3.org/2000/svg">
    <g fill="#1A1A1A" fill-rule="evenodd">
        <path d="M172.924 39.114v-4.598h1.822V32.89h-5.741v1.627h1.822v4.598zM218.76 34.508h.763c.285 0 .498.064.64.19.143.129.212.308.212.539 0 .233-.07.412-.212.538-.142.129-.355.19-.64.19h-.763v-1.457zm0 3.04h.567l1.057 1.566h2.239l-1.308-1.92a2.13 2.13 0 0 0 .872-.79c.2-.334.302-.722.302-1.167 0-.474-.115-.888-.347-1.243a2.223 2.223 0 0 0-.986-.82c-.428-.188-.928-.284-1.504-.284h-2.99v6.222h2.1v-1.563h-.002zM192.395 32.89v3.423c0 .93.268 1.655.799 2.17.534.514 1.277.774 2.23.774.953 0 1.697-.258 2.23-.774.535-.514.8-1.24.8-2.17V32.89h-2.063v3.36c0 .456-.081.788-.243.994-.162.209-.4.311-.707.311-.308 0-.545-.102-.707-.31-.162-.206-.246-.54-.246-.995v-3.36h-2.093zM186.858 25.427V11.919h-10.851c-1.087 0-2.01.383-2.77 1.149-.766.759-1.15 1.682-1.15 2.769v9.59h3.104v-9.61c0-.223.08-.412.24-.575a.776.776 0 0 1 .573-.24h7.746v10.422h3.108v.003zM215.554 22.064a.899.899 0 0 1-.656.277h-10.043v3.085h10.41c1.053 0 1.966-.388 2.743-1.168.746-.746 1.12-1.682 1.12-2.806l-.008-4.235h-11.378v-1.324c0-.199.103-.403.305-.612a.898.898 0 0 1 .656-.278h10.414v-3.085h-10.414c-1.05 0-1.964.388-2.742 1.168-.75.747-1.12 1.683-1.12 2.807v4.226h11.007v1.436c-.028.165-.13.336-.294.51M265.532 17.285c0 .24-.07.434-.213.576a.774.774 0 0 1-.548.232h-8.125v-2.242a.79.79 0 0 1 .26-.585.77.77 0 0 1 .585-.259h8.041v2.278zm3.086 0v-5.366h-11.127c-1.088 0-2.01.387-2.77 1.168-.772.785-1.158 1.705-1.158 2.761v9.582h3.086v-4.244h6.46l2.261 4.244h3.077l-2.253-4.503a3.75 3.75 0 0 0 1.306-.88c.743-.755 1.118-1.675 1.118-2.762zM229.86 25.427V15.004h5.595v-3.085h-14.474v3.085h5.793v10.423zM266.72 37.571c-.125.057-.332.084-.623.084-.338 0-.69-.053-1.057-.156a4.262 4.262 0 0 1-.995-.414l-.676 1.53c.313.194.715.351 1.205.466.489.114.992.173 1.506.173.623 0 1.152-.092 1.588-.28.436-.187.763-.438.98-.755.22-.315.33-.67.33-1.06 0-.45-.12-.807-.36-1.069-.24-.26-.522-.45-.85-.565a8.565 8.565 0 0 0-1.198-.308c-.37-.072-.632-.136-.791-.2-.16-.062-.241-.157-.241-.28 0-.26.269-.392.808-.392.545 0 1.123.155 1.732.462l.632-1.52a3.805 3.805 0 0 0-1.09-.405 5.677 5.677 0 0 0-1.257-.138c-.623 0-1.152.093-1.588.277-.436.185-.763.436-.981.754a1.85 1.85 0 0 0-.33 1.068c0 .451.117.808.356 1.071.237.262.516.453.835.567.319.114.72.224 1.199.324.372.08.64.15.804.213.163.064.247.162.247.293.002.117-.06.204-.185.26M240.394 18.915v-3.187c0-.19.08-.366.24-.528.143-.137.336-.204.584-.204h7.405v3.919h-8.23zm11.314 6.512V11.919h-10.49c-1.056 0-1.978.396-2.77 1.196-.76.76-1.14 1.699-1.14 2.818v9.497h3.086V22h8.229v3.43h3.085v-.003zM245.59 34.471V32.89h-5.06v6.224h5.174V37.53h-3.111v-.816h2.631V35.2h-2.631v-.729zM202.988 18.674H199.9v3.679h-8.108v-6.46c0-.235.09-.44.268-.612.18-.184.38-.277.601-.277h9.748v-3.085h-9.748c-1.08 0-2.01.388-2.788 1.168-.779.777-1.168 1.713-1.168 2.807v9.533h14.276v-6.753h.006zM121.778 22.344v.009h-.946c-.24 0-.435-.068-.583-.204-.162-.168-.242-.344-.242-.53v-5.89c0-.185.082-.362.242-.53.148-.135.34-.203.584-.203h.945v.008h6.903v6.616c0 .185-.08.36-.24.529-.149.136-.345.204-.585.204h-.944v-.01h-5.135zm8.846 1.89c.76-.76 1.14-1.7 1.14-2.818v-9.497h-10.935c-1.055 0-1.978.397-2.77 1.196-.76.76-1.14 1.7-1.14 2.818v5.486c0 1.118.38 2.058 1.14 2.818.791.796 1.715 1.196 2.77 1.196h7.025c1.057-.006 1.981-.402 2.77-1.2zM167.15 25.426h3.086V11.918h-3.086zM126.912 34.471V32.89h-5.06v6.224h5.175V37.53h-3.111v-.816h2.63V35.2h-2.63v-.729zM99.333 32.89h-2.256l2.631 6.224h2.062l2.633-6.224h-2.063l-1.52 3.636zM115.067 25.427V11.919h-13.844c-1.087 0-2.01.383-2.77 1.149-.766.759-1.15 1.682-1.15 2.769v9.59h3.104v-9.61c0-.223.08-.412.24-.575a.774.774 0 0 1 .573-.24h3.43v10.422h3.085V15.002h4.227v10.422h3.105v.003zM147.125 36.286l2.365 2.828h1.725V32.89h-2.043v2.829l-2.365-2.83h-1.725v6.225h2.043zM165.296 25.427V11.919h-10.85c-1.088 0-2.009.383-2.77 1.149-.766.759-1.149 1.682-1.149 2.769v9.59h3.103v-9.61c0-.223.081-.412.24-.575a.774.774 0 0 1 .573-.24h7.746v10.422h3.107v.003zM145.588 17.285c0 .24-.069.434-.212.576a.774.774 0 0 1-.548.232h-8.125v-2.242a.79.79 0 0 1 .26-.585.766.766 0 0 1 .584-.259h8.041v2.278zm3.086 0v-5.366h-11.127c-1.087 0-2.01.387-2.77 1.168-.772.785-1.157 1.705-1.157 2.761v9.582h3.086v-4.244h6.459l2.261 4.244h3.078l-2.253-4.503c.481-.19.916-.484 1.305-.88.744-.755 1.118-1.675 1.118-2.762zM54.425 33.119 0 84.324l51.205-54.425a7.673 7.673 0 0 0 .232-10.255L34.572 0 54.45 17.067a7.672 7.672 0 0 0 9.995 0L84.323 0 67.257 19.879a7.672 7.672 0 0 0 0 9.995l17.066 19.878L64.68 32.887a7.668 7.668 0 0 0-10.255.232"/>
    </g>
</svg>
