<svg width="294" height="60" viewBox="0 0 294 60" xmlns="http://www.w3.org/2000/svg">
    <g fill="none" fill-rule="evenodd">
        <path d="M0 0h294v60H0z"/>
        <g fill="#AAA">
            <path d="M185.311 27.74c-3.51 0-5.216 1.898-5.216 5.803 0 3.507 2.057 5.683 5.368 5.683.636 0 1.362-.04 2.356-.127V27.97c-.994-.158-1.79-.232-2.508-.232m.032 14.318c-5.557 0-9.008-3.226-9.008-8.423 0-5.4 3.186-8.756 8.312-8.756l.435-.003c.642 0 1.527.02 2.737.175v-6.517h3.626v22.939s-3.443.585-6.102.585M135.707 41.535l-9.792-17.13-.001 17.13h-3.411V19.853h4.773l9.792 16.976-.005-16.976h3.454v21.682zM166.886 41.867c-1.648 0-3.367-.184-5.414-.58l-.218-.042v-3.029l.324.07c1.802.385 3.36.718 4.916.718 1.26 0 4.194-.201 4.194-2.058 0-1.56-2.028-1.95-3.656-2.261l-.103-.018c-.3-.062-.587-.119-.832-.18-2.387-.622-4.934-1.553-4.934-4.761 0-3.126 2.472-4.92 6.778-4.92 2.065 0 3.565.223 4.77.402l.59.09v2.935l-.314-.054c-1.366-.252-2.963-.512-4.504-.512-1.706 0-3.741.321-3.741 1.848 0 1.264 1.663 1.627 3.586 2.046 2.688.587 6.026 1.316 6.026 4.993 0 3.376-2.722 5.313-7.468 5.313M202.884 33.763c-3.097 0-5.013.457-5.013 2.73 0 2.63 2.448 2.85 4.743 2.85.86 0 2.402-.11 2.872-.145v-5.345c-.665-.026-2.393-.09-2.602-.09m-1.264 8.103c-3.755 0-7.228-.66-7.228-5.461 0-5.226 5.372-5.226 8.584-5.226.321 0 1.828.07 2.293.09-.003-2.931-.044-3.63-4.282-3.63-1.682 0-3.55.335-5.197.63l-.315.057V25.43l.215-.045c1.909-.39 3.75-.58 5.627-.58 4.11 0 7.592.414 7.592 5.526v11.144l-.25.028c-2.846.32-5.107.362-7.04.362M152.033 33.763c-3.095 0-5.014.457-5.014 2.73 0 2.63 2.449 2.85 4.743 2.85.86 0 2.402-.11 2.872-.145v-5.345c-.663-.026-2.391-.09-2.601-.09m-1.263 8.103c-3.755 0-7.23-.66-7.23-5.461 0-5.226 5.375-5.226 8.585-5.226.32 0 1.829.07 2.294.09-.004-2.931-.044-3.63-4.283-3.63-1.682 0-3.548.335-5.198.63l-.313.057V25.43l.215-.045c1.91-.39 3.75-.58 5.626-.58 4.11 0 7.593.414 7.593 5.526v11.144l-.25.028c-2.847.32-5.108.362-7.039.362M221.168 27.73c-3.68 0-5.548 1.88-5.548 5.592 0 4.773 2.788 5.775 5.127 5.775.568 0 1.21 0 2.628-.18V27.832c-1.11-.075-1.62-.103-2.207-.103zm2.173 21.17v-7.11c-1.416.199-2.169.199-2.777.199-1.433 0-3.027-.314-4.264-.839-2.761-1.149-4.41-4.076-4.41-7.828 0-1.877.457-5.302 3.503-7.147 1.526-.915 3.334-1.307 6.047-1.307.973 0 2.285.075 3.552.15l2.058.105v22.13l-3.709 1.647zM79.495 18.544h12.81v.008a2.294 2.294 0 0 0-2.068 1.51L78.25 53.076H65.346l11.986-33.016a2.303 2.303 0 0 1 2.163-1.517zM91.366 41.03a2.17 2.17 0 0 0 1.77-.917 2.3 2.3 0 0 0 .287-.536L97.82 27.46l-2.573-7.074a2.175 2.175 0 0 0-3.778-.42c-.04.058-.212.316-.284.537l-4.396 12.11 2.582 7.102a2.17 2.17 0 0 0 1.995 1.314zM106.312 7 94.324 40.016a2.3 2.3 0 0 1-1.929 1.5v.019h12.671a2.3 2.3 0 0 0 2.163-1.52L119.217 7h-12.905z"/>
        </g>
    </g>
</svg>
