<svg width="182" height="70" viewBox="0 0 182 70" xmlns="http://www.w3.org/2000/svg">
    <g fill="#000" fill-rule="evenodd">
        <path d="M116.751 58.292c1.605 0 2.808-.4 3.61-1.18a4.11 4.11 0 0 0 .005-5.81l-.006-.006c-.801-.787-2.004-1.18-3.609-1.18H108.4v8.176h8.352zm-.148-9.905c1.285-.03 2.56.23 3.728.763a5.547 5.547 0 0 1 0 10.112 8.484 8.484 0 0 1-3.728.762H108.4v8.653h-1.936v-20.29h10.14zM136.022 61.548l-4.683-11.13-4.716 11.13h9.399zm.745 1.728h-10.889l-2.265 5.401h-2.206l8.797-20.29h2.238l8.8 20.29h-2.209l-2.266-5.401zM166.098 50.12v6.717h12.29v1.727h-12.29v8.397h14.944v1.728h-16.88v-20.29h16.88v1.722zM10.592 67.559a9.063 9.063 0 0 0 4.519-1.103 7.643 7.643 0 0 0 3.027-3.104 9.688 9.688 0 0 0 1.074-4.639 10.254 10.254 0 0 0-1.074-4.792 7.848 7.848 0 0 0-3.027-3.207 8.753 8.753 0 0 0-4.52-1.15 8.736 8.736 0 0 0-4.519 1.15 7.826 7.826 0 0 0-3.027 3.207 10.253 10.253 0 0 0-1.073 4.792 9.688 9.688 0 0 0 1.073 4.64 7.632 7.632 0 0 0 3.027 3.12 9.057 9.057 0 0 0 4.52 1.086m0 1.731a11.27 11.27 0 0 1-5.533-1.327 9.356 9.356 0 0 1-3.73-3.733 11.231 11.231 0 0 1-1.327-5.533 11.872 11.872 0 0 1 1.328-5.702 9.454 9.454 0 0 1 3.729-3.833 11.028 11.028 0 0 1 5.533-1.355c1.931-.04 3.84.426 5.533 1.355a9.465 9.465 0 0 1 3.73 3.833c.908 1.76 1.365 3.72 1.326 5.702a11.272 11.272 0 0 1-1.327 5.533 9.356 9.356 0 0 1-3.729 3.733 11.273 11.273 0 0 1-5.533 1.327M34.433 58.308c1.604 0 2.806-.393 3.609-1.18a4.098 4.098 0 0 0 .023-5.794l-.023-.022c-.803-.787-2.005-1.18-3.61-1.18h-8.347v8.176h8.348zm-.148-9.907c1.284-.03 2.559.23 3.729.76a5.553 5.553 0 0 1 0 10.117 8.542 8.542 0 0 1-3.73.762h-8.2v8.653h-1.94V48.401h10.14zM45.66 50.12v6.713h12.29v1.731H45.66v8.397h14.944v1.733H43.708V48.4h16.88v1.72zM82.349 48.4v20.293h-2.655L66.162 50.521v18.172H64.22V48.4h2.626l13.565 18.16V48.4zM156.868 65.886a8.616 8.616 0 0 1-5.358 1.656 9.019 9.019 0 0 1-4.518-1.102 7.652 7.652 0 0 1-3.027-3.12 9.711 9.711 0 0 1-1.07-4.64c-.04-1.657.322-3.3 1.054-4.786a7.865 7.865 0 0 1 3.027-3.209 9.44 9.44 0 0 1 9.278.148 7.75 7.75 0 0 1 2.712 2.94h2.164a9.366 9.366 0 0 0-3.713-4.386 10.897 10.897 0 0 0-5.922-1.58c-1.93-.04-3.837.43-5.53 1.36a9.364 9.364 0 0 0-3.728 3.832 11.85 11.85 0 0 0-1.327 5.698 11.25 11.25 0 0 0 1.327 5.538 9.322 9.322 0 0 0 3.729 3.728c1.699.91 3.603 1.367 5.529 1.328 2.606 0 4.82-.669 6.64-2.005a9.423 9.423 0 0 0 3.608-5.477h-2.063a7.885 7.885 0 0 1-2.812 4.077M102.613 59.519a6.01 6.01 0 0 0-2.742-1.604 28.08 28.08 0 0 0-4.207-.758 1.024 1.024 0 0 0-.252-.032 1.06 1.06 0 0 1-.257-.028 40.446 40.446 0 0 1-4.173-.657 6.179 6.179 0 0 1-2.522-1.104 2.453 2.453 0 0 1-.94-2.028c.02-1.136.58-2.046 1.685-2.73 1.104-.685 2.68-1.038 4.728-1.06 2.109-.02 3.765.362 4.968 1.148a5.853 5.853 0 0 1 2.337 3.356h2.12c-.496-2.091-1.52-3.651-3.07-4.683-1.55-1.032-3.608-1.55-6.175-1.552-1.534-.03-3.063.2-4.519.686a6.585 6.585 0 0 0-2.967 1.956 4.55 4.55 0 0 0-1.046 2.995 3.82 3.82 0 0 0 1.118 2.895 6.813 6.813 0 0 0 2.807 1.584c1.32.373 2.667.641 4.03.801l.207.03c2.207.267 3.817.515 4.833.745.861.15 1.67.514 2.353 1.058.588.561.895 1.355.838 2.166a4.05 4.05 0 0 1-1.836 3.492c-1.225.853-2.94 1.28-5.144 1.283-2.205.003-3.935-.45-5.189-1.36a6.237 6.237 0 0 1-2.325-3.564h-2.121a7.912 7.912 0 0 0 1.603 3.641 7.644 7.644 0 0 0 3.236 2.282c1.54.563 3.172.834 4.812.801 2.822 0 5.014-.586 6.576-1.76a5.657 5.657 0 0 0 2.34-4.775c-.003-1.395-.367-2.47-1.106-3.224M74.694 18.753v.693l.786-.035-.02-.658zM74.726 20.14l.064.694.818-.112-.08-.654zM74.883 21.523l.128.682.845-.192-.14-.642zM75.144 22.895l.16.681.918-.305-.2-.624zM75.496 24.25l.225.669.978-.424-.253-.605zM75.973 25.585l.265.666 1.05-.573-.309-.586zM76.535 26.909l.328.64 1.12-.757-.358-.549zM77.22 28.18l.37.625 1.186-.967-.409-.512zM77.99 29.419l.425.6 1.24-1.214-.45-.473zM78.872 30.601c.165.185.321.377.477.578l1.268-1.488-.49-.42-1.255 1.33zM79.846 31.748l.526.55 1.282-1.817-.529-.385zM80.93 32.827l.585.505 1.247-2.157-.562-.334zM82.124 33.813l.641.457 1.156-2.506-.586-.28zM83.428 34.7l.689.408 1.014-2.863-.609-.224zM84.822 35.505l.73.36.827-3.25-.63-.169zM86.302 36.199l.775.297.576-3.63-.642-.111zM87.87 36.756l.806.23.269-3.987-.646-.052zM89.498 37.173l.842.152-.1-4.305-.65.003zM91.19 37.441l.866.077-.521-4.6-.646.065zM92.934 37.554l.883-.008-1.003-4.844-.637.125zM94.706 37.498l.894-.089-1.531-5.035-.626.18zM96.503 37.29c.296-.057.593-.133.89-.198l-2.106-5.151-.6.24 1.816 5.109zM98.271 36.832l.87-.284-2.69-5.173-.574.288zM99.999 36.223l.85-.369-3.288-5.132-.55.34zM101.691 35.445l.826-.453-3.91-5.024-.512.389zM103.323 34.503c.264-.172.517-.365.774-.55l-4.51-4.831-.482.434 4.218 4.947zM104.843 33.36l.718-.625-5.085-4.544-.432.474zM106.258 32.077c.22-.229.445-.461.658-.701l-5.614-4.183-.401.513 5.357 4.37zM107.53 30.622l.58-.775-6.118-3.733-.341.542zM108.66 29.041l.513-.83-6.572-3.232-.288.574zM109.626 27.341l.413-.893-6.933-2.65-.24.597zM110.408 25.537l.333-.93-7.242-2.033-.184.618zM111.022 23.66l.211-.962-7.457-1.375-.123.63zM111.407 21.724l.124-.97-7.59-.698-.069.634zM111.615 19.775c0-.329.032-.653.032-.982h-7.659v.641l7.627.341zM111.611 17.81l-.08-.982-7.583.67.037.637zM111.41 15.846l-.169-.97-7.453 1.346.092.638zM111.022 13.909l-.281-.946-7.23 2.009.152.621zM110.412 12.032l-.368-.913-6.921 2.626.208.61zM109.634 10.225a18.44 18.44 0 0 0-.457-.862l-6.556 3.207.265.582 6.748-2.927zM108.668 8.536l-.545-.806-6.107 3.702.317.56zM107.542 6.952l-.61-.745-5.621 4.145.364.53zM106.27 5.505l-.693-.665-5.069 4.506.413.494zM104.863 4.21l-.745-.594-4.503 4.796.456.457zM103.343 3.075l-.806-.493-3.893 4.983.493.414zM101.715 2.129l-.834-.413-3.283 5.092.529.365zM100.03 1.347l-.86-.328-2.683 5.131.561.318zM98.299.73 97.42.484l-2.101 5.11.589.264zM96.535.289 95.64.152l-1.536 4.992.613.213zM94.75.06l-.89-.052-1.006 4.803.63.153zM92.978 0l-.874.032-.53 4.559.642.095zM91.246.104l-.85.112-.109 4.274.646.037zM89.558.368l-.822.185.253 3.95.65-.02zM87.926.778l-.794.256.561 3.601.646-.08zM86.358 1.33l-.754.325.814 3.229.634-.14zM84.875 2.016l-.71.394.998 2.839.626-.197zM83.475 2.814l-.665.426 1.142 2.49.598-.257zM82.172 3.692l-.61.474 1.235 2.144.57-.304zM80.977 4.67l-.557.526 1.266 1.805.55-.358zM79.895 5.746l-.502.564 1.256 1.48.513-.404zM78.917 6.88l-.462.582 1.227 1.211.473-.454zM78.026 8.06l-.4.613 1.175.962.428-.494zM77.252 9.294l-.357.625 1.11.758.386-.53zM76.567 10.561l-.297.65 1.042.577.337-.565zM76.006 11.868c-.077.224-.173.44-.257.663l.974.423.28-.589-.997-.497zM75.524 13.195l-.2.674.914.304.228-.613zM75.16 14.55l-.133.686.842.197.172-.634zM74.899 15.918l-.1.69.817.116.113-.65zM74.734 17.293l-.036.69.785.04.053-.653z"/>
    </g>
</svg>
