<svg width="32" height="32" viewBox="0 0 32 32" xmlns="http://www.w3.org/2000/svg">
    <path d="M18.571 17.286a1.286 1.286 0 0 0 2.572 0 1.286 1.286 0 1 0-2.572 0zm5.143-3.857c-.51 0-.957.3-1.16.735.671.511 1.228 1.097 1.639 1.743a1.285 1.285 0 0 0-.479-2.479zM16 0C7.164 0 0 7.164 0 16s7.164 16 16 16 16-7.164 16-16S24.836 0 16 0zm8.75 17.068c.164.482.25.986.25 1.503C25 22.121 20.971 25 16 25s-9-2.879-9-6.429c0-.517.086-1.021.25-1.503a2.572 2.572 0 1 1 3.282-3.604c1.293-.707 2.864-1.171 4.575-1.289l2.086-4.682a.76.76 0 0 1 .91-.422l3.272.947a1.929 1.929 0 1 1 1.7 2.843 1.93 1.93 0 0 1-1.818-1.29l-2.936-.846-1.535 3.446c1.753.108 3.364.575 4.685 1.297a2.57 2.57 0 0 1 4.818 1.25 2.583 2.583 0 0 1-1.539 2.35zm-6.118 2.964c-.532.418-1.582.868-2.632.868s-2.104-.45-2.632-.868a.762.762 0 1 0-.943 1.2c.918.729 2.321 1.197 3.575 1.197s2.657-.468 3.579-1.197a.762.762 0 0 0 .128-1.071.766.766 0 0 0-1.075-.129zM8.286 13.43a1.285 1.285 0 0 0-.479 2.478c.41-.646.968-1.232 1.64-1.743a1.282 1.282 0 0 0-1.161-.735zm2.571 3.857a1.286 1.286 0 0 0 2.572 0 1.286 1.286 0 1 0-2.572 0z" fill="#FFF" fill-rule="nonzero"/>
</svg>
