<svg width="348" height="46" viewBox="0 0 348 46" xmlns="http://www.w3.org/2000/svg">
    <g fill="#000" fill-rule="evenodd">
        <path d="M98.094 35.585c-1.64-1.872-2.107-3.979-2.107-12.642 0-8.662.468-10.769 2.107-12.642 1.17-1.404 3.277-2.34 5.619-2.34 2.34 0 4.448.936 5.618 2.34 1.639 1.873 2.107 3.98 2.107 12.642 0 8.663-.468 10.77-2.107 12.642-1.17 1.405-3.277 2.342-5.618 2.342-2.342 0-4.45-.937-5.62-2.342zm24.816 9.833-4.448-7.726c2.107-3.979 2.107-8.662 2.107-14.749 0-7.725 0-13.344-4.448-18.026C113.077 1.64 109.097 0 103.947 0c-5.151 0-9.131 1.873-12.174 4.917-4.448 4.448-4.448 10.066-4.448 18.026 0 7.726-.234 13.345 4.448 18.027 3.278 3.278 7.023 4.917 12.174 4.917 1.404 0 2.575-.235 3.746-.469h15.217zM225.685 45.418h8.662V.47h-8.662zM16.388 45.887c-6.789 0-11.939-1.405-16.388-5.854l5.619-5.618c2.81 2.81 6.789 3.746 10.769 3.746 5.151 0 7.96-1.873 7.96-5.62 0-1.637-.468-2.808-1.405-3.745-.936-.936-1.872-1.17-3.98-1.638l-5.384-.703c-3.746-.468-6.79-1.873-8.662-3.746-2.108-2.106-3.278-5.15-3.278-8.896C1.639 5.853 7.492.235 17.325.235c6.086 0 10.769 1.404 14.515 5.15l-5.619 5.385c-2.81-2.81-6.321-3.044-9.13-3.044-4.683 0-7.024 2.575-7.024 5.619 0 1.17.468 2.34 1.405 3.277.936.937 2.341 1.406 4.214 1.873l5.385.703c4.213.468 6.789 1.638 8.662 3.51 2.341 2.343 3.511 5.62 3.511 9.6 0 8.662-7.491 13.579-16.856 13.579M45.886 45.418V.47h29.732v7.725H54.783V18.73h17.791v7.96H54.784v11.002h20.835v7.726zM150.3 45.887c-9.13 0-16.621-6.321-16.621-15.92V.469h8.896v29.264c0 5.15 3.044 8.194 7.726 8.194s7.726-3.044 7.726-8.194V.469h8.662v29.498c0 9.599-7.258 15.92-16.388 15.92M201.805 10.301c-1.17-1.404-3.276-2.341-5.619-2.341-2.34 0-4.448.937-5.618 2.341-1.639 1.873-2.107 3.98-2.107 12.643 0 8.662.468 10.769 2.107 12.641 1.17 1.405 3.277 2.342 5.618 2.342 2.343 0 4.45-.937 5.62-2.342 1.638-1.872 2.106-3.979 2.106-12.641 0-8.663-.468-10.77-2.107-12.643m6.555 30.669c-3.043 3.278-7.023 4.917-12.174 4.917-5.15 0-9.13-1.873-12.173-4.917-4.448-4.448-4.448-10.066-4.448-18.026 0-7.726-.234-13.345 4.448-18.027C187.056 1.639 191.036 0 196.186 0c5.151 0 8.897 1.873 12.174 4.917 4.448 4.448 4.448 10.067 4.448 18.027 0 7.725 0 13.344-4.447 18.026M265.25 13.58l-5.619 16.387h11.238L265.25 13.58zm10.535 31.838-2.576-7.96H257.29l-2.81 7.96h-9.13L261.738.47h6.79l16.387 44.95h-9.13zM336.42 11.706h11.238V.47H336.42zM308.327 35.82V.468h-5.619v40.97zM312.307 39.8l-5.62 5.618h40.97V39.8zM319.564 24.582V.47h-5.619v29.732zM323.544 28.563l-5.619 5.618h29.733v-5.618zM330.802 13.345V.469h-5.62v18.495zM334.782 17.324l-5.62 5.62h18.496v-5.62z"/>
    </g>
</svg>
