<svg width="181" height="45" viewBox="0 0 181 45" xmlns="http://www.w3.org/2000/svg">
    <g fill="#000" fill-rule="evenodd">
        <path d="m0 21.783 1.704-1.978c1.705 1.671 4.023 2.762 6.545 2.762 3.068 0 4.841-1.466 4.841-3.512 0-2.385-1.738-3.068-3.988-4.022l-3.239-1.432c-2.216-.886-4.806-2.454-4.806-5.76 0-3.41 3.068-5.932 7.329-5.932 2.796 0 5.25 1.125 6.885 2.761l-1.5 1.841c-1.465-1.295-3.169-2.08-5.488-2.08-2.591 0-4.329 1.228-4.329 3.24 0 2.146 2.08 2.93 3.988 3.68l3.137 1.398c2.761 1.091 4.942 2.66 4.942 5.966 0 3.545-2.999 6.375-7.908 6.375-3.272 0-6.101-1.296-8.113-3.307M32.19 0c1.636 0 3.204.307 4.772.955l-.647 2.114c-1.364-.581-2.421-.785-3.853-.785-2.965 0-4.158 1.67-4.158 4.329v1.5h6.92v2.285h-6.92v14.283h-2.796V10.398H20.77V8.284l4.738-.169V6.716C25.508 2.694 27.622 0 32.19 0zM39.96 16.363c0-5.386 4.023-8.659 8.455-8.659 4.773 0 7.568 3.103 7.568 7.772 0 .649-.068 1.261-.136 1.704H41.836V15h12.34l-.715.784c0-3.92-1.943-5.864-4.978-5.864-3.068 0-5.726 2.319-5.726 6.443 0 4.296 2.795 6.477 6.476 6.477 1.978 0 3.545-.614 5.045-1.569l1.023 1.841c-1.636 1.091-3.75 1.979-6.408 1.979-4.977 0-8.932-3.207-8.932-8.729M63.209 8.113h2.353l.272 3.92h.068c1.739-2.692 4.329-4.329 7.398-4.329 1.227 0 2.25.171 3.272.681l-.647 2.421c-1.159-.375-1.773-.546-3.069-.546-2.488 0-4.84 1.262-6.817 4.74v9.68h-2.83V8.113zM79.265 8.113h2.25l.238 2.182h.069c.852-1.535 1.875-2.59 3.784-2.59 1.636 0 2.658.953 3.136 2.862.955-1.772 1.977-2.863 3.886-2.863 2.318 0 3.682 1.806 3.682 5.113V24.68h-2.796V13.022c0-1.909-.545-2.898-1.772-2.898-1.16 0-1.773.852-2.66 2.557v12h-2.59V13.021c0-1.909-.477-2.898-1.705-2.898-1.16 0-1.91.852-2.727 2.557v12h-2.795V8.112zM106.978 2.454c0-1.295.955-2.182 2.25-2.182 1.296 0 2.25.887 2.25 2.182 0 1.33-.954 2.183-2.25 2.183-1.295 0-2.25-.853-2.25-2.183zm1.126 7.943h-7.67V8.113h10.499v16.568h-2.83V10.397zM133.056 16.43c0-3.816-2.113-6.373-5.283-6.373-3.171 0-5.284 2.557-5.284 6.374 0 3.784 2.113 6.307 5.284 6.307 3.17 0 5.283-2.523 5.283-6.307m-13.465 0c0-5.556 3.818-8.727 8.182-8.727 4.363 0 8.18 3.17 8.18 8.727 0 5.488-3.817 8.659-8.18 8.659-4.364 0-8.182-3.171-8.182-8.66M141.611 8.113h2.318l.24 2.795h.135c1.74-1.807 3.648-3.204 6.24-3.204 3.92 0 5.725 2.318 5.725 6.681V24.68h-2.829v-9.92c0-3.136-1.09-4.6-3.784-4.6-1.977 0-3.307.987-5.215 2.964V24.68h-2.83V8.113zM92.278 44.117h87.916v-1.908H92.278z"/>
    </g>
</svg>
