<svg width="189" height="47" viewBox="0 0 189 47" xmlns="http://www.w3.org/2000/svg">
    <g fill="#000" fill-rule="evenodd">
        <path d="M23.106 46.246c-.324-.606-.636-1.22-.974-1.816-1.04-1.844-2.092-3.681-3.214-5.651 2.866.71 5.621.732 8.496-.01-.163.303-.263.496-.37.683-1.184 2.079-2.37 4.156-3.552 6.235-.1.179-.174.372-.26.559h-.126zM36.759 23.116c.002 7.483-6.072 13.557-13.564 13.563-7.53.007-13.618-6.07-13.61-13.582.008-7.473 6.099-13.536 13.597-13.532 7.497.003 13.575 6.07 13.577 13.55M65.667 21.823c-2.967 0-5.935.002-8.902-.001-1.025-.001-1.227-.202-1.232-1.203-.002-.504 0-1.01.004-1.513.004-.534.29-.811.812-.853.23-.018.463-.014.693-.014l15.595-.001.632-.001c2.508-.015 2.627-1.354 2.446-3.005-.08-.712-.526-1.2-1.226-1.366a6.28 6.28 0 0 0-1.434-.16c-3.83-.012-7.661.01-11.492-.02-.94-.007-1.898-.08-2.817-.271-2.106-.44-3.284-1.706-3.487-3.841-.116-1.224-.082-2.48.046-3.704.169-1.621 1.1-2.786 2.662-3.28.949-.3 1.973-.495 2.967-.503 5.745-.048 11.49-.028 17.235-.025.847 0 1.099.253 1.115 1.084a23.6 23.6 0 0 1-.005 1.574c-.027.65-.284.893-.942.932-.19.012-.38.004-.568.004-5.177 0-10.354-.002-15.532.005-.481 0-.973.009-1.441.108-1.146.246-1.545.92-1.492 2.394.04 1.143.527 1.742 1.603 1.922.392.065.795.09 1.193.092 3.809.006 7.619-.026 11.427.022 1.104.014 2.235.13 3.299.409 1.735.452 2.762 1.679 2.954 3.46.123 1.143.144 2.312.054 3.456-.19 2.427-1.591 3.802-4.137 4.153-.747.102-1.51.135-2.264.14-2.588.017-5.177.007-7.766.006M157.193 12.123c0-1.322.026-2.6-.007-3.874-.042-1.635-.984-2.567-2.635-2.577-3.763-.02-7.528-.02-11.293 0-1.64.009-2.582.93-2.644 2.576-.046 1.195-.016 2.393-.013 3.588 0 .098.046.194.07.287h16.522zm-16.598 3.671v.691c0 1.45.008 2.9-.006 4.348-.006.733-.264.976-1 .988-.63.01-1.262.005-1.893.002-.956-.006-1.169-.224-1.177-1.204-.004-.61 0-1.218 0-1.828 0-3.548-.004-7.097.003-10.646.001-.501.026-1.007.091-1.505.317-2.468 1.894-4.085 4.36-4.458a11.464 11.464 0 0 1 1.698-.119c4.166-.009 8.332-.009 12.498-.004 4.168.006 6.143 1.992 6.144 6.164.002 4.115.002 8.23 0 12.345 0 1.053-.202 1.252-1.25 1.255-.61.002-1.222.008-1.832-.003-.76-.012-1.019-.265-1.026-1.032-.012-1.428-.004-2.855-.004-4.284v-.71h-16.606zM168.851 11.224c.237.014.423.033.607.033 4.183.001 8.365.002 12.547-.003.357 0 .719-.008 1.069-.068 1.083-.189 1.608-.792 1.66-1.89.02-.48.013-.965.005-1.447-.025-1.368-.657-2.047-2.017-2.165-.25-.022-.504-.02-.756-.02-4.139-.002-8.28 0-12.42-.002h-.695v5.562zm-.029 3.726c0 1.88.002 3.747 0 5.613 0 1.053-.203 1.256-1.243 1.26-.63.002-1.263.01-1.894-.004-.686-.016-.938-.27-.98-.958-.009-.125-.005-.25-.005-.377V3.416c.002-1.156.2-1.356 1.359-1.357 5.469 0 10.939-.013 16.406.012.941.005 1.9.081 2.819.273 2.149.448 3.349 1.86 3.489 4.046.061.96.065 1.934-.017 2.893-.136 1.617-.893 2.864-2.428 3.556-.112.05-.213.12-.363.206.083.062.127.111.184.134 1.888.801 2.612 2.331 2.659 4.266.026 1.133.024 2.267.007 3.4-.011.727-.272.963-1.016.975-.692.011-1.387.012-2.082 0-.69-.015-.958-.272-.969-.957-.016-1.05.002-2.1-.007-3.15-.02-1.822-.854-2.798-2.663-2.82-4.353-.058-8.708-.02-13.061-.02-.038 0-.076.03-.195.077zM95.196 5.663c-1.914 0-3.828-.008-5.742.003-1.893.01-2.824.938-2.836 2.84-.014 2.307-.015 4.617.001 6.926.013 1.85.956 2.795 2.816 2.8 3.828.015 7.657.014 11.485 0 1.873-.005 2.805-.902 2.834-2.781.036-2.33.035-4.66.001-6.99-.029-1.913-.957-2.788-2.879-2.796-1.894-.008-3.786-.002-5.68-.002zm-.025 16.16c-2.209 0-4.418.005-6.627-.005a10.262 10.262 0 0 1-1.508-.102c-2.669-.414-4.326-2.133-4.439-4.841-.114-2.768-.06-5.541-.055-8.313.001-.772.02-1.56.162-2.316.422-2.26 1.9-3.672 4.175-4.054a9.692 9.692 0 0 1 1.57-.128c4.48-.009 8.962-.006 13.443-.002.357 0 .716.018 1.071.058 2.973.335 4.763 2.157 4.845 5.15a158.7 158.7 0 0 1-.003 9.384c-.097 3.137-2.137 5.034-5.313 5.157-.084.003-.168.006-.252.006-2.357.002-4.713.002-7.069.002v.004zM124.692 21.823c-2.525 0-5.05.008-7.576-.005a11.43 11.43 0 0 1-1.696-.12c-2.425-.381-3.955-1.94-4.304-4.367a8.932 8.932 0 0 1-.098-1.255c-.007-4.264-.007-8.526-.003-12.79 0-1.001.227-1.22 1.228-1.227.506-.003 1.011-.001 1.515 0 1.142.002 1.332.186 1.333 1.305v10.585c0 .462-.004.925.003 1.387.031 1.98.942 2.896 2.918 2.899 4.883.008 9.766.003 14.65.003.21 0 .42-.005.63.003.765.026 1.003.263 1.025 1.042.014.482.013.966.001 1.449-.02.852-.252 1.087-1.103 1.089-2.84.005-5.682.002-8.523.002M57.941 36.81h11.012c.861.001.97.114.975.989v.19c0 1.141-.04 1.184-1.157 1.184H57.863c0 .391-.004.7 0 1.009.015 1.477.6 2.067 2.071 2.069 3.471.005 6.943.001 10.413.003 1.024 0 1.112.09 1.114 1.113v.378c-.008.826-.13.956-.95.957-2.798.003-5.595.002-8.393.001-1.052 0-2.105.014-3.156-.006-2.448-.048-3.783-1.363-3.824-3.806a174.858 174.858 0 0 1 0-5.794c.04-2.423 1.344-3.773 3.757-3.8 3.913-.043 7.826-.009 11.74-.018.584-.002.825.244.832.833.022 1.608.037 1.608-1.56 1.608-3.157 0-6.314.045-9.468-.017-1.86-.037-2.873.41-2.498 3.107M174.964 42.21c.214.015.396.041.579.041 2.713.003 5.425.012 8.138-.003 1.669-.009 2.458-.81 2.478-2.493.015-1.134.009-2.267.003-3.4-.01-1.875-.778-2.654-2.641-2.66-2.65-.007-5.3-.003-7.95 0-.2.001-.401.031-.607.047v8.467zm3.984-10.953c1.725 0 3.45-.005 5.175.004.419.002.843.017 1.257.081 2.114.324 3.39 1.625 3.489 3.748.09 1.927.1 3.865-.003 5.791-.126 2.39-1.734 3.78-4.318 3.807-3.365.038-6.731.013-10.098.014-.483.001-.967-.012-1.451.003-.551.016-.808-.216-.807-.784.008-3.968.008-7.936 0-11.903-.001-.58.283-.768.824-.765 1.977.012 3.955.005 5.932.004zM99.69 42.252c1.302 0 2.604.012 3.906-.004 1.221-.015 1.845-.593 1.871-1.806.036-1.634.034-3.27.002-4.905-.024-1.22-.639-1.827-1.847-1.836a574.807 574.807 0 0 0-7.879 0c-1.235.008-1.862.635-1.88 1.873a158.746 158.746 0 0 0-.002 4.781c.017 1.275.643 1.881 1.92 1.894 1.303.014 2.605.003 3.908.003zm-.033-10.994c1.514 0 3.03-.008 4.544.001 2.663.017 4.011 1.357 4.023 3.996.01 1.827.01 3.653 0 5.48-.014 2.572-1.359 3.943-3.933 3.96-3.092.022-6.185.024-9.278 0-2.515-.018-3.853-1.357-3.886-3.87-.025-1.91-.028-3.82.001-5.73.04-2.48 1.38-3.795 3.858-3.836H99.657zM82.641 44.703c-1.767 0-3.534.007-5.3-.002-2.743-.012-4.081-1.337-4.095-4.057-.008-1.804-.011-3.61 0-5.416.02-2.61 1.37-3.96 3.989-3.966 3.701-.013 7.403-.005 11.106-.003.822 0 .946.128.956.949.02 1.486.02 1.486-1.498 1.486-3.219 0-6.437-.002-9.655 0-1.567.003-2.138.57-2.143 2.123-.005 1.49-.008 2.98.002 4.47.01 1.359.612 1.96 1.975 1.964 3.388.008 6.773.003 10.16.003 1.072 0 1.156.086 1.158 1.137a10.5 10.5 0 0 1 0 .25c-.004.957-.104 1.06-1.039 1.062-1.872.002-3.744 0-5.616 0M142.629 44.702c-1.451 0-2.902.015-4.354-.004-2.542-.031-3.901-1.384-3.917-3.913-.016-2.876-.006-5.752-.002-8.628 0-.78.126-.893.93-.898.317-.003.632-.004.947 0 .737.008.875.143.875.897.004 2.645 0 5.289.003 7.935.002 1.615.547 2.16 2.155 2.162 2.293.003 4.586.005 6.879 0 1.466-.004 2.06-.591 2.066-2.073.01-2.666 0-5.332.005-7.998 0-.814.107-.917.9-.923.338-.003.676.015 1.01-.004.597-.035.838.236.833.822-.015 1.512-.005 3.023-.005 4.534 0 1.302.003 2.604 0 3.904-.007 2.882-1.316 4.18-4.222 4.188-1.368.003-2.736 0-4.103-.001M161.544 31.26c1.472-.002 2.944-.015 4.417.001 2.5.026 3.872 1.387 3.887 3.874.015 2.896.006 5.793.003 8.69-.001.744-.136.875-.892.876-1.993.001-1.85.187-1.848-1.817 0-2.33.004-4.66-.002-6.989-.003-1.65-.555-2.198-2.197-2.2-2.25-.003-4.501-.003-6.751 0-1.593.002-2.153.565-2.156 2.176-.006 2.623 0 5.247-.004 7.871 0 .834-.122.957-.94.96-1.982.005-1.796.143-1.797-1.798-.001-2.519-.012-5.038.009-7.557.004-.56.054-1.14.206-1.677.423-1.508 1.66-2.34 3.459-2.406.062-.003.126-.005.189-.005h4.417zM119.488 36.965h.854l9.974.001c.908 0 1.017.112 1.024 1.014.011 1.426.011 1.426-1.427 1.426h-10.426c0 1.23-.002 2.4.001 3.57.005 1.864.131 1.732-1.746 1.726-.886-.003-.985-.096-.986-.972-.002-2.814.002-5.628-.002-8.442 0-.965.145-1.888.738-2.683.682-.915 1.665-1.309 2.75-1.32 3.975-.039 7.953-.022 11.93-.026.47 0 .668.231.694.698.098 1.714.085 1.737-1.618 1.737h-9.47c-1.752 0-2.286.541-2.29 2.305v.966M18.908 7.479 23.108 0l4.196 7.473c-2.829-.723-5.53-.734-8.396.006M38.969 18.986c2.52 1.435 4.887 2.78 7.376 4.198-2.478 1.41-4.854 2.764-7.361 4.192.703-2.822.744-5.53-.015-8.39M7.37 27.378 0 23.188c2.482-1.414 4.858-2.766 7.355-4.186-.707 2.822-.731 5.532.015 8.376M39.482 6.847l-2.208 8.12c-1.517-2.485-3.41-4.399-5.938-5.913l8.146-2.207M39.482 39.398l-8.136-2.186c2.5-1.523 4.444-3.414 5.946-5.945l2.19 8.13M6.863 39.399c.738-2.745 1.438-5.346 2.188-8.128 1.494 2.503 3.42 4.408 5.956 5.937l-8.144 2.19M15.006 9.04c-2.52 1.52-4.426 3.408-5.936 5.93L6.862 6.85c2.738.737 5.354 1.44 8.144 2.189"/>
    </g>
</svg>
