<?xml version="1.0" encoding="UTF-8"?>
<svg width="302px" height="59px" viewBox="0 0 302 59" version="1.1" xmlns="http://www.w3.org/2000/svg" xmlns:xlink="http://www.w3.org/1999/xlink">
    <title>Solana-Ventures-black</title>
    <g id="网站" stroke="none" stroke-width="1" fill="none" fill-rule="evenodd">
        <g id="pc端" transform="translate(-602.000000, -6309.000000)" fill="#000000" fill-rule="nonzero">
            <g id="Solana-Ventures-black" transform="translate(602.000000, 6309.000000)">
                <path d="M65.2724781,46.2646912 L54.4420885,57.8800901 C53.9662532,58.390762 53.2994901,58.6805665 52.6014895,58.680096 L1.25966605,58.680096 C0.758913616,58.6803509 0.305769314,58.3833771 0.106157985,57.9241294 C-0.093453344,57.4648818 -0.00145545299,56.9309627 0.340344553,56.565004 L11.1720382,44.9496051 C11.6477036,44.4394621 12.3138351,44.1495998 13.0113332,44.1495998 L64.3525046,44.1495998 C64.8530905,44.1495998 65.3059687,44.446616 65.5056326,44.905659 C65.7052965,45.364702 65.6137277,45.8984469 65.2724781,46.2646912 Z M54.4420885,22.8748052 C53.9665622,22.3644653 53.3003407,22.0747999 52.6027935,22.0747999 L1.25966605,22.0747999 C0.759185992,22.0747999 0.306377623,22.3716608 0.106823156,22.8306361 C-0.0927313108,23.2896113 -0.00100984234,23.8232373 0.340344553,24.1892393 L11.1720382,35.8052902 C11.647518,36.3156958 12.3137696,36.6054833 13.0113332,36.6052956 L64.3525046,36.6052956 C64.8530905,36.6052956 65.3059687,36.3082794 65.5056326,35.8492363 C65.7052965,35.3901933 65.6137277,34.8564484 65.2724781,34.4902041 L54.4420885,22.8748052 Z M1.25966605,14.5304958 L52.6014895,14.5304958 C53.2994247,14.5306517 53.9660675,14.2408994 54.4420885,13.7304903 L65.2724781,2.11509144 C65.6137277,1.74884709 65.7052965,1.21510223 65.5056326,0.756059195 C65.3059687,0.297016162 64.8530905,-9.12324349e-08 64.3525046,-9.12324349e-08 L13.0113332,-9.12324349e-08 C12.3137696,-0.000187809317 11.647518,0.289599763 11.1720382,0.800005301 L0.340344553,12.4154042 C-0.00145545299,12.781363 -0.093453344,13.315282 0.106157985,13.7745297 C0.305769314,14.2337773 0.758913616,14.5307511 1.25966605,14.5304958 Z" id="形状"></path>
                <g id="编组" transform="translate(89.324145, 0.652001)">
                    <g>
                        <path d="M4.93630003,13.8080785 L18.2279936,13.8080785 L18.2279936,18.2110416 L0,18.2110416 L0,22.9139253 L18.0108773,22.9139253 C20.7266719,22.9106911 22.9273511,20.7097203 22.9302253,17.9939253 L22.9302253,14.0251948 C22.9273504,11.3095056 20.7265665,9.10872169 18.0108773,9.10584681 L4.71983567,9.10584681 L4.71983567,4.70288365 L22.9302253,4.70288365 L22.9302253,0 L4.93499602,0 C2.2194556,0.0032334312 0.0188814566,2.20380758 0.0156480254,4.919348 L0.0156480254,8.88873045 C0.0188828231,11.6047793 2.22025038,13.8055635 4.93630003,13.8080785 Z" id="路径"></path>
                        <path d="M46.0254068,0 L32.0165121,0 C29.3009716,0.0032334312 27.1003975,2.20380758 27.0971641,4.919348 L27.0971641,17.9952293 C27.1000383,20.7110243 29.3007174,22.9119951 32.0165121,22.9152293 L46.0254068,22.9152293 C48.7412015,22.9119951 50.9418806,20.7110243 50.9447548,17.9952293 L50.9447548,4.919348 C50.9415214,2.20380758 48.7409473,0.0032334312 46.0254068,0 Z M46.2418712,4.70288365 L46.2418712,18.2110416 L31.8000477,18.2110416 L31.8000477,4.70288365 L46.2418712,4.70288365 Z" id="形状"></path>
                        <path d="M58.2302147,22.9139253 L77.6252902,22.9139253 L77.6252902,18.2110416 L59.8810814,18.2110416 L59.8810814,0 L55.1781977,0 L55.1781977,19.8619083 C55.1799945,21.5467459 56.5453771,22.9121285 58.2302147,22.9139253 Z" id="路径"></path>
                        <path d="M101.653485,-5.06706612e-16 L85.7772595,-5.06706612e-16 C83.5770705,0.00251512014 81.7940921,1.78549347 81.791577,3.98568248 L81.791577,22.9139253 L86.4944606,22.9139253 L86.4944606,15.4426451 L100.936284,15.4426451 L100.936284,22.9139253 L105.639168,22.9139253 L105.639168,3.98568248 C105.636653,1.78549347 103.853674,0.00251512014 101.653485,-5.06706612e-16 Z M100.936284,4.70288365 L100.936284,10.7397615 L86.4944606,10.7397615 L86.4944606,4.70288365 L100.936284,4.70288365 Z" id="形状"></path>
                        <path d="M128.950814,18.2110416 L128.07648,18.2110416 L119.250994,1.61957063 C118.722825,0.622481442 117.686568,-0.000778124518 116.55823,-7.27754392e-07 L112.861384,-7.27754392e-07 C111.176546,0.00179677834 109.811163,1.36717935 109.809367,3.05201696 L109.809367,22.9139275 L114.51225,22.9139275 L114.51225,4.70288365 L115.573056,4.70288365 L124.389414,21.2943546 C124.918021,22.2919613 125.955134,22.915283 127.084135,22.9139275 L130.60494,22.9139275 C132.289778,22.9121285 133.655161,21.5467459 133.656957,19.8619083 L133.656957,-7.27754392e-07 L128.954074,-7.27754392e-07 L128.950814,18.2110416 Z" id="路径"></path>
                        <path d="M158.067877,0 L142.191651,0 C139.991568,0.00251579162 138.208777,1.78559894 138.206621,3.98568248 L138.206621,22.9139253 L142.908852,22.9139253 L142.908852,15.4426451 L157.351328,15.4426451 L157.351328,22.9139253 L162.054212,22.9139253 L162.054212,3.98568248 C162.051696,1.78523923 160.268321,0.00215586055 158.067877,0 Z M157.350676,4.70288365 L157.350676,10.7397615 L142.908852,10.7397615 L142.908852,4.70288365 L157.350676,4.70288365 Z" id="形状"></path>
                    </g>
                    <g transform="translate(0.000000, 33.904055)">
                        <path d="M193.545211,14.3231593 L206.758012,14.3231593 L206.758012,18.6993904 L188.638251,18.6993904 L188.638251,23.37489 L206.5422,23.37489 C209.241388,23.3712983 211.428616,21.1840697 211.432208,18.4848821 L211.432208,14.5396236 C211.428974,11.8402873 209.241536,9.65284908 206.5422,9.64961569 L193.33005,9.64961569 L193.33005,5.27208057 L211.43286,5.27208057 L211.43286,0.59658097 L193.545211,0.59658097 C190.845874,0.599814357 188.658436,2.78725255 188.655203,5.48658892 L188.655203,9.43184734 C188.657718,12.1316929 190.845366,14.3199245 193.545211,14.3231593 Z" id="路径"></path>
                        <path d="M12.5738404,18.6993904 L11.1739942,18.6993904 L4.94477604,0.59658097 L0,0.59658097 L7.1368036,21.3302147 C7.55836833,22.5547031 8.71058368,23.376846 10.0056083,23.376846 L13.7467904,23.376846 C15.0417514,23.3765056 16.1938634,22.5545785 16.615595,21.3302147 L23.7517466,0.59658097 L18.8069706,0.59658097 L12.5738404,18.6993904 Z" id="路径"></path>
                        <polygon id="路径" points="27.5164007 23.37489 49.830485 23.37489 49.830485 18.6993904 32.1912483 18.6993904 32.1912483 14.3231593 49.830485 14.3231593 49.830485 9.64831169 32.1912483 9.64831169 32.1912483 5.27208057 49.830485 5.27208057 49.830485 0.59658097 27.5164007 0.59658097"></polygon>
                        <path d="M72.7385423,18.7971906 L71.8687729,18.7971906 L63.0980546,2.30156374 C62.5727316,1.30990753 61.5418393,0.690318141 60.4196342,0.691770568 L56.7410443,0.691770568 C55.0662892,0.693569881 53.7090801,2.05077897 53.7072833,3.72553406 L53.7072833,23.4720422 L58.3821309,23.4720422 L58.3821309,5.36922873 L59.4364166,5.36922873 L68.2038749,21.8648556 C68.7300096,22.8553981 69.7606941,23.473859 70.8822953,23.4720422 L74.3796289,23.4720422 C76.054384,23.4702414 77.4115931,22.1130323 77.4133899,20.4382772 L77.4133899,0.694381129 L72.7385423,0.694381129 L72.7385423,18.7971906 Z" id="路径"></path>
                        <polygon id="路径" points="81.5555526 5.36922873 90.6066313 5.36922873 90.6066313 23.4720382 95.2814789 23.4720382 95.2814789 5.36922873 104.33321 5.36922873 104.33321 0.694381129 81.5555526 0.694381129"></polygon>
                        <path d="M127.440127,14.8656242 C127.437612,17.0344854 125.68003,18.7920675 123.511169,18.7945826 L117.012674,18.7945826 C114.843813,18.7920675 113.086231,17.0344854 113.083716,14.8656242 L113.083716,0.694381129 L108.408868,0.694381129 L108.408868,15.7966817 C108.41354,20.0337276 111.847179,23.4673669 116.084225,23.4720382 L124.439618,23.4720382 C128.676664,23.4673669 132.110304,20.0337276 132.114975,15.7966817 L132.114975,0.694381129 L127.440127,0.694381129 L127.440127,14.8656242 Z" id="路径"></path>
                        <path d="M158.57057,7.8083647 C158.564467,3.82819151 155.339611,0.603043452 151.359438,0.59658097 L136.257138,0.59658097 L136.257138,23.37489 L140.931985,23.37489 L140.931985,15.0194964 L148.995934,15.0194964 L153.438017,23.37489 L158.736178,23.37489 L154.023514,14.5076756 C156.76554,13.4132646 158.565913,10.760723 158.57057,7.8083647 Z M140.931985,5.27208057 L151.358786,5.27208057 C152.759537,5.27208057 153.89507,6.40761365 153.89507,7.8083647 C153.89507,9.20911574 152.759537,10.3446488 151.358786,10.3446488 L140.931985,10.3446488 L140.931985,5.27208057 Z" id="形状"></path>
                        <polygon id="路径" points="162.44802 23.37489 184.761452 23.37489 184.761452 18.6993904 167.122216 18.6993904 167.122216 14.3231593 184.761452 14.3231593 184.761452 9.64831169 167.122216 9.64831169 167.122216 5.27208057 184.761452 5.27208057 184.761452 0.59658097 162.44802 0.59658097"></polygon>
                    </g>
                </g>
            </g>
        </g>
    </g>
</svg>