<svg width="193" height="53" viewBox="0 0 193 53" xmlns="http://www.w3.org/2000/svg">
    <g fill="#000" fill-rule="evenodd">
        <path d="M79.176 52.986c.213-.983.432-1.967.64-2.95l2.7-12.865a98941.833 98941.833 0 0 1 6.317-30.089c.478-2.274.96-4.546 1.432-6.82.037-.179.096-.249.286-.248 1.733.007 3.466.004 5.2.005.031 0 .062.01.133.02 2.33 11.017 4.66 22.047 6.996 33.107-.118.01-.208.023-.298.023-1.563.001-3.127-.004-4.69.005-.238.002-.318-.065-.36-.307-.753-4.275-1.518-8.546-2.28-12.819L93.14 8.203c-.012-.07-.042-.137-.086-.274l-2.606 14.796h4.206c.298 1.422.59 2.82.892 4.256h-5.69l-.466 2.72-1.564 9.227c-.523 3.087-1.044 6.173-1.568 9.26-.272 1.6-.552 3.198-.828 4.798h-6.253zM192.501 4.406c-.138-.004-.275-.01-.413-.01-6.605-.001-13.207.002-19.811-.001-9.431-.005-18.863-.013-28.295-.02h-.4c.138-.278.251-.499.363-.722.567-1.128 1.14-2.253 1.698-3.386.094-.192.2-.285.411-.25.03.005.064 0 .095 0C161.601.014 177.05.01 192.501.008v4.398zM0 33.147V28.94h.342c4.827-.007 9.655-.019 14.482-.02 9.9-.003 19.801 0 29.7-.002 2.584 0 5.167-.013 7.751-.02.67-.002 1.13-.399 1.183-1.077.044-.55.031-1.104.034-1.655.004-.947-.012-1.892.006-2.837.011-.647-.248-1.152-.719-1.564-3.242-2.83-6.489-5.652-9.725-8.49-.753-.66-1.156-1.506-1.153-2.524.002-.862.002-1.722 0-2.583-.006-1.774-.018-3.547-.02-5.322C41.878 1.243 42.887.231 44.485.23h14.647v4.145H58.07c-1.234 0-2.467.002-3.701 0-1.658-.005-3.317-.003-4.975-.03-.481-.008-.781.213-.935.616-.11.29-.164.618-.169.93-.024 1.444-.016 2.888-.031 4.332-.008.664.25 1.2.738 1.626 3.038 2.66 6.082 5.312 9.119 7.971.62.543.938 1.247 1.022 2.06.016.148.012.297.012.446l.001 10.423v.398H0zM118.309 18.112l6.06 15.058h-2.433c-.988 0-1.977-.005-2.966.004-.193.001-.298-.04-.377-.24-1.956-4.928-3.92-9.853-5.882-14.78-.027-.068-.06-.14-.06-.212-.004-1.017-.003-2.033-.003-3.097h5.355V4.646h-6.666V33.14h-5.353V.042h17.338v.356l.01 9.912c.003 1.732.009 3.463.01 5.195.002 1.487-.828 2.381-2.327 2.48-.794.053-1.592.065-2.388.097-.092.004-.185.017-.318.03M75.34 4.668H68.8v28.49h-5.322V.263h14.569c1.688 0 2.746.999 2.79 2.684.031 1.179.008 2.359.01 3.538 0 4.058-.029 8.117.015 12.174a2.562 2.562 0 0 1-2.144 2.567 4.078 4.078 0 0 1-.696.072c-2.68.009-5.359.01-8.038.013-.063 0-.126-.008-.215-.015v-4.267h5.57V4.668zM127.617 33.152V.036h5.283v13.84l.063.018c.04-.076.089-.148.123-.227 1.902-4.447 3.805-8.893 5.7-13.342.1-.234.215-.328.484-.325 1.744.014 3.488.007 5.232.007h.373c-.23.477-.442.92-.657 1.361-2.572 5.261-5.144 10.521-7.715 15.783-1.156 2.363-2.31 4.728-3.457 7.095a1.224 1.224 0 0 0-.105.52c-.007 2.666-.005 5.333-.005 8v.386h-5.32z"/>
        <path d="M138.15 17.576c2.491 5.186 4.96 10.325 7.45 15.504-.112.01-.199.025-.285.025-1.776.001-3.552-.003-5.328.005-.206.001-.313-.053-.406-.253-1.45-3.115-2.914-6.224-4.365-9.34-.058-.123-.074-.32-.015-.433.936-1.786 1.887-3.564 2.836-5.342.02-.037.047-.07.113-.166M83.925 28.835l-1.04 4.312H69.298v-4.312h14.627zM96.389.033h9.088v4.225H97.24L96.389.033M133.364 4.358V.038h5.046c-.03.091-.051.176-.086.257-.561 1.27-1.128 2.538-1.681 3.811-.09.208-.203.277-.426.273-.851-.012-1.701-.004-2.552-.005-.093 0-.187-.01-.301-.016M59.476 33.156h3.546v-4.324h-3.546zM123.866 4.362h3.308V.042h-3.308zM113.135 36.902h-.938l-.042-.396c-.082-.008-.155-.02-.227-.02-.955-.002-1.91 0-2.892 0v2.731h3.116v-.807h-1.53v-.713h2.444c0 .65.034 1.304-.015 1.951-.025.317-.342.46-.646.463-1.264.013-2.53.011-3.793.002-.346-.002-.657-.34-.662-.733a96.455 96.455 0 0 1 .003-2.995c.009-.499.347-.793.843-.793h3.347c.866 0 1.179.404.992 1.31M99.16 36.443v2.803c.67 0 1.306.013 1.94-.003 1.49-.039 1.692-1.24 1.321-2.16-.17-.425-.504-.642-.97-.64h-2.292zm-.948 3.688v-4.473c.045-.015.083-.039.122-.039 1.073-.002 2.147-.03 3.22.007 1.096.038 1.718.614 1.92 1.68.293 1.55-.57 2.721-2.144 2.813-1.025.06-2.056.012-3.118.012zM143.671 37.176h-.995c-.01-.183-.02-.358-.033-.562h-2.725v2.616h2.777v-.81h.963c0 .383.03.763-.009 1.137-.033.327-.32.552-.68.556-1.136.009-2.274.01-3.41-.002-.393-.004-.714-.35-.722-.793a59.542 59.542 0 0 1 .004-2.835c.016-.538.428-.887.972-.89.977-.003 1.955-.001 2.933 0 .565 0 .86.24.92.792.028.249.005.505.005.79M152.686 37.428c.85 0 1.674.015 2.497-.007.361-.01.294-.32.297-.556.004-.234-.08-.385-.349-.382-.582.006-1.165.002-1.747.002h-.698v.943zm-.041.863v1.814h-.962v-4.492h.316l3.568.001c.668.001.973.306.978.971.002.277.001.552 0 .828-.002.548-.269.845-.829.87-.498.023-.998.007-1.497.008h-1.574zM124.352 38.263h1.926l-.915-1.778-1.011 1.778m4.113 1.843c-.401 0-.758.004-1.114-.004-.051 0-.105-.053-.15-.09a.265.265 0 0 1-.071-.105c-.248-.665-.727-.86-1.411-.778-.492.06-.998.02-1.497.008-.181-.004-.308.04-.377.214-.015.04-.043.073-.064.11-.447.754-.471.765-1.42.621.058-.107.106-.209.162-.305.76-1.313 1.525-2.622 2.276-3.939.11-.193.244-.23.45-.257.457-.057.692.126.912.524.68 1.234 1.41 2.441 2.122 3.66.057.097.106.198.182.341M148.412 38.3l-.92-1.796-1.022 1.796h1.942zm2.183 1.818c-.391 0-.731.013-1.068-.007-.092-.006-.228-.096-.26-.18-.26-.701-.772-.871-1.47-.79-.45.055-.913.029-1.368.005-.252-.014-.405.065-.494.292-.003.009-.01.018-.015.027-.465.77-.466.77-1.422.643.048-.1.086-.19.135-.275.765-1.322 1.536-2.641 2.292-3.97.11-.194.242-.234.45-.26.455-.056.696.123.915.52.686 1.245 1.42 2.463 2.137 3.692.048.08.09.164.168.303zM169.222 36.5l-1.013 1.786h1.925l-.912-1.785m-3.01 3.59c.45-.776.896-1.544 1.34-2.314.373-.642.75-1.282 1.114-1.93.094-.166.198-.257.398-.237.158.016.32-.01.477.009.083.01.195.056.233.12.845 1.435 1.683 2.874 2.559 4.377-.416 0-.78.012-1.141-.01-.076-.004-.18-.117-.212-.203-.254-.648-.717-.846-1.393-.763-.493.06-1 .018-1.498.008-.177-.002-.31.027-.376.208-.025.069-.074.128-.112.193-.386.646-.574.722-1.388.542M160.692 35.632h5.085v.85h-2.03V40.1h-1.012v-3.607h-2.043zM120.344 40.107h-1.001V36.48h-2.047v-.866h5.062v.835h-2.014zM174.378 35.616v3.645h3.297v.826h-4.362v-4.471zM129.464 40.09v-4.478h.942v3.642h3.425v.837zM105.142 40.122h1.08v-4.528h-1.08zM114.83 40.144h1.092v-4.53h-1.092zM158.259 40.094h.974v-4.459h-.974z"/>
    </g>
</svg>
