<svg width="62" height="50" viewBox="0 0 62 50" xmlns="http://www.w3.org/2000/svg">
    <path d="M.79 44.43A35.249 35.249 0 0 0 19.82 50c23.063 0 36.084-19.428 35.303-36.857a25.157 25.157 0 0 0 6.193-6.41 24.913 24.913 0 0 1-7.134 1.95 12.425 12.425 0 0 0 5.46-6.863 24.855 24.855 0 0 1-7.878 3.01 12.455 12.455 0 0 0-14.96-2.49 12.398 12.398 0 0 0-6.246 13.79A35.292 35.292 0 0 1 4.968 3.185C1.67 8.847 3.354 16.09 8.814 19.725a12.37 12.37 0 0 1-5.631-1.548c-.072 5.96 4.113 11.128 9.967 12.31a12.364 12.364 0 0 1-5.607.207A12.407 12.407 0 0 0 19.137 39.3 24.971 24.971 0 0 1 .789 44.43z" fill="#FFF" fill-rule="nonzero"/>
</svg>
