<svg width="107" height="104" viewBox="0 0 107 104" xmlns="http://www.w3.org/2000/svg">
    <g fill="none" fill-rule="evenodd">
        <path d="M71.411 38.641c-.082.16-.115.253-.172.328-.815 1.087-1.633 2.171-2.451 3.254-.789 1.046-1.581 2.09-2.369 3.135-1.308 1.735-2.612 3.472-3.919 5.208-.77 1.02-1.544 2.037-2.313 3.056-1.289 1.71-2.575 3.42-3.863 5.13-.779 1.034-1.56 2.065-2.339 3.098l-3.865 5.13-2.396 3.174c-1.25 1.657-2.503 3.313-3.75 4.973-.682.908-1.352 1.824-2.029 2.733-.459.615-.921 1.226-1.384 1.838-1.08 1.426-2.161 2.851-3.238 4.28-.071.093-.111.208-.184.35.187.01.313.025.439.024l61.104-.024c.014 0 .032-.012.041-.024.009-.01.011-.029.029-.083-.061-.113-.129-.255-.21-.39-.772-1.287-1.547-2.573-2.32-3.86l-2.494-4.148-2.465-4.109-2.516-4.19-2.491-4.152-2.517-4.19-2.418-4.024-3.774-6.287c-.823-1.37-1.647-2.737-2.465-4.109-1.106-1.852-2.205-3.708-3.309-5.56-.088-.147-.185-.288-.362-.56M31.937 84.426l-2.176 2.854c-.281.368-.556.741-.852 1.095a.628.628 0 0 1-.349.194 5.184 5.184 0 0 1-.808.056c-9.076.003-18.153.002-27.228.004-.175 0-.349.018-.524.027v-.096c.068-.065.152-.119.2-.195.297-.474.59-.95.876-1.429 1.072-1.797 2.139-3.596 3.211-5.392.786-1.315 1.58-2.627 2.368-3.94.863-1.439 1.723-2.877 2.586-4.315.765-1.272 1.534-2.542 2.298-3.814.895-1.492 1.788-2.986 2.683-4.479l2.443-4.064 2.49-4.147 2.44-4.065 2.565-4.27 2.367-3.94c.872-1.452 1.741-2.904 2.613-4.355.797-1.328 1.596-2.655 2.394-3.982.362-.6.731-1.199 1.085-1.805.174-.298.376-.442.757-.44 13.288.011 26.576.01 39.863.01h.434c.197.293.396.562.567.85.695 1.165 1.379 2.338 2.074 3.504.834 1.4 1.675 2.793 2.513 4.19l2.467 4.106c.83 1.383 1.659 2.766 2.49 4.148l2.441 4.063 2.539 4.231 2.467 4.106 2.537 4.231 2.394 3.981 2.54 4.23 2.439 4.065c.855 1.424 1.709 2.848 2.565 4.27.798 1.328 1.594 2.656 2.396 3.98.122.2.272.382.409.571v.192c-.223-.009-.446-.027-.669-.027-24.974-.002-49.948 0-74.922-.004-.328 0-.655-.037-1.068-.06.216-.299.379-.532.55-.758.712-.942 1.429-1.882 2.141-2.824 1.346-1.785 2.688-3.573 4.034-5.359.797-1.058 1.599-2.114 2.396-3.17 1.279-1.697 2.557-3.394 3.836-5.089.789-1.045 1.581-2.087 2.37-3.132 1.27-1.683 2.538-3.366 3.806-5.049l2.453-3.25 3.781-5.01c.807-1.07 1.617-2.139 2.424-3.21l2.511-3.327 2.453-3.25c1.27-1.683 2.536-3.367 3.809-5.048.519-.686 1.054-1.363 1.578-2.047.114-.148.214-.307.367-.528h-.998c-.112-.004-.223-.009-.335-.009-10.154 0-20.308.001-30.463-.008-.448 0-.818.031-.986.527-.043.131-.169.23-.243.353-.896 1.492-1.789 2.988-2.686 4.48-.748 1.246-1.5 2.49-2.248 3.736-.928 1.548-1.851 3.1-2.78 4.647-.731 1.218-1.469 2.433-2.201 3.652-.881 1.465-1.758 2.932-2.637 4.396l-2.369 3.944c-.871 1.452-1.741 2.904-2.613 4.355-.773 1.287-1.55 2.573-2.323 3.86a2750.019 2750.019 0 0 0-3.868 6.452c-.697 1.166-1.378 2.341-2.076 3.506-.5.835-1.02 1.66-1.527 2.49-.072.118-.124.25-.224.452h.668c7.628 0 15.255 0 22.883.004.201 0 .402.05.602.075" fill="#000"/>
        <path d="M68.057 33.076c-.224.006-.447.018-.671.018H39.182c-.208 0-.416-.008-.623-.012.08-.155.149-.318.24-.467.603-.997 1.215-1.988 1.817-2.986.874-1.449 1.74-2.903 2.613-4.354.772-1.286 1.548-2.571 2.32-3.857.856-1.424 1.709-2.849 2.564-4.273.813-1.355 1.63-2.708 2.44-4.065.695-1.166 1.378-2.34 2.074-3.505.208-.349.44-.682.686-1.06.39.635.757 1.214 1.11 1.8.785 1.298 1.566 2.598 2.347 3.899.855 1.423 1.708 2.847 2.562 4.271l2.394 3.983c.854 1.423 1.713 2.845 2.563 4.271.71 1.194 1.414 2.394 2.12 3.589.057.097.132.182.189.277.487.823.974 1.647 1.459 2.471" fill="#D2D2D2"/>
        <path d="M68.057 33.076c-.485-.824-.972-1.648-1.46-2.471-.056-.095-.131-.18-.187-.277-.707-1.195-1.41-2.395-2.121-3.589-.85-1.426-1.71-2.848-2.563-4.271l-2.394-3.983c-.854-1.424-1.707-2.848-2.562-4.271-.781-1.301-1.562-2.601-2.347-3.899-.353-.586-.72-1.165-1.11-1.8-.245.378-.478.711-.686 1.06-.696 1.165-1.38 2.339-2.074 3.505-.81 1.357-1.627 2.71-2.44 4.065l-2.563 4.273c-.773 1.286-1.55 2.571-2.321 3.857-.872 1.451-1.74 2.905-2.613 4.354-.602.998-1.214 1.989-1.817 2.986-.091.149-.16.312-.24.467-1.12.009-2.237.018-3.356.024-.557.003-1.113.001-1.728.001.186-.539.48-.954.742-1.385.058-.096.132-.181.189-.277.692-1.168 1.378-2.339 2.072-3.505.866-1.454 1.737-2.905 2.609-4.355.748-1.245 1.503-2.487 2.25-3.732.912-1.519 1.819-3.042 2.73-4.561.788-1.315 1.582-2.626 2.37-3.94.856-1.422 1.708-2.847 2.562-4.271.805-1.341 1.609-2.684 2.418-4.023.586-.968 1.18-1.933 1.772-2.899.03-.051.075-.094.13-.159.356.574.71 1.122 1.044 1.682.704 1.179 1.393 2.367 2.096 3.546.818 1.371 1.643 2.739 2.465 4.107l2.468 4.103c.846 1.409 1.689 2.821 2.535 4.23.814 1.355 1.63 2.709 2.443 4.064.846 1.409 1.69 2.821 2.537 4.23.805 1.341 1.608 2.683 2.418 4.021.512.847 1.039 1.685 1.554 2.529.097.159.174.331.287.548-.127.022-.197.044-.267.044-1.534.002-3.07.002-4.604 0-.08 0-.16-.018-.238-.028" fill="#000"/>
        <path d="M31.937 84.428c-.2-.026-.4-.075-.603-.075-7.627-.004-15.254-.004-22.882-.004h-.668c.1-.203.152-.334.224-.452.507-.831 1.026-1.656 1.527-2.49.698-1.166 1.38-2.34 2.076-3.506 1.286-2.154 2.577-4.303 3.868-6.452.772-1.288 1.55-2.573 2.322-3.86.873-1.451 1.742-2.903 2.614-4.355l2.368-3.944c.88-1.465 1.757-2.931 2.637-4.396.733-1.22 1.471-2.434 2.202-3.653.93-1.547 1.852-3.098 2.78-4.646.747-1.247 1.5-2.49 2.248-3.736.896-1.493 1.79-2.988 2.686-4.48.074-.123.2-.222.243-.353.168-.496.538-.527.986-.527 10.154.009 20.31.007 30.463.008.111 0 .222.005.335.009-.41.529-.825 1.057-1.23 1.59-1.18 1.55-2.356 3.105-3.533 4.659-.443.585-.884 1.173-1.323 1.762-.649.87-1.289 1.749-1.944 2.615-1.145 1.517-2.3 3.026-3.447 4.542-.925 1.223-1.84 2.454-2.762 3.679-1.24 1.645-2.483 3.287-3.724 4.93l-3.75 4.973-3.755 4.973c-1.25 1.656-2.505 3.31-3.757 4.966-.77 1.019-1.538 2.04-2.31 3.059-1.11 1.464-2.223 2.924-3.332 4.388-.193.254-.373.517-.559.776" fill="#C2C2C2"/>
        <path d="M48.05 98.209c.107-.13.16-.185.204-.247.612-.897 1.22-1.796 1.838-2.69.326-.472.666-.936 1-1.403.275-.385.655-.545 1.12-.52.484.027.797.358.787.84a2.338 2.338 0 0 1-.042.382c-.348 1.884-.698 3.767-1.05 5.65-.016.092-.044.183-.081.33-.397 0-.792.015-1.184-.004-.292-.016-.366-.151-.31-.455.29-1.553.58-3.107.868-4.66.01-.061.007-.125.014-.276-.136.14-.23.218-.3.314a31.75 31.75 0 0 0-.69.975c-.654.965-1.303 1.934-1.957 2.899-.234.344-.475.68-.718 1.016-.088.12-.128.309-.34.288-.221-.021-.214-.217-.26-.356-.41-1.276-.814-2.555-1.218-3.832-.078-.243-.148-.49-.232-.73a1.081 1.081 0 0 0-.22-.375c-.385 1.709-.633 3.434-.958 5.125-.053.029-.08.054-.107.058-.513.082-.705-.035-.586-.614.369-1.815.683-3.64 1.019-5.461.012-.063.03-.124.047-.186.154-.63.399-.885.879-.923.555-.045.987.212 1.223.737.059.13.097.27.137.408.253.875.5 1.75.758 2.624.098.334.217.662.359 1.086M80.49 99.773c.703 0 1.344.044 1.976-.012.752-.066 1.366-.465 1.797-1.074.71-1.003.83-2.13.53-3.299-.158-.616-.566-1.075-1.223-1.136-.678-.063-1.365-.014-2.099-.014l-.982 5.535m-.68 3.497c-.424 0-.838.013-1.249-.004-.248-.01-.313-.105-.269-.394.095-.633.205-1.263.32-1.89.442-2.438.89-4.872 1.336-7.307.01-.046.031-.089.06-.167.111-.01.233-.035.355-.035.943-.003 1.887-.009 2.83.001.645.007 1.266.117 1.86.4.9.428 1.407 1.164 1.564 2.102.22 1.3-.195 2.448-1.13 3.363-.654.641-1.483 1.01-2.394 1.117-.649.076-1.307.072-1.96.098-.24.01-.478.002-.779.002-.18.902-.358 1.785-.545 2.714M27.462 94.235l-1.042 5.533c.728 0 1.4.053 2.06-.015a2.31 2.31 0 0 0 1.53-.82c.896-1.046 1.1-2.252.756-3.548-.161-.606-.598-1.063-1.237-1.133-.676-.076-1.366-.017-2.067-.017m-1.166 6.317-.497 2.718c-.445 0-.858.015-1.27-.005-.302-.013-.37-.134-.311-.452.26-1.38.523-2.76.779-4.14.15-.818.279-1.639.434-2.455.17-.892.359-1.78.544-2.697.083-.015.173-.047.263-.047 1.007-.003 2.015-.023 3.02.01.443.013.904.071 1.318.22 1.355.48 1.975 1.312 2.017 2.72.047 1.57-.631 2.86-2.201 3.617-.738.355-1.515.493-2.321.51-.574.011-1.148.001-1.775.001M35.42 96.803c.563 0 1.09.03 1.612-.005.955-.067 1.46-.75 1.283-1.68-.098-.511-.365-.816-.882-.865-.503-.047-1.013-.01-1.53-.01l-.483 2.56m-.1.43-.593 3.322c-.4 0-.78.008-1.16-.002-.352-.008-.422-.082-.37-.44.093-.617.205-1.228.313-1.841.213-1.21.424-2.422.646-3.63.069-.373.17-.74.254-1.096.046-.028.073-.056.099-.056 1.07-.005 2.14-.021 3.209-.004.5.007.953.173 1.382.468.838.576.858 2.29.035 2.877-.4.284-.802.514-1.293.576-.123.016-.242.06-.405.1l.529.942c.31.558.629 1.112.926 1.675.146.276.053.42-.263.428-.445.012-.891.003-1.337.003-.622-1.109-1.227-2.192-1.837-3.274-.011-.02-.056-.022-.134-.049M75.525 94.934c-.305.354-1.657 2.907-1.73 3.248h2.242c-.17-1.087-.338-2.143-.512-3.248m.63 4.031c-.896 0-1.756.003-2.616-.002-.2 0-.266.135-.344.28-.197.364-.399.726-.606 1.086-.119.208-.516.316-.699.188-.137-.097-.145-.23-.067-.38.308-.596.612-1.193.92-1.789.057-.113.132-.218.19-.33.673-1.306 1.34-2.613 2.022-3.913a2.55 2.55 0 0 1 .442-.616c.513-.522 1.268-.322 1.434.391.136.59.212 1.195.308 1.793.173 1.072.336 2.145.514 3.216.065.393.174.778.241 1.171.07.404-.005.486-.413.494-.333.007-.667.001-1.038.001l-.288-1.59M99.598 98.185c-.185-1.11-.313-2.156-.586-3.199-.34.521-.613 1.054-.891 1.587-.272.524-.546 1.048-.841 1.612h2.318zm.4 2.37c-.1-.558-.191-1.056-.29-1.592-.654 0-1.278.048-1.892-.012-.678-.067-1.12.112-1.336.8-.088.28-.303.52-.493.832-.193-.04-.461-.02-.591-.144-.205-.195.044-.409.137-.593.633-1.253 1.279-2.5 1.924-3.747.36-.693.717-1.389 1.097-2.07.129-.234.302-.454.497-.634.376-.348 1.164-.24 1.308.387.117.512.2 1.033.285 1.552.207 1.277.403 2.555.61 3.831.055.331.148.654.2.984.046.284-.034.388-.316.4-.365.017-.731.005-1.14.005zM105.432 100.545c-.638 0-1.276.026-1.912-.008-.602-.033-.991-.471-1.02-1.073a2.181 2.181 0 0 1 .04-.476c.364-2.011.726-4.023 1.099-6.032.187-1.003.395-2.001.603-3.047.436 0 .865-.012 1.293.005.259.01.324.13.268.442-.128.723-.261 1.446-.396 2.168l-1.234 6.542c-.018.094-.043.189-.047.284-.011.296.084.41.38.436.19.017.384.004.575.008.45.01.529.11.433.557-.013.06-.05.116-.082.194M59.144 94.208h-2.19c-.128 0-.256-.004-.384.002-.364.016-.467.075-.539.418-.123.577-.214 1.16-.329 1.802.212.008.38.02.548.022.512.002 1.024-.002 1.536.002.481.003.536.067.462.53-.01.06-.034.119-.062.218h-2.61c-.144.706-.293 1.374-.41 2.047-.075.417.02.524.443.536.591.017 1.183.007 1.774.009.113 0 .225-.004.336 0 .377.018.441.1.373.479-.013.078-.038.154-.06.248-.079.012-.156.033-.232.033-1.087.002-2.175.008-3.26-.003-.205-.003-.427-.032-.604-.122-.396-.203-.48-.583-.419-.988.107-.711.231-1.42.362-2.127.168-.91.351-1.818.53-2.726.133-.687.455-1.012 1.143-1.095.38-.046.766-.031 1.15-.034.671-.004 1.343-.002 2.014-.001.62.002.682.105.428.75M12.827 94.208H10.45c-.6.003-.661.057-.771.666-.09.502-.177 1.004-.278 1.579h.828c.399 0 .799-.003 1.198 0 .584.005.654.116.437.748H9.23c-.135.74-.275 1.444-.39 2.149-.044.279.078.414.378.432.366.022.734.01 1.102.012.335 0 .67-.005 1.006 0 .44.009.498.085.409.526-.012.062-.032.122-.055.207-.123.01-.246.028-.37.028-1.006.003-2.013-.024-3.018.009-.674.023-1.23-.343-1.07-1.256.27-1.54.544-3.08.828-4.62.15-.807.594-1.2 1.415-1.218 1.02-.024 2.044-.014 3.066-.01.373.003.448.107.38.473-.013.078-.045.15-.085.275M15.5 96.453h1.79c.127 0 .255-.004.383.001.37.015.443.104.38.466-.013.078-.032.154-.058.274h-2.622c-.136.751-.277 1.467-.391 2.188-.04.252.083.376.363.398.286.023.574.012.863.014.415.001.83-.004 1.247.001.449.006.507.08.425.512-.012.063-.03.124-.053.214-.12.012-.241.034-.362.034-1.007.002-2.016-.025-3.022.009-.725.026-1.238-.387-1.073-1.296.277-1.524.562-3.047.812-4.577.11-.682.609-1.222 1.415-1.226.783-.005 1.566-.005 2.35-.007.223-.001.448-.004.67.001.443.008.513.094.426.515-.012.061-.04.12-.078.234h-.74c-.607.001-1.214.004-1.822 0-.25-.002-.451.074-.51.337-.132.605-.251 1.214-.393 1.908M2.543 99.763c.17.01.34.028.51.028.735.005 1.47.002 2.206.002.658.001.684.036.532.724-.11.013-.233.038-.355.038-1.55.002-3.1.001-4.65 0-.097 0-.2.016-.287-.014-.155-.05-.239-.165-.149-.33.052-.097.13-.183.198-.27.776-.975 1.55-1.948 2.33-2.92.548-.686 1.11-1.362 1.653-2.05.16-.202.403-.38.317-.739-.156-.008-.312-.022-.468-.023-.719-.002-1.439 0-2.158-.002-.628 0-.693-.1-.456-.75h3.961c.128 0 .257-.005.383.01.527.064.766.465.501.927-.229.398-.526.761-.816 1.121-.539.672-1.097 1.33-1.643 1.996-.464.569-.924 1.142-1.382 1.717-.106.133-.195.28-.29.422l.063.113zM70.864 99.198c.07.035.103.044.125.065.403.385.4.464-.048.804-.859.653-1.848.741-2.874.648a3.945 3.945 0 0 1-.749-.157c-2.049-.606-2.649-2.963-1.954-4.474.033-.074.06-.149.09-.223.831-2.012 2.978-2.99 5.148-2.476.502.118.951.373 1.314.754.305.322.298.404-.069.67-.05.036-.107.065-.199.12-.128-.106-.27-.204-.39-.324-.834-.836-2.779-.953-3.74.392-.799 1.116-1.02 2.366-.663 3.695.22.814.754 1.214 1.595 1.286.766.067 1.454-.139 2.09-.554.105-.07.21-.146.324-.226" fill="#000"/>
        <path d="M91.59 93.472H96.075c.657 0 .69.047.507.74h-1.763l-1.176 6.344c-.392 0-.755.005-1.118-.001-.418-.007-.482-.073-.417-.48.105-.662.219-1.323.34-1.981.223-1.194.454-2.384.678-3.576.015-.078.018-.156.03-.297-.38 0-.743 0-1.105-.002-.647-.001-.69-.066-.461-.747" fill="#010101"/>
        <path d="M88.64 93.472c.447 0 .83-.01 1.212.004.33.013.417.147.359.457a504.05 504.05 0 0 0-.681 3.67c-.175.957-.34 1.916-.52 2.942-.455 0-.912.017-1.367-.002-.233-.01-.26-.203-.227-.394.066-.394.13-.787.204-1.18.22-1.175.446-2.35.666-3.525.119-.642.23-1.285.354-1.972M41.836 93.472c.395 0 .761-.007 1.127.003.372.01.451.105.381.48-.149.8-.318 1.597-.464 2.397-.229 1.257-.445 2.516-.669 3.774-.02.125-.056.248-.098.428-.41 0-.82.011-1.23-.004-.252-.01-.328-.106-.293-.382.052-.395.13-.788.2-1.18.283-1.62.567-3.242.858-4.862.04-.216.121-.425.188-.654" fill="#000"/>
        <path d="M89.716 91.521c.526-.009.86.284.856.748-.004.46-.381.8-.891.803-.434.003-.822-.357-.823-.762-.001-.415.398-.782.858-.789" fill="#030303"/>
        <path d="M42.835 93.072c-.477.006-.8-.299-.804-.757-.005-.468.328-.786.828-.794.513-.009.815.256.826.72.01.49-.332.826-.85.831" fill="#020202"/>
        <path d="M71.411 38.641c.177.273.274.414.362.561 1.104 1.852 2.203 3.708 3.309 5.56.818 1.372 1.642 2.74 2.465 4.11l3.774 6.286 2.418 4.024 2.517 4.19 2.491 4.151 2.516 4.191 2.465 4.11 2.494 4.147c.773 1.287 1.548 2.573 2.32 3.86.081.135.149.277.21.39-.018.054-.02.072-.029.083-.009.012-.027.024-.041.024l-61.104.024c-.126.001-.252-.014-.439-.025.073-.14.113-.256.184-.349 1.077-1.429 2.158-2.854 3.238-4.28.463-.612.925-1.223 1.384-1.838.677-.909 1.347-1.825 2.029-2.733 1.247-1.66 2.5-3.316 3.75-4.973l2.396-3.175 3.865-5.129c.779-1.033 1.56-2.064 2.339-3.098 1.288-1.71 2.574-3.42 3.863-5.13.769-1.019 1.543-2.036 2.313-3.056 1.307-1.736 2.611-3.473 3.919-5.208.788-1.046 1.58-2.089 2.369-3.135.818-1.083 1.636-2.167 2.451-3.254.057-.075.09-.169.172-.328" fill="#A5A5A5"/>
        <path d="m80.49 99.773.981-5.535c.734 0 1.421-.049 2.1.014.656.061 1.064.52 1.222 1.136.3 1.168.18 2.296-.53 3.3-.43.608-1.045 1.007-1.797 1.073-.632.056-1.273.012-1.977.012M27.462 94.235c.7 0 1.39-.059 2.067.017.639.07 1.076.527 1.237 1.133.345 1.296.14 2.502-.756 3.547a2.31 2.31 0 0 1-1.53.821c-.66.068-1.332.015-2.06.015l1.042-5.533" fill="#FFF"/>
        <path d="M35.42 96.803c.165-.876.32-1.703.483-2.56.517 0 1.027-.037 1.53.01.517.049.784.353.882.865.178.93-.328 1.614-1.283 1.68-.522.035-1.05.005-1.612.005" fill="#FEFEFE"/>
        <path d="m75.525 94.934.512 3.248h-2.242c.073-.34 1.425-2.894 1.73-3.248M99.598 98.185H97.28c.295-.564.569-1.088.84-1.612.279-.533.553-1.066.892-1.587.273 1.043.4 2.088.586 3.2" fill="#FDFDFD"/>
    </g>
</svg>
